<svg version="1.1" id="Layer_1" xmlns="http://www.w3.org/2000/svg" xmlns:xlink="http://www.w3.org/1999/xlink" x="0px" y="0px"
	 width="100%" viewBox="0 0 256 256" enable-background="new 0 0 256 256" xml:space="preserve">
<path fill="#FEFDD5" opacity="1.000000" stroke="none" 
	d="
M74.000000,257.000000 
	C49.730194,257.000000 25.460390,257.000000 1.000000,257.000000 
	C1.000000,225.646027 1.000000,194.291672 1.374922,162.469421 
	C3.660766,162.335602 5.571689,162.669678 7.580549,163.444733 
	C7.779926,166.590286 7.881366,169.294861 7.877143,172.457932 
	C7.771479,198.971893 7.771479,225.027359 7.771479,251.470291 
	C29.993351,251.470291 51.462246,251.470291 72.900551,251.644775 
	C72.869965,251.819275 72.955475,252.163101 72.977654,252.519424 
	C73.333221,254.250504 73.666611,255.625244 74.000000,257.000000 
z"/>
<path fill="#FEFDD5" opacity="1.000000" stroke="none" 
	d="
M1.000000,7.000000 
	C1.000000,5.008290 1.000000,3.016581 1.000000,1.000000 
	C34.020889,1.000000 67.041786,1.000000 100.521797,1.397875 
	C100.814606,5.227723 98.818962,6.032517 95.669098,6.035367 
	C87.446030,6.042806 79.223236,6.341493 70.540779,6.622864 
	C51.039032,6.726961 31.996664,6.698377 12.954899,6.791996 
	C11.131697,6.800960 9.312239,7.571634 7.129827,7.969512 
	C4.845741,7.633551 2.922871,7.316776 1.000000,7.000000 
z"/>
<path fill="#FCF8CD" opacity="1.000000" stroke="none" 
	d="
M251.000000,1.000000 
	C252.991943,1.000000 254.983887,1.000000 257.000000,1.000000 
	C257.000000,35.020889 257.000000,69.041786 256.625122,103.531097 
	C255.001801,103.995758 253.753372,103.992012 252.418259,103.527328 
	C252.305618,72.682335 252.301544,42.298210 252.198898,11.914414 
	C252.192780,10.109056 251.396027,8.306369 250.976364,6.043711 
	C250.990356,4.056655 250.995178,2.528327 251.000000,1.000000 
z"/>
<path fill="#F1E5B7" opacity="1.000000" stroke="none" 
	d="
M1.000000,120.000000 
	C1.000000,100.645775 1.000000,81.291542 1.365325,61.512535 
	C3.652247,61.391079 5.573845,61.694408 7.595735,62.456795 
	C7.791936,74.610168 7.887846,86.304497 7.888978,98.459427 
	C7.694627,105.948586 7.595055,112.977150 7.092175,120.008057 
	C4.792577,120.006935 2.896289,120.003471 1.000000,120.000000 
z"/>
<path fill="#FBF8C2" opacity="1.000000" stroke="none" 
	d="
M257.000000,190.000000 
	C257.000000,212.333405 257.000000,234.666809 257.000000,257.000000 
	C252.566681,257.000000 248.257462,257.000000 243.473404,256.595764 
	C243.017380,254.855881 243.036209,253.520218 243.235870,252.101837 
	C243.655624,251.892044 243.853470,251.718231 244.464386,251.404770 
	C247.203842,251.311844 249.489151,251.311844 252.507050,251.311844 
	C252.507050,230.541550 252.507050,210.275421 252.881195,190.013672 
	C254.503555,190.012024 255.751770,190.006012 257.000000,190.000000 
z"/>
<path fill="#F1E5B7" opacity="1.000000" stroke="none" 
	d="
M252.504929,103.988266 
	C253.753372,103.992012 255.001801,103.995758 256.625122,103.999756 
	C257.000000,123.687561 257.000000,143.375122 256.625488,163.531082 
	C255.003571,164.000107 253.756195,164.000748 252.404358,163.548676 
	C252.206604,159.063461 252.113297,155.030975 252.127991,150.540421 
	C252.156235,138.388397 252.076477,126.694450 252.098434,114.550674 
	C252.301743,110.729996 252.403336,107.359131 252.504929,103.988266 
z"/>
<path fill="#FAF5C4" opacity="1.000000" stroke="none" 
	d="
M1.000000,7.468657 
	C2.922871,7.316776 4.845741,7.633551 7.239885,8.427130 
	C7.638259,20.599709 7.565360,32.295483 7.131401,43.968391 
	C4.846894,43.630352 2.923447,43.315174 1.000000,43.000000 
	C1.000000,31.312439 1.000000,19.624876 1.000000,7.468657 
z"/>
<path fill="#B4A888" opacity="1.000000" stroke="none" 
	d="
M176.000000,257.000000 
	C166.645767,257.000000 157.291550,257.000000 147.472198,256.605347 
	C146.994858,254.636200 146.982635,253.061707 147.338318,251.368713 
	C148.472244,251.153702 149.238297,251.057159 150.468216,251.031601 
	C158.964340,251.228073 166.996567,251.353577 175.042389,251.830490 
	C175.370651,253.787918 175.685318,255.393967 176.000000,257.000000 
z"/>
<path fill="#FCF8CD" opacity="1.000000" stroke="none" 
	d="
M7.482612,163.003769 
	C5.571689,162.669678 3.660766,162.335602 1.374922,162.000763 
	C1.000000,154.645752 1.000000,147.291504 1.407139,139.469513 
	C3.698727,138.986389 5.583175,138.971008 7.573027,139.416641 
	C7.613157,147.586365 7.547884,155.295059 7.482612,163.003769 
z"/>
<path fill="#E7D8B0" opacity="1.000000" stroke="none" 
	d="
M143.000000,1.000000 
	C150.687576,1.000000 158.375168,1.000000 166.540573,1.397598 
	C167.000885,3.382105 166.983368,4.969014 166.504654,6.630286 
	C158.359100,6.639993 150.674713,6.575336 142.987396,6.118248 
	C142.989639,4.150545 142.994812,2.575272 143.000000,1.000000 
z"/>
<path fill="#F7EAC2" opacity="1.000000" stroke="none" 
	d="
M7.467623,138.955627 
	C5.583175,138.971008 3.698727,138.986389 1.407139,139.000885 
	C1.000000,132.978851 1.000000,126.957695 1.000000,120.468277 
	C2.896289,120.003471 4.792577,120.006935 7.188747,120.467033 
	C7.791636,126.948669 7.894643,132.973663 7.864520,138.995590 
	C7.731389,138.992508 7.467623,138.955612 7.467623,138.955627 
z"/>
<path fill="#F4E8B6" opacity="1.000000" stroke="none" 
	d="
M252.508820,164.001373 
	C253.756195,164.000748 255.003571,164.000107 256.625488,163.999741 
	C257.000000,172.354233 257.000000,180.708466 257.000000,189.531342 
	C255.751770,190.006012 254.503555,190.012024 252.767715,189.556915 
	C252.356339,180.730988 252.432571,172.366180 252.508820,164.001373 
z"/>
<path fill="#E7D8B0" opacity="1.000000" stroke="none" 
	d="
M187.000000,1.000000 
	C195.354233,1.000000 203.708466,1.000000 212.529633,1.459685 
	C212.972229,3.452325 212.947906,4.985281 212.468201,6.608912 
	C203.620483,6.652838 195.228119,6.606087 186.872131,6.096928 
	C186.938980,4.089680 186.969482,2.544840 187.000000,1.000000 
z"/>
<path fill="#FCF8CD" opacity="1.000000" stroke="none" 
	d="
M71.000328,6.524040 
	C79.223236,6.341493 87.446030,6.042806 95.669098,6.035367 
	C98.818962,6.032517 100.814606,5.227723 100.990456,1.397875 
	C106.022095,1.000000 111.044182,1.000000 116.532181,1.393790 
	C116.996956,3.358602 116.995811,4.929625 116.534958,6.596292 
	C101.050270,6.635971 86.025299,6.580005 71.000328,6.524040 
z"/>
<path fill="#F4E8B6" opacity="1.000000" stroke="none" 
	d="
M1.000000,43.467941 
	C2.923447,43.315174 4.846894,43.630352 7.240058,44.425354 
	C7.638331,50.602695 7.566887,56.300217 7.495443,61.997742 
	C5.573845,61.694408 3.652247,61.391079 1.365325,61.043877 
	C1.000000,55.311958 1.000000,49.623920 1.000000,43.467941 
z"/>
<path fill="#CAC09D" opacity="1.000000" stroke="none" 
	d="
M186.531586,1.000000 
	C186.969482,2.544840 186.938980,4.089680 186.492798,6.205639 
	C179.706680,6.703146 173.336258,6.629534 166.965836,6.555923 
	C166.983368,4.969014 167.000885,3.382105 167.009201,1.397598 
	C173.354401,1.000000 179.708786,1.000000 186.531586,1.000000 
z"/>
<path fill="#D0C096" opacity="1.000000" stroke="none" 
	d="
M176.468262,257.000000 
	C175.685318,255.393967 175.370651,253.787918 175.503372,251.752899 
	C181.971939,251.384399 187.993103,251.444870 194.033463,251.854706 
	C194.368439,253.802719 194.684219,255.401367 195.000000,257.000000 
	C188.978851,257.000000 182.957703,257.000000 176.468262,257.000000 
z"/>
<path fill="#D0C096" opacity="1.000000" stroke="none" 
	d="
M146.970413,251.487213 
	C146.982635,253.061707 146.994858,254.636200 147.003540,256.605347 
	C140.978851,257.000000 134.957703,257.000000 128.473602,256.643341 
	C128.340134,254.687775 128.669617,253.088867 129.457550,251.391632 
	C135.600800,251.357941 141.285614,251.422577 146.970413,251.487213 
z"/>
<path fill="#FAF5C4" opacity="1.000000" stroke="none" 
	d="
M250.531464,1.000000 
	C250.995178,2.528327 250.990356,4.056655 250.518860,6.141537 
	C243.344254,6.634549 236.636337,6.571005 229.948807,6.048607 
	C229.979477,4.059834 229.989731,2.529917 230.000000,1.000000 
	C236.687637,1.000000 243.375290,1.000000 250.531464,1.000000 
z"/>
<path fill="#E7D8B0" opacity="1.000000" stroke="none" 
	d="
M116.000000,257.000000 
	C110.645073,257.000000 105.290138,257.000000 99.469299,256.606171 
	C98.999207,254.641174 98.995026,253.069992 99.447495,251.390259 
	C105.261345,251.350830 110.618546,251.419983 115.974541,251.881622 
	C115.982224,253.849396 115.991112,255.424698 116.000000,257.000000 
z"/>
<path fill="#F1E5B7" opacity="1.000000" stroke="none" 
	d="
M244.010254,251.497696 
	C243.853470,251.718231 243.655624,251.892044 242.767761,252.050705 
	C239.677200,252.067581 237.208878,252.276199 234.799988,251.987930 
	C230.779678,251.506821 229.479050,253.298798 230.000000,257.000000 
	C225.974823,257.000000 221.949631,257.000000 217.463531,256.607269 
	C217.004410,254.647903 217.006210,253.081253 217.468018,251.422516 
	C226.622101,251.386185 235.316177,251.441940 244.010254,251.497696 
z"/>
<path fill="#F4E8B6" opacity="1.000000" stroke="none" 
	d="
M229.532379,1.000000 
	C229.989731,2.529917 229.979477,4.059834 229.495544,6.147176 
	C223.655777,6.642479 218.289688,6.580358 212.923584,6.518236 
	C212.947906,4.985281 212.972229,3.452325 212.998276,1.459685 
	C218.354935,1.000000 223.709854,1.000000 229.532379,1.000000 
z"/>
<path fill="#F7EAC2" opacity="1.000000" stroke="none" 
	d="
M74.466858,257.000000 
	C73.666611,255.625244 73.333221,254.250504 73.291649,252.478531 
	C74.368378,251.867401 75.153282,251.653503 76.204514,251.373978 
	C76.645790,251.361542 76.820747,251.414734 77.364014,251.642532 
	C80.195023,251.888672 82.687248,252.232941 85.113731,251.970139 
	C89.124016,251.535767 90.568245,253.188309 90.000000,257.000000 
	C84.977905,257.000000 79.955818,257.000000 74.466858,257.000000 
z"/>
<path fill="#F7EAC2" opacity="1.000000" stroke="none" 
	d="
M116.994675,6.500648 
	C116.995811,4.929625 116.996956,3.358602 116.999046,1.393790 
	C121.356903,1.000000 125.713806,1.000000 130.534760,1.393980 
	C130.997833,3.359773 130.996841,4.931587 130.540009,6.599490 
	C125.721024,6.630603 121.357849,6.565625 116.994675,6.500648 
z"/>
<path fill="#CDC39E" opacity="1.000000" stroke="none" 
	d="
M116.460632,257.000000 
	C115.991112,255.424698 115.982224,253.849396 116.399879,251.762421 
	C118.884048,251.163040 120.941666,251.075317 123.421837,251.078400 
	C125.562622,251.276123 127.280861,251.383041 128.999100,251.489960 
	C128.669617,253.088867 128.340134,254.687775 128.005341,256.643341 
	C124.307091,257.000000 120.614182,257.000000 116.460632,257.000000 
z"/>
<path fill="#F1E5B7" opacity="1.000000" stroke="none" 
	d="
M130.995850,6.503400 
	C130.996841,4.931587 130.997833,3.359773 130.999420,1.393980 
	C134.692902,1.000000 138.385818,1.000000 142.539352,1.000000 
	C142.994812,2.575272 142.989639,4.150545 142.535065,6.211214 
	C138.389069,6.632207 134.692459,6.567804 130.995850,6.503400 
z"/>
<path fill="#E3CD9A" opacity="1.000000" stroke="none" 
	d="
M195.458069,257.000000 
	C194.684219,255.401367 194.368439,253.802719 194.486496,251.767426 
	C198.616470,251.390945 202.312622,251.451141 206.012634,251.902130 
	C206.011017,253.861954 206.005508,255.430969 206.000000,257.000000 
	C202.638718,257.000000 199.277420,257.000000 195.458069,257.000000 
z"/>
<path fill="#F1E5B7" opacity="1.000000" stroke="none" 
	d="
M90.449982,257.000000 
	C90.568245,253.188309 89.124016,251.535767 85.113731,251.970139 
	C82.687248,252.232941 80.195023,251.888672 77.817383,251.534515 
	C82.268196,251.167404 86.633942,251.082932 91.434410,251.102417 
	C94.243027,251.303864 96.616936,251.401337 98.990837,251.498810 
	C98.995026,253.069992 98.999207,254.641174 99.001694,256.606171 
	C96.299988,257.000000 93.599968,257.000000 90.449982,257.000000 
z"/>
<path fill="#E7D8B0" opacity="1.000000" stroke="none" 
	d="
M206.458069,257.000000 
	C206.005508,255.430969 206.011017,253.861954 206.463470,251.813126 
	C210.276276,251.393753 213.642136,251.454193 217.007996,251.514618 
	C217.006210,253.081253 217.004410,254.647903 217.001312,256.607269 
	C213.638718,257.000000 210.277420,257.000000 206.458069,257.000000 
z"/>
<path fill="#F7EAC2" opacity="1.000000" stroke="none" 
	d="
M230.463181,257.000000 
	C229.479050,253.298798 230.779678,251.506821 234.799988,251.987930 
	C237.208878,252.276199 239.677200,252.067581 242.586929,252.133423 
	C243.036209,253.520218 243.017380,254.855881 242.999268,256.595764 
	C238.975449,257.000000 234.950912,257.000000 230.463181,257.000000 
z"/>
<path fill="#322B26" opacity="1.000000" stroke="none" 
	d="
M90.999695,250.998444 
	C86.633942,251.082932 82.268196,251.167404 77.449074,251.359894 
	C76.820747,251.414734 76.645790,251.361542 75.835846,251.261414 
	C74.444283,251.299759 73.687714,251.385025 72.931137,251.470291 
	C51.462246,251.470291 29.993351,251.470291 7.771479,251.470291 
	C7.771479,225.027359 7.771479,198.971893 8.236427,172.529099 
	C9.484115,173.886002 10.555658,175.559082 11.005520,177.385300 
	C16.281681,198.804276 26.384674,217.008057 44.640354,230.278305 
	C57.246986,239.442184 71.219383,244.947311 86.309418,248.146820 
	C87.998451,248.504929 89.442200,250.019943 90.999695,250.998444 
z"/>
<path fill="#352E29" opacity="1.000000" stroke="none" 
	d="
M91.434410,251.102417 
	C89.442200,250.019943 87.998451,248.504929 86.309418,248.146820 
	C71.219383,244.947311 57.246986,239.442184 44.640354,230.278305 
	C26.384674,217.008057 16.281681,198.804276 11.005520,177.385300 
	C10.555658,175.559082 9.484115,173.886002 8.342091,172.070602 
	C7.881366,169.294861 7.779926,166.590286 7.580548,163.444733 
	C7.547884,155.295059 7.613157,147.586365 7.573027,139.416626 
	C7.467623,138.955612 7.731389,138.992508 8.237590,139.083542 
	C9.094913,139.508392 9.670610,139.788788 9.764523,140.183762 
	C12.561334,151.946045 15.200027,163.746902 18.092535,175.485260 
	C22.593782,193.752258 32.255646,208.759064 46.479748,221.115601 
	C65.413109,237.563080 87.965981,244.717499 112.203400,248.078522 
	C115.866066,248.586441 119.403778,249.995438 122.999290,250.987610 
	C120.941666,251.075317 118.884048,251.163040 116.401085,251.369934 
	C110.618546,251.419983 105.261345,251.350830 99.447495,251.390244 
	C96.616936,251.401337 94.243027,251.303864 91.434410,251.102417 
z"/>
<path fill="#E7D8B0" opacity="1.000000" stroke="none" 
	d="
M72.900551,251.644775 
	C73.687714,251.385025 74.444283,251.299759 75.569519,251.327026 
	C75.153282,251.653503 74.368378,251.867401 73.269470,252.122208 
	C72.955475,252.163101 72.869965,251.819275 72.900551,251.644775 
z"/>
<path fill="#3F3832" opacity="1.000000" stroke="none" 
	d="
M130.540024,6.599490 
	C134.692459,6.567804 138.389069,6.632207 142.538010,6.603645 
	C150.674713,6.575336 158.359100,6.639993 166.504654,6.630286 
	C173.336258,6.629534 179.706680,6.703146 186.456436,6.668047 
	C195.228119,6.606087 203.620483,6.652838 212.468201,6.608912 
	C218.289688,6.580358 223.655777,6.642479 229.475143,6.606031 
	C236.636337,6.571005 243.344254,6.634549 250.509705,6.600266 
	C251.396027,8.306369 252.192780,10.109056 252.198898,11.914414 
	C252.301544,42.298210 252.305618,72.682335 252.418259,103.527328 
	C252.403336,107.359131 252.301743,110.729996 251.729843,114.633286 
	C250.810257,115.985199 250.112198,116.758896 249.951508,117.631538 
	C248.785461,123.963875 247.979156,130.372391 246.575592,136.648697 
	C244.586029,145.545410 242.769989,154.551910 239.812408,163.144058 
	C235.672638,175.170578 231.748520,187.533463 225.558716,198.528931 
	C216.922195,213.870697 202.381516,223.589722 186.741150,230.971695 
	C167.082214,240.250336 146.556702,245.692261 124.328850,244.173172 
	C104.430382,242.813293 85.809059,238.339111 68.418892,228.314911 
	C54.991188,220.574799 44.207249,210.172958 35.880913,197.410309 
	C27.663225,184.814209 22.578691,170.828644 19.350473,156.013351 
	C15.576503,138.693481 12.966856,121.247154 10.884480,103.678146 
	C10.649810,101.698250 8.985249,99.887825 7.983757,97.998817 
	C7.887846,86.304497 7.791936,74.610168 7.595735,62.456795 
	C7.566887,56.300217 7.638331,50.602695 7.601118,44.448215 
	C7.565360,32.295483 7.638259,20.599709 7.601101,8.446316 
	C9.312239,7.571634 11.131697,6.800960 12.954899,6.791996 
	C31.996664,6.698377 51.039032,6.726961 70.540779,6.622864 
	C86.025299,6.580005 101.050270,6.635971 116.534958,6.596292 
	C121.357849,6.565625 125.721024,6.630603 130.540024,6.599490 
M134.392624,112.204987 
	C134.152420,112.466537 134.090149,112.765015 134.063416,113.744156 
	C134.090393,113.962257 134.117386,114.180367 133.747406,114.936256 
	C132.906891,119.687950 132.989868,119.844696 137.769638,121.298805 
	C139.480042,119.928238 142.076813,118.880196 142.717163,117.120277 
	C144.069458,113.403740 146.339828,111.889557 150.868500,111.946022 
	C154.076035,112.412811 157.454926,112.401390 160.445709,113.473083 
	C163.829498,114.685600 165.127304,113.573196 166.273819,110.629387 
	C168.061417,106.039429 170.156509,101.569237 172.505203,97.293449 
	C172.717697,97.514618 172.890808,97.763229 172.992355,98.796692 
	C171.313660,103.194160 169.634964,107.591629 167.377869,112.330650 
	C165.500488,115.123962 167.731033,115.546707 169.571808,115.818573 
	C174.767136,116.585884 179.973404,117.473251 185.204697,117.741386 
	C189.399796,117.956413 194.504089,119.288033 196.628952,112.497459 
	C197.351791,107.330437 198.074646,102.163406 198.945816,96.163643 
	C199.533096,91.110863 200.120392,86.058083 200.883575,80.191879 
	C201.152405,77.121696 201.421249,74.051521 202.058441,70.239571 
	C202.614456,65.130592 203.170471,60.021610 204.115952,54.525181 
	C204.155807,54.009216 204.195648,53.493256 204.554031,52.138035 
	C205.059113,45.423618 205.564209,38.709202 206.046417,31.425716 
	C205.643265,31.593857 205.240112,31.761999 204.229080,32.190212 
	C189.830109,46.823689 175.431152,61.457161 160.416061,76.333649 
	C158.038193,78.828163 155.576767,81.249596 153.309921,83.841217 
	C151.614426,85.779625 149.793030,87.760681 148.719971,90.047577 
	C147.657806,92.311249 147.867050,94.819336 151.015335,96.531586 
	C151.550278,97.087845 152.104523,98.142410 152.617172,98.122574 
	C157.271667,97.942451 160.835297,95.606895 163.939270,92.892616 
	C163.481033,99.140739 163.022797,105.388855 162.593323,111.244759 
	C159.587723,108.271828 156.993561,103.749046 153.377426,102.678589 
	C149.751038,101.605095 145.105240,103.975380 140.312897,105.141518 
	C139.196381,106.382942 138.079849,107.624367 136.356766,109.152870 
	C135.848633,110.104568 135.340515,111.056267 134.392624,112.204987 
M58.189083,34.725918 
	C58.705696,34.639641 59.222309,34.553368 59.377480,34.193890 
	C59.377480,34.193890 59.138157,34.578598 59.172417,34.720219 
	C59.172417,34.720219 59.172253,34.865921 58.915455,35.200516 
	C58.915455,35.200516 59.024963,35.607830 58.889126,36.234570 
	C58.223167,36.538815 57.584301,36.971622 56.885273,37.118927 
	C55.657276,37.377712 54.392456,37.461742 52.601849,37.938671 
	C49.807610,40.264050 45.093781,40.972923 45.671719,46.172333 
	C45.692120,46.355873 45.082870,46.662914 44.727341,46.825493 
	C43.164925,47.539955 41.587894,48.222450 40.804176,48.568542 
	C41.917641,59.049503 49.529392,64.303238 55.047058,71.737938 
	C57.972099,74.864204 60.897137,77.990479 64.160744,81.700706 
	C67.959160,85.651535 71.834740,89.454689 78.003418,89.591888 
	C78.021309,89.815430 78.039192,90.038971 77.372169,90.531143 
	C76.313850,90.608490 75.255531,90.685837 73.253563,90.832161 
	C75.005707,93.360626 76.317223,95.253250 77.920876,97.782219 
	C79.570900,100.051437 81.016495,102.511925 82.918854,104.545029 
	C85.770447,107.592606 88.942719,110.340118 92.051193,113.805267 
	C92.908356,114.854706 93.765511,115.904144 95.011406,117.558372 
	C98.295197,121.734947 101.578987,125.911530 105.010559,130.773056 
	C108.089378,135.434631 111.168205,140.096207 114.247032,144.757782 
	C114.730980,144.646454 115.214935,144.535141 115.698891,144.423828 
	C115.553780,142.364120 115.408669,140.304398 115.981834,138.159546 
	C117.643997,134.435913 119.306160,130.712296 121.516113,126.462051 
	C121.176414,124.564430 121.284622,122.426079 120.417206,120.812065 
	C117.168930,114.768005 113.601631,108.895401 110.485596,102.222878 
	C110.097435,100.200409 110.259804,97.822899 109.224617,96.217697 
	C105.021591,89.700317 100.450890,83.420059 95.776321,76.577293 
	C95.489708,76.376846 95.203102,76.176392 94.722939,75.174767 
	C93.366409,70.488167 92.744614,65.405838 90.482948,61.206753 
	C86.999489,54.739254 82.546394,48.764854 78.208260,42.796703 
	C75.124046,38.553623 71.551849,34.665245 68.197441,30.618559 
	C67.875336,30.843449 67.553230,31.068340 67.231133,31.293230 
	C67.830513,32.520805 68.429893,33.748383 68.677643,35.221413 
	C68.677643,35.221413 68.343513,35.490234 67.789055,35.145081 
	C65.862343,33.845528 63.935631,32.545975 61.333626,31.174625 
	C60.267456,32.118454 59.201286,33.062286 58.189083,34.725918 
M118.338654,144.844711 
	C118.242104,145.231247 118.145554,145.617783 117.583023,146.498734 
	C117.103035,148.015625 116.623039,149.532516 115.879112,151.694977 
	C115.583267,152.796082 115.287422,153.897202 114.468765,155.444641 
	C113.703384,157.625839 112.938011,159.807037 111.739525,162.606110 
	C111.005463,165.031021 110.271393,167.455933 109.144409,170.448181 
	C108.407272,172.958420 107.670143,175.468674 106.411224,178.469696 
	C105.215622,182.238510 104.020020,186.007324 102.312515,190.311523 
	C100.217216,196.764114 98.078766,203.203125 96.039909,209.673492 
	C94.322716,215.123093 95.933983,218.184204 101.310501,219.982712 
	C107.221962,221.960159 111.391830,221.392578 112.757408,217.785416 
	C116.618073,207.587402 120.133926,197.258835 124.103081,186.308044 
	C125.072693,183.539001 126.042313,180.769958 127.271919,177.330536 
	C128.277267,174.583023 129.282608,171.835510 130.741516,168.586151 
	C131.471970,166.388123 132.202423,164.190109 133.369904,161.420822 
	C133.949646,159.627762 134.529388,157.834717 135.689270,155.553421 
	C137.178772,150.370529 138.668274,145.187637 140.158875,140.000900 
	C137.072067,140.000900 134.535904,140.000900 132.005905,139.424240 
	C131.989136,139.232742 131.972351,139.041245 132.795288,138.872513 
	C138.889389,139.063171 142.486786,136.830734 144.290070,131.359161 
	C145.041748,127.294724 149.376877,123.346939 144.465622,118.336060 
	C142.798386,123.952072 139.315704,126.784409 134.258118,124.715401 
	C129.562317,122.794418 129.862610,118.436470 131.254669,113.756248 
	C129.223877,114.546455 127.161469,115.437859 126.474167,116.953033 
	C125.196533,119.769585 124.720634,122.949821 123.334755,126.413261 
	C124.856064,129.908447 126.377373,133.403641 127.197029,137.009476 
	C126.724686,137.035095 126.252335,137.060730 125.526085,136.616592 
	C124.988213,136.167038 124.450340,135.717484 123.714821,134.682526 
	C123.255028,134.333801 122.795227,133.985077 122.335442,133.636353 
	C122.181259,134.403076 122.027084,135.169800 121.379211,136.449966 
	C120.557480,139.284592 119.735748,142.119202 118.978882,145.001526 
	C118.978882,145.001526 118.948410,144.927002 118.338654,144.844711 
M159.909470,222.845535 
	C169.706329,224.127853 182.700485,215.302917 184.647446,206.044861 
	C185.345154,202.727112 183.892654,200.383133 179.896881,199.153961 
	C183.905319,203.868439 181.915680,207.895966 178.868515,211.351089 
	C174.149368,216.701981 168.284760,220.310989 160.503555,220.592529 
	C153.090607,211.289902 145.677658,201.987274 138.264709,192.684647 
	C137.879822,192.996719 137.494919,193.308792 137.110016,193.620850 
	C141.151825,199.657639 144.943542,205.883850 149.322906,211.664917 
	C152.266617,215.550812 156.041916,218.806778 159.909470,222.845535 
M88.863640,213.752716 
	C87.403603,219.369232 89.035988,222.113525 96.615173,226.784332 
	C104.886940,231.881989 114.921379,229.574097 118.514534,221.539780 
	C120.734161,216.576691 122.621521,211.456299 124.450821,206.332550 
	C125.009003,204.769135 124.878304,202.959747 125.063087,201.263016 
	C121.860863,207.313583 119.599831,213.653412 116.844498,219.770584 
	C113.748642,226.643784 110.835007,227.989456 103.409378,226.907486 
	C95.198685,225.711075 89.444710,219.484299 90.902657,212.425888 
	C91.658218,209.288651 92.413780,206.151398 93.169342,203.014160 
	C92.561089,202.877411 91.952835,202.740662 91.344582,202.603928 
	C90.604385,206.080017 89.864197,209.556091 88.863640,213.752716 
M135.381226,168.383804 
	C134.939926,170.584793 134.498627,172.785782 134.231216,175.650192 
	C142.151215,187.577866 150.129364,199.467590 157.956238,211.456070 
	C160.345184,215.115204 163.061279,216.375183 167.587418,213.717438 
	C169.112350,212.511490 170.637283,211.305542 172.843231,209.892334 
	C177.687943,205.670258 177.384750,203.186569 170.956512,195.285828 
	C167.358978,190.172302 163.761429,185.058777 159.976166,179.274338 
	C158.301056,176.855484 156.625961,174.436630 154.732330,171.373428 
	C150.152313,164.924774 145.572296,158.476135 140.847534,151.793411 
	C140.772949,151.750671 140.698380,151.707916 140.623795,151.665176 
	C140.764236,151.765579 140.904663,151.865982 140.965195,152.814285 
	C140.598389,155.031921 140.531952,157.356064 139.792480,159.441559 
	C138.752914,162.373444 137.213730,165.128159 135.381226,168.383804 
M163.527130,177.024811 
	C164.917938,179.003632 166.308746,180.982452 167.699570,182.961258 
	C168.253250,182.551956 168.806931,182.142654 169.360611,181.733353 
	C167.078064,178.499115 164.795517,175.264877 162.512970,172.030640 
	C162.119797,172.272186 161.726624,172.513718 161.333435,172.755264 
	C161.953140,173.970596 162.572845,175.185913 163.527130,177.024811 
M102.449730,172.156830 
	C101.623329,174.784363 100.796921,177.411880 99.970512,180.039413 
	C100.500603,180.209961 101.030685,180.380493 101.560768,180.551041 
	C102.968895,176.641724 104.377014,172.732407 105.785141,168.823090 
	C105.429726,168.658600 105.074310,168.494095 104.718895,168.329605 
	C104.070724,169.385376 103.422554,170.441132 102.449730,172.156830 
M159.726913,170.527969 
	C159.991165,170.275940 160.258179,170.026459 160.505630,169.758896 
	C160.512680,169.751282 160.311630,169.551224 160.207611,169.440903 
	C159.943253,169.693268 159.678894,169.945648 159.726913,170.527969 
z"/>
<path fill="#38312C" opacity="1.000000" stroke="none" 
	d="
M7.888978,98.459427 
	C8.985249,99.887825 10.649810,101.698250 10.884480,103.678146 
	C12.966856,121.247154 15.576503,138.693481 19.350473,156.013351 
	C22.578691,170.828644 27.663225,184.814209 35.880913,197.410309 
	C44.207249,210.172958 54.991188,220.574799 68.418892,228.314911 
	C85.809059,238.339111 104.430382,242.813293 124.328850,244.173172 
	C146.556702,245.692261 167.082214,240.250336 186.741150,230.971695 
	C202.381516,223.589722 216.922195,213.870697 225.558716,198.528931 
	C231.748520,187.533463 235.672638,175.170578 239.812408,163.144058 
	C242.769989,154.551910 244.586029,145.545410 246.575592,136.648697 
	C247.979156,130.372391 248.785461,123.963875 249.951508,117.631538 
	C250.112198,116.758896 250.810257,115.985199 251.628128,115.083099 
	C252.076477,126.694450 252.156235,138.388397 251.774689,150.604156 
	C250.423859,152.634399 249.167877,154.038422 248.703583,155.668015 
	C245.396210,167.276306 241.894379,178.847122 239.140610,190.590759 
	C235.434082,206.397430 225.350555,217.537659 212.290970,225.452240 
	C195.838699,235.422913 177.852737,242.405579 159.110260,247.215469 
	C155.961929,248.023422 153.034058,249.690521 150.004333,250.960632 
	C149.238297,251.057159 148.472244,251.153702 147.338318,251.368713 
	C141.285614,251.422577 135.600800,251.357941 129.457550,251.391632 
	C127.280861,251.383041 125.562622,251.276123 123.421837,251.078400 
	C119.403778,249.995438 115.866066,248.586441 112.203400,248.078522 
	C87.965981,244.717499 65.413109,237.563080 46.479748,221.115601 
	C32.255646,208.759064 22.593782,193.752258 18.092535,175.485260 
	C15.200027,163.746902 12.561334,151.946045 9.764523,140.183762 
	C9.670610,139.788788 9.094913,139.508392 8.370721,139.086624 
	C7.894643,132.973663 7.791636,126.948669 7.592056,120.464691 
	C7.595055,112.977150 7.694627,105.948586 7.888978,98.459427 
z"/>
<path fill="#322B27" opacity="1.000000" stroke="none" 
	d="
M150.468216,251.031616 
	C153.034058,249.690521 155.961929,248.023422 159.110260,247.215469 
	C177.852737,242.405579 195.838699,235.422913 212.290970,225.452240 
	C225.350555,217.537659 235.434082,206.397430 239.140610,190.590759 
	C241.894379,178.847122 245.396210,167.276306 248.703583,155.668015 
	C249.167877,154.038422 250.423859,152.634399 251.666687,151.062225 
	C252.113297,155.030975 252.206604,159.063461 252.404358,163.548660 
	C252.432571,172.366180 252.356339,180.730988 252.393585,189.552551 
	C252.507050,210.275421 252.507050,230.541550 252.507050,251.311844 
	C249.489151,251.311844 247.203842,251.311844 244.464386,251.404770 
	C235.316177,251.441940 226.622101,251.386185 217.468018,251.422516 
	C213.642136,251.454193 210.276276,251.393753 206.459595,251.422333 
	C202.312622,251.451141 198.616470,251.390945 194.467300,251.418060 
	C187.993103,251.444870 181.971939,251.384399 175.489792,251.401505 
	C166.996567,251.353577 158.964340,251.228073 150.468216,251.031616 
z"/>
<path fill="#F2DCA3" opacity="1.000000" stroke="none" 
	d="
M53.143059,37.618965 
	C54.392456,37.461742 55.657276,37.377712 56.885273,37.118927 
	C57.584301,36.971622 58.223167,36.538815 59.377888,36.035248 
	C64.925667,36.334198 61.255867,32.758076 62.008915,31.246422 
	C63.935631,32.545975 65.862343,33.845528 68.223068,35.552132 
	C69.011490,36.126827 69.365898,36.294468 69.720314,36.462112 
	C69.489967,35.966728 69.259628,35.471340 69.029282,34.975956 
	C68.429893,33.748383 67.830513,32.520805 67.231133,31.293230 
	C67.553230,31.068340 67.875336,30.843449 68.197441,30.618559 
	C71.551849,34.665245 75.124046,38.553623 78.208260,42.796703 
	C82.546394,48.764854 86.999489,54.739254 90.482948,61.206753 
	C92.744614,65.405838 93.366409,70.488167 94.577400,75.753036 
	C93.290588,74.880676 92.149307,73.430046 90.970184,71.647461 
	C89.112976,67.799080 87.151619,67.324928 84.735672,70.827667 
	C82.985474,68.397949 81.494392,66.178940 79.962173,63.620934 
	C78.377625,61.521900 76.834206,59.761856 75.290794,58.001816 
	C74.842812,58.435955 74.394829,58.870094 73.946838,59.304234 
	C75.575012,60.845882 77.203178,62.387535 78.887253,64.297424 
	C80.954842,67.449097 82.966522,70.232536 84.989105,73.008804 
	C85.000000,73.001640 84.981041,73.022179 84.951920,73.368896 
	C85.561111,74.533104 86.199417,75.350594 86.854416,76.505295 
	C87.215736,77.900902 87.560379,78.959305 87.605484,80.155823 
	C85.815582,79.953667 84.097252,79.970825 82.883545,79.196754 
	C80.547577,77.706917 80.031723,78.785721 79.450188,80.692474 
	C77.035973,79.681091 74.961624,78.799278 72.676765,77.949432 
	C72.466263,77.981392 72.041229,77.954750 71.883476,77.672852 
	C70.151634,76.959030 68.577538,76.527092 66.901794,75.856674 
	C66.535294,75.404625 66.270439,75.191063 65.996414,74.627274 
	C65.314384,73.523804 64.641525,72.770561 63.758247,71.903992 
	C63.287502,71.591438 63.099888,71.338310 62.983253,70.658142 
	C62.916580,69.792999 63.025970,69.162079 62.760952,68.829529 
	C57.460209,62.178001 56.030811,54.458210 55.851997,46.175262 
	C55.790031,43.305008 54.093170,40.470047 53.143059,37.618965 
z"/>
<path fill="#FDF2B5" opacity="1.000000" stroke="none" 
	d="
M203.726486,54.912628 
	C203.170471,60.021610 202.614456,65.130592 201.522964,70.621384 
	C196.978867,72.666176 192.970230,74.329147 188.975464,75.589035 
	C188.998779,74.109695 189.008240,73.033447 189.018982,71.748474 
	C189.020248,71.539742 189.026642,71.122337 189.333740,70.943832 
	C190.839996,68.902626 192.039169,67.039917 193.238327,65.177200 
	C192.829514,64.974487 192.420700,64.771767 192.011871,64.569046 
	C190.634308,66.047096 189.256744,67.525139 187.681915,69.134300 
	C187.242310,69.485977 187.071976,69.752571 186.651154,70.128632 
	C184.128204,73.570068 181.927719,76.948067 180.109024,79.739983 
	C180.122253,79.784340 179.803299,78.714760 179.279572,76.958572 
	C178.241211,78.814201 177.614044,79.934998 176.618042,80.978943 
	C175.499649,80.929634 174.750107,80.957184 173.925873,80.631332 
	C172.154556,80.221756 170.326477,79.729378 168.786545,80.193336 
	C164.604141,81.453445 162.012009,80.241096 161.032181,76.090637 
	C175.431152,61.457161 189.830109,46.823689 204.840683,32.085682 
	C205.657974,31.985699 205.863647,31.990244 206.069305,31.994787 
	C205.564209,38.709202 205.059113,45.423618 204.183441,52.634796 
	C203.784058,53.725246 203.755264,54.318935 203.726486,54.912628 
z"/>
<path fill="#A59473" opacity="1.000000" stroke="none" 
	d="
M123.785637,186.981720 
	C120.133926,197.258835 116.618073,207.587402 112.757408,217.785416 
	C111.391830,221.392578 107.221962,221.960159 101.310501,219.982712 
	C95.933983,218.184204 94.322716,215.123093 96.039909,209.673492 
	C98.078766,203.203125 100.217216,196.764114 102.836136,190.347168 
	C105.090309,190.355148 106.868301,190.574814 108.542549,190.253677 
	C113.645050,189.274963 118.707565,188.087769 123.785637,186.981720 
z"/>
<path fill="#F2DCA3" opacity="1.000000" stroke="none" 
	d="
M77.628746,97.145866 
	C76.317223,95.253250 75.005707,93.360626 73.253563,90.832161 
	C75.255531,90.685837 76.313850,90.608490 78.102707,90.381126 
	C86.387131,88.219421 91.907463,83.556381 96.015778,77.052353 
	C100.450890,83.420059 105.021591,89.700317 109.224617,96.217697 
	C110.259804,97.822899 110.097435,100.200409 110.095398,102.704384 
	C109.469765,103.786224 109.234322,104.386566 108.727249,105.138519 
	C107.376030,105.889252 106.296432,106.488358 104.827614,107.026154 
	C101.288017,106.021515 98.071327,105.254158 95.001511,104.097130 
	C89.166214,101.897789 83.414925,99.475540 77.628746,97.145866 
z"/>
<path fill="#A09070" opacity="1.000000" stroke="none" 
	d="
M166.964188,213.929794 
	C163.061279,216.375183 160.345184,215.115204 157.956238,211.456070 
	C150.129364,199.467590 142.151215,187.577866 134.510056,175.324127 
	C135.520630,175.002579 136.252380,175.007095 137.027603,175.358307 
	C140.787186,182.274231 145.414932,187.747742 153.217636,189.624069 
	C154.610123,189.958908 155.812775,191.022369 157.191666,191.485840 
	C161.820343,193.041534 166.489075,194.478043 171.142487,195.960175 
	C177.384750,203.186569 177.687943,205.670258 172.143890,209.932434 
	C169.233337,207.895218 167.022125,205.817932 164.810913,203.740631 
	C164.304642,203.787216 163.798370,203.833786 163.292084,203.880371 
	C163.495255,205.396088 163.425034,207.019058 163.967484,208.401657 
	C164.727249,210.338196 165.943314,212.095703 166.964188,213.929794 
M159.427155,200.488327 
	C159.427155,200.488327 159.520050,200.436234 159.427155,200.488327 
z"/>
<path fill="#EED8A0" opacity="1.000000" stroke="none" 
	d="
M52.872452,37.778816 
	C54.093170,40.470047 55.790031,43.305008 55.851997,46.175262 
	C56.030811,54.458210 57.460209,62.178001 62.760952,68.829529 
	C63.025970,69.162079 62.916580,69.792999 62.665611,70.678604 
	C61.563862,71.386459 60.778030,71.700714 59.830040,71.734512 
	C58.120174,69.958900 56.572468,68.463745 54.961864,66.835037 
	C54.805820,66.660034 54.712673,66.618584 54.619526,66.577133 
	C54.733570,66.728508 54.847618,66.879890 54.976402,67.361862 
	C54.959301,68.821228 54.927467,69.949989 54.895630,71.078758 
	C49.529392,64.303238 41.917641,59.049503 40.804176,48.568542 
	C41.587894,48.222450 43.164925,47.539955 44.727341,46.825493 
	C45.082870,46.662914 45.692120,46.355873 45.671719,46.172333 
	C45.093781,40.972923 49.807610,40.264050 52.872452,37.778816 
z"/>
<path fill="#FBE4AA" opacity="1.000000" stroke="none" 
	d="
M167.956268,111.989105 
	C169.634964,107.591629 171.313660,103.194160 173.241394,98.241531 
	C173.720673,97.155899 173.950943,96.625427 174.420197,96.336456 
	C176.526535,97.901543 171.667038,101.998245 177.233719,102.101746 
	C179.635712,102.243141 181.806870,102.677254 183.691254,102.127815 
	C188.791779,100.640656 193.770477,98.735649 198.797485,96.996384 
	C198.074646,102.163406 197.351791,107.330437 195.869019,112.753372 
	C186.058136,112.669228 177.007202,112.329163 167.956268,111.989105 
z"/>
<path fill="#FDE8AD" opacity="1.000000" stroke="none" 
	d="
M198.871643,96.580017 
	C193.770477,98.735649 188.791779,100.640656 183.691254,102.127815 
	C181.806870,102.677254 179.635712,102.243141 177.262817,101.671593 
	C177.023514,99.064415 177.116730,97.043251 177.382477,95.019836 
	C177.555023,95.017578 177.900009,95.027550 178.276947,94.964966 
	C179.410507,92.818687 179.966675,90.625725 181.015488,88.701263 
	C181.480865,87.847343 182.941528,87.535873 184.338821,86.976456 
	C190.054047,84.984924 195.380875,82.995117 200.707687,81.005302 
	C200.120392,86.058083 199.533096,91.110863 198.871643,96.580017 
z"/>
<path fill="#FBE4AA" opacity="1.000000" stroke="none" 
	d="
M172.121292,97.048294 
	C170.156509,101.569237 168.061417,106.039429 166.273819,110.629387 
	C165.127304,113.573196 163.829498,114.685600 160.445709,113.473083 
	C157.454926,112.401390 154.076035,112.412811 150.371094,111.521805 
	C147.571579,110.404572 145.269470,109.711555 142.662827,108.842041 
	C141.874252,107.389145 141.390244,106.112732 140.906219,104.836327 
	C145.105240,103.975380 149.751038,101.605095 153.377426,102.678589 
	C156.993561,103.749046 159.587723,108.271828 162.593323,111.244759 
	C163.022797,105.388855 163.481033,99.140739 163.985916,92.137360 
	C167.299225,89.195801 170.565887,87.009499 174.014587,84.996246 
	C174.329666,85.271027 174.462692,85.372742 174.569061,85.869225 
	C173.735382,89.858757 172.928345,93.453529 172.121292,97.048294 
z"/>
<path fill="#AD9C78" opacity="1.000000" stroke="none" 
	d="
M171.049500,195.623001 
	C166.489075,194.478043 161.820343,193.041534 157.191666,191.485840 
	C155.812775,191.022369 154.610123,189.958908 153.217636,189.624069 
	C145.414932,187.747742 140.787186,182.274231 137.426819,175.363129 
	C145.242981,176.662598 152.703445,178.303925 160.163895,179.945251 
	C163.761429,185.058777 167.358978,190.172302 171.049500,195.623001 
z"/>
<path fill="#C3B086" opacity="1.000000" stroke="none" 
	d="
M114.991577,154.998306 
	C115.287422,153.897202 115.583267,152.796082 116.381973,151.347031 
	C122.877136,149.845184 126.708649,143.925354 124.144470,139.749374 
	C124.443169,139.302994 124.684540,139.124435 125.343811,139.019653 
	C127.136765,140.013733 128.562241,141.002121 129.766418,142.094696 
	C129.269379,142.397781 129.084366,142.660553 128.725586,143.007935 
	C128.114349,143.267822 127.767609,143.507004 127.420868,143.746185 
	C127.564064,143.920792 127.707268,144.095398 127.850471,144.270020 
	C128.237518,143.849640 128.624557,143.429260 129.228439,142.898956 
	C129.715652,142.589600 129.903427,142.330338 130.274109,141.888763 
	C131.026306,141.177826 131.513016,140.589355 131.999741,140.000900 
	C134.535904,140.000900 137.072067,140.000900 140.158875,140.000900 
	C138.668274,145.187637 137.178772,150.370529 134.946289,155.785172 
	C127.799393,155.677383 121.395485,155.337845 114.991577,154.998306 
z"/>
<path fill="#AD9C78" opacity="1.000000" stroke="none" 
	d="
M123.944359,186.644882 
	C118.707565,188.087769 113.645050,189.274963 108.542549,190.253677 
	C106.868301,190.574814 105.090309,190.355148 103.092087,190.079468 
	C104.020020,186.007324 105.215622,182.238510 107.091293,178.228729 
	C114.184891,177.992157 120.598404,177.996536 127.011932,178.000916 
	C126.042313,180.769958 125.072693,183.539001 123.944359,186.644882 
z"/>
<path fill="#F9E9AE" opacity="1.000000" stroke="none" 
	d="
M160.724121,76.212143 
	C162.012009,80.241096 164.604141,81.453445 168.786545,80.193336 
	C170.326477,79.729378 172.154556,80.221756 173.708923,80.900696 
	C168.040787,85.024429 162.514938,88.525398 156.719528,92.064438 
	C156.232666,92.387283 156.015350,92.672043 155.531097,92.986725 
	C154.848679,93.332436 154.433197,93.648224 153.741516,94.022934 
	C153.233047,94.371490 153.000763,94.661125 152.486877,94.940826 
	C151.791992,95.230728 151.378693,95.530563 150.965393,95.830399 
	C147.867050,94.819336 147.657806,92.311249 148.719971,90.047577 
	C149.793030,87.760681 151.614426,85.779625 153.309921,83.841217 
	C155.576767,81.249596 158.038193,78.828163 160.724121,76.212143 
z"/>
<path fill="#E3CD9A" opacity="1.000000" stroke="none" 
	d="
M123.910965,125.978653 
	C124.720634,122.949821 125.196533,119.769585 126.474167,116.953033 
	C127.161469,115.437859 129.223877,114.546455 131.254669,113.756248 
	C129.862610,118.436470 129.562317,122.794418 134.258118,124.715401 
	C139.315704,126.784409 142.798386,123.952072 144.465622,118.336060 
	C149.376877,123.346939 145.041748,127.294724 143.690720,131.675858 
	C136.697906,129.987915 130.304428,127.983284 123.910965,125.978653 
z"/>
<path fill="#E3CD9A" opacity="1.000000" stroke="none" 
	d="
M108.998886,104.986908 
	C109.234322,104.386566 109.469765,103.786224 109.929565,103.072205 
	C113.601631,108.895401 117.168930,114.768005 120.417206,120.812065 
	C121.284622,122.426079 121.176414,124.564430 120.828110,126.725349 
	C116.409981,126.332802 112.679840,125.676956 108.727188,124.914505 
	C108.227562,124.610062 108.030098,124.351402 108.235550,123.889908 
	C109.425285,122.984993 110.291756,122.222107 111.212616,121.411324 
	C109.455711,119.987534 108.231750,118.995644 107.051582,117.686462 
	C107.370773,115.526917 107.646172,113.684669 108.034912,111.516510 
	C108.431808,109.122711 108.715347,107.054810 108.998886,104.986908 
z"/>
<path fill="#B7A57F" opacity="1.000000" stroke="none" 
	d="
M140.992264,152.027496 
	C145.572296,158.476135 150.152313,164.924774 154.508408,171.844101 
	C148.152390,170.862717 142.020294,169.410675 135.888214,167.958633 
	C137.213730,165.128159 138.752914,162.373444 139.792480,159.441559 
	C140.531952,157.356064 140.598389,155.031921 140.989426,152.403687 
	C141.013657,151.993103 140.992264,152.027496 140.992264,152.027496 
z"/>
<path fill="#B2A07C" opacity="1.000000" stroke="none" 
	d="
M127.141922,177.665726 
	C120.598404,177.996536 114.184891,177.992157 107.352188,177.983337 
	C107.670143,175.468674 108.407272,172.958420 109.798477,170.159119 
	C117.064339,169.609360 123.676147,169.348679 130.287949,169.087997 
	C129.282608,171.835510 128.277267,174.583023 127.141922,177.665726 
z"/>
<path fill="#EAD59E" opacity="1.000000" stroke="none" 
	d="
M77.774811,97.464043 
	C83.414925,99.475540 89.166214,101.897789 95.001511,104.097130 
	C98.071327,105.254158 101.288017,106.021515 104.662453,107.340836 
	C100.583885,109.549637 96.281242,111.382439 91.978607,113.215248 
	C88.942719,110.340118 85.770447,107.592606 82.918854,104.545029 
	C81.016495,102.511925 79.570900,100.051437 77.774811,97.464043 
z"/>
<path fill="#F9E9AE" opacity="1.000000" stroke="none" 
	d="
M200.795624,80.598587 
	C195.380875,82.995117 190.054047,84.984924 184.361633,86.567047 
	C184.669983,82.444862 185.343933,78.730370 186.308044,75.135681 
	C187.386002,75.501038 188.173813,75.746582 188.961609,75.992126 
	C192.970230,74.329147 196.978867,72.666176 201.338776,70.992271 
	C201.421249,74.051521 201.152405,77.121696 200.795624,80.598587 
z"/>
<path fill="#B7A57F" opacity="1.000000" stroke="none" 
	d="
M130.514740,168.837067 
	C123.676147,169.348679 117.064339,169.609360 109.994934,169.875443 
	C110.271393,167.455933 111.005463,165.031021 112.396713,162.299789 
	C119.680222,161.993011 126.306549,161.992554 132.932877,161.992081 
	C132.202423,164.190109 131.471970,166.388123 130.514740,168.837067 
z"/>
<path fill="#DBC695" opacity="1.000000" stroke="none" 
	d="
M123.622864,126.195953 
	C130.304428,127.983284 136.697906,129.987915 143.486725,131.992462 
	C142.486786,136.830734 138.889389,139.063171 132.156647,138.606171 
	C130.311554,137.859482 129.105118,137.379150 127.898682,136.898819 
	C126.377373,133.403641 124.856064,129.908447 123.622864,126.195953 
z"/>
<path fill="#B2A07C" opacity="1.000000" stroke="none" 
	d="
M135.634705,168.171219 
	C142.020294,169.410675 148.152390,170.862717 154.617676,172.166275 
	C156.625961,174.436630 158.301056,176.855484 160.070038,179.609802 
	C152.703445,178.303925 145.242981,176.662598 137.383331,175.016449 
	C136.252380,175.007095 135.520630,175.002579 134.423126,174.992416 
	C134.498627,172.785782 134.939926,170.584793 135.634705,168.171219 
z"/>
<path fill="#4E463B" opacity="1.000000" stroke="none" 
	d="
M95.896049,76.814819 
	C91.907463,83.556381 86.387131,88.219421 78.445160,90.246811 
	C78.039192,90.038971 78.021309,89.815430 77.949921,88.956070 
	C77.023750,87.511131 76.151085,86.702019 75.203331,85.519714 
	C74.402687,83.437988 73.677139,81.729462 72.953537,79.669395 
	C72.932747,78.851067 72.910011,78.384262 72.887268,77.917465 
	C74.961624,78.799278 77.035973,79.681091 79.642776,80.968002 
	C83.328110,82.391975 86.902069,86.097794 89.247368,79.830910 
	C89.636948,78.757729 89.718834,77.853302 89.814896,76.628616 
	C89.494415,75.598480 89.159760,74.888596 88.859962,74.017532 
	C88.931351,73.634552 88.903450,73.421204 88.920776,72.950485 
	C89.689636,72.449585 90.348831,72.214500 91.008026,71.979416 
	C92.149307,73.430046 93.290588,74.880676 94.674179,76.153625 
	C95.203102,76.176392 95.489708,76.376846 95.896049,76.814819 
z"/>
<path fill="#5D5446" opacity="1.000000" stroke="none" 
	d="
M154.017715,93.964012 
	C154.433197,93.648224 154.848679,93.332436 155.779160,92.899010 
	C156.525803,92.529701 156.757431,92.278038 156.989075,92.026367 
	C162.514938,88.525398 168.040787,85.024429 173.783600,81.254089 
	C174.750107,80.957184 175.499649,80.929634 176.652328,81.394089 
	C176.097382,86.622375 175.139297,91.358665 174.181198,96.094955 
	C173.950943,96.625427 173.720673,97.155899 173.257462,97.862823 
	C172.890808,97.763229 172.717697,97.514618 172.313248,97.170868 
	C172.928345,93.453529 173.735382,89.858757 174.666901,85.659912 
	C174.471771,84.978294 174.152145,84.900742 173.832535,84.823196 
	C170.565887,87.009499 167.299225,89.195801 163.876038,91.735321 
	C160.835297,95.606895 157.271667,97.942451 152.617172,98.122574 
	C152.104523,98.142410 151.550278,97.087845 150.990356,96.180992 
	C151.378693,95.530563 151.791992,95.230728 152.747589,94.848068 
	C153.532501,94.498161 153.775116,94.231087 154.017715,93.964012 
z"/>
<path fill="#DBC695" opacity="1.000000" stroke="none" 
	d="
M90.566185,213.008942 
	C89.444710,219.484299 95.198685,225.711075 103.409378,226.907486 
	C110.835007,227.989456 113.748642,226.643784 116.844498,219.770584 
	C119.599831,213.653412 121.860863,207.313583 125.063087,201.263016 
	C124.878304,202.959747 125.009003,204.769135 124.450821,206.332550 
	C122.621521,211.456299 120.734161,216.576691 118.514534,221.539780 
	C114.921379,229.574097 104.886940,231.881989 96.615173,226.784332 
	C89.035988,222.113525 87.403603,219.369232 89.354546,213.398804 
	C90.085693,213.032913 90.325943,213.020935 90.566185,213.008942 
z"/>
<path fill="#BFAC83" opacity="1.000000" stroke="none" 
	d="
M133.151398,161.706451 
	C126.306549,161.992554 119.680222,161.993011 112.613266,161.990845 
	C112.938011,159.807037 113.703384,157.625839 114.730164,155.221466 
	C121.395485,155.337845 127.799393,155.677383 134.656219,156.029297 
	C134.529388,157.834717 133.949646,159.627762 133.151398,161.706451 
z"/>
<path fill="#F2DCA3" opacity="1.000000" stroke="none" 
	d="
M167.667068,112.159882 
	C177.007202,112.329163 186.058136,112.669228 195.581238,113.014832 
	C194.504089,119.288033 189.399796,117.956413 185.204697,117.741386 
	C179.973404,117.473251 174.767136,116.585884 169.571808,115.818573 
	C167.731033,115.546707 165.500488,115.123962 167.667068,112.159882 
z"/>
<path fill="#D0C096" opacity="1.000000" stroke="none" 
	d="
M160.974823,221.073013 
	C168.284760,220.310989 174.149368,216.701981 178.868515,211.351089 
	C181.915680,207.895966 183.905319,203.868439 179.896881,199.153961 
	C183.892654,200.383133 185.345154,202.727112 184.647446,206.044861 
	C182.700485,215.302917 169.706329,224.127853 159.976105,222.435974 
	C160.353424,221.708618 160.664124,221.390823 160.974823,221.073013 
z"/>
<path fill="#4E463B" opacity="1.000000" stroke="none" 
	d="
M92.014900,113.510254 
	C96.281242,111.382439 100.583885,109.549637 105.051682,107.402153 
	C106.296432,106.488358 107.376030,105.889252 108.727257,105.138519 
	C108.715347,107.054810 108.431808,109.122711 107.765968,111.686432 
	C106.222000,113.388412 105.060326,114.594582 103.592461,116.000641 
	C100.398399,116.451538 97.510529,116.702568 94.622665,116.953590 
	C93.765511,115.904144 92.908356,114.854706 92.014900,113.510254 
z"/>
<path fill="#DBC695" opacity="1.000000" stroke="none" 
	d="
M108.949707,125.021111 
	C112.679840,125.676956 116.409981,126.332802 120.554214,126.988647 
	C119.306160,130.712296 117.643997,134.435913 115.298416,138.013702 
	C112.726562,133.585617 110.838135,129.303360 108.949707,125.021111 
z"/>
<path fill="#DBC695" opacity="1.000000" stroke="none" 
	d="
M160.739197,220.832764 
	C160.664124,221.390823 160.353424,221.708618 159.743942,222.185486 
	C156.041916,218.806778 152.266617,215.550812 149.322906,211.664917 
	C144.943542,205.883850 141.151825,199.657639 137.110016,193.620850 
	C137.494919,193.308792 137.879822,192.996719 138.264709,192.684647 
	C145.677658,201.987274 153.090607,211.289902 160.739197,220.832764 
z"/>
<path fill="#AD9C78" opacity="1.000000" stroke="none" 
	d="
M108.727188,124.914505 
	C110.838135,129.303360 112.726562,133.585617 114.939270,138.056274 
	C115.408669,140.304398 115.553780,142.364120 115.698891,144.423828 
	C115.214935,144.535141 114.730980,144.646454 114.247032,144.757782 
	C111.168205,140.096207 108.089378,135.434631 105.213943,130.284134 
	C107.975555,126.528091 104.667175,125.612251 103.073502,123.676460 
	C103.073105,122.920685 103.094109,122.489052 103.421051,122.053024 
	C104.134933,122.043594 104.542854,122.038559 105.134369,122.261597 
	C105.863174,122.666580 106.408386,122.843491 107.055893,123.238197 
	C107.348984,123.727280 107.600342,123.919258 107.912277,124.031937 
	C108.030098,124.351402 108.227562,124.610062 108.727188,124.914505 
z"/>
<path fill="#F2DCA3" opacity="1.000000" stroke="none" 
	d="
M142.967377,109.018539 
	C145.269470,109.711555 147.571579,110.404572 149.941589,111.462433 
	C146.339828,111.889557 144.069458,113.403740 142.717163,117.120277 
	C142.076813,118.880196 139.480042,119.928238 137.389587,120.792801 
	C136.054489,118.324020 135.099442,116.361244 134.144394,114.398468 
	C134.117386,114.180367 134.090393,113.962257 134.472168,113.664780 
	C135.589203,113.389488 136.297485,113.193558 137.003082,112.998718 
	C137.000366,112.999809 136.997223,113.002808 137.362823,112.988403 
	C139.474731,111.655518 141.221054,110.337036 142.967377,109.018539 
z"/>
<path fill="#BFAC83" opacity="1.000000" stroke="none" 
	d="
M104.950790,122.033516 
	C104.542854,122.038559 104.134933,122.043594 103.234619,121.833755 
	C102.277634,121.759254 101.813034,121.899628 101.348434,122.040009 
	C101.930588,122.693535 102.512749,123.347069 103.094902,124.000595 
	C104.667175,125.612251 107.975555,126.528091 105.140060,129.941650 
	C101.578987,125.911530 98.295197,121.734947 94.817032,117.255981 
	C97.510529,116.702568 100.398399,116.451538 103.652802,116.329407 
	C104.643738,116.983803 105.268135,117.509308 105.926514,118.362411 
	C105.989204,119.128487 106.017906,119.566956 105.922401,120.265442 
	C105.515717,121.028152 105.233253,121.530838 104.950790,122.033516 
z"/>
<path fill="#C3B086" opacity="1.000000" stroke="none" 
	d="
M54.971344,71.408348 
	C54.927467,69.949989 54.959301,68.821228 54.993423,67.347397 
	C54.995705,67.002335 55.024761,66.968590 55.024761,66.968590 
	C56.572468,68.463745 58.120174,69.958900 59.977638,72.034676 
	C61.860573,75.054848 63.433762,77.494400 64.873154,80.187759 
	C64.433624,80.666626 64.127907,80.891685 63.822178,81.116745 
	C60.897137,77.990479 57.972099,74.864204 54.971344,71.408348 
z"/>
<path fill="#A59473" opacity="1.000000" stroke="none" 
	d="
M124.036751,139.949097 
	C126.708649,143.925354 122.877136,149.845184 116.513947,151.024246 
	C116.623039,149.532516 117.103035,148.015625 118.025803,146.128204 
	C118.725235,145.536667 118.885178,145.259766 118.948410,144.927002 
	C118.948410,144.927002 118.978882,145.001526 119.256439,144.855469 
	C121.034904,143.122635 122.535828,141.535858 124.036751,139.949097 
z"/>
<path fill="#908163" opacity="1.000000" stroke="none" 
	d="
M167.275803,213.823608 
	C165.943314,212.095703 164.727249,210.338196 163.967484,208.401657 
	C163.425034,207.019058 163.495255,205.396088 163.292084,203.880371 
	C163.798370,203.833786 164.304642,203.787216 164.810913,203.740631 
	C167.022125,205.817932 169.233337,207.895218 171.803391,210.036072 
	C170.637283,211.305542 169.112350,212.511490 167.275803,213.823608 
z"/>
<path fill="#B2A07C" opacity="1.000000" stroke="none" 
	d="
M63.991463,81.408722 
	C64.127907,80.891685 64.433624,80.666626 65.138031,80.335472 
	C66.346039,80.809929 67.155357,81.390472 68.285538,82.114212 
	C69.783592,83.199417 70.877647,84.284279 72.166466,85.034576 
	C73.065613,85.558022 74.231613,85.623085 75.278419,85.892906 
	C76.151085,86.702019 77.023750,87.511131 77.936707,88.619949 
	C71.834740,89.454689 67.959160,85.651535 63.991463,81.408722 
z"/>
<path fill="#DBC695" opacity="1.000000" stroke="none" 
	d="
M142.662827,108.842049 
	C141.221054,110.337036 139.474731,111.655518 137.367264,112.575104 
	C136.991852,111.072739 136.977585,109.969269 136.963318,108.865799 
	C138.079849,107.624367 139.196381,106.382942 140.609558,104.988922 
	C141.390244,106.112732 141.874252,107.389145 142.662827,108.842049 
z"/>
<path fill="#B7A57F" opacity="1.000000" stroke="none" 
	d="
M124.144470,139.749374 
	C122.535828,141.535858 121.034904,143.122635 119.223999,144.831604 
	C119.735748,142.119202 120.557480,139.284592 121.908325,136.195709 
	C122.929115,135.716949 123.420792,135.492432 123.912476,135.267929 
	C124.450340,135.717484 124.988213,136.167038 125.454384,137.034271 
	C125.247231,137.972626 125.111778,138.493301 124.976318,139.013992 
	C124.684540,139.124435 124.443169,139.302994 124.144470,139.749374 
z"/>
<path fill="#5D5446" opacity="1.000000" stroke="none" 
	d="
M163.359833,176.713028 
	C162.572845,175.185913 161.953140,173.970596 161.333435,172.755264 
	C161.726624,172.513718 162.119797,172.272186 162.512970,172.030640 
	C164.795517,175.264877 167.078064,178.499115 169.360611,181.733353 
	C168.806931,182.142654 168.253250,182.551956 167.699570,182.961258 
	C166.308746,180.982452 164.917938,179.003632 163.359833,176.713028 
z"/>
<path fill="#4E463B" opacity="1.000000" stroke="none" 
	d="
M102.612061,171.826874 
	C103.422554,170.441132 104.070724,169.385376 104.718895,168.329605 
	C105.074310,168.494095 105.429726,168.658600 105.785141,168.823090 
	C104.377014,172.732407 102.968895,176.641724 101.560768,180.551041 
	C101.030685,180.380493 100.500603,180.209961 99.970512,180.039413 
	C100.796921,177.411880 101.623329,174.784363 102.612061,171.826874 
z"/>
<path fill="#BFAC83" opacity="1.000000" stroke="none" 
	d="
M90.734421,212.717407 
	C90.325943,213.020935 90.085693,213.032913 89.484726,213.038528 
	C89.864197,209.556091 90.604385,206.080017 91.344582,202.603928 
	C91.952835,202.740662 92.561089,202.877411 93.169342,203.014160 
	C92.413780,206.151398 91.658218,209.288651 90.734421,212.717407 
z"/>
<path fill="#DBC695" opacity="1.000000" stroke="none" 
	d="
M133.945892,114.667358 
	C135.099442,116.361244 136.054489,118.324020 137.013580,120.700485 
	C132.989868,119.844696 132.906891,119.687950 133.945892,114.667358 
z"/>
<path fill="#A59473" opacity="1.000000" stroke="none" 
	d="
M125.343811,139.019653 
	C125.111778,138.493301 125.247231,137.972626 125.581337,137.269135 
	C126.252335,137.060730 126.724686,137.035095 127.547852,136.954147 
	C129.105118,137.379150 130.311554,137.859482 131.736786,138.594788 
	C131.972351,139.041245 131.989136,139.232742 132.002823,139.712570 
	C131.513016,140.589355 131.026306,141.177826 130.269653,141.883041 
	C129.999710,141.999802 129.987717,141.990524 129.987717,141.990524 
	C128.562241,141.002121 127.136765,140.013733 125.343811,139.019653 
z"/>
<path fill="#EED8A0" opacity="1.000000" stroke="none" 
	d="
M61.671272,31.210526 
	C61.255867,32.758076 64.925667,36.334198 59.445808,35.721878 
	C59.024963,35.607830 58.915455,35.200516 59.329456,35.053387 
	C59.840263,34.809341 59.937069,34.712425 60.033875,34.615509 
	C59.735302,34.603207 59.436729,34.590904 59.138157,34.578598 
	C59.138157,34.578598 59.377480,34.193890 59.167664,34.169643 
	C58.683605,34.098972 58.409359,34.052547 58.135117,34.006119 
	C59.201286,33.062286 60.267456,32.118454 61.671272,31.210526 
z"/>
<path fill="#F2DCA3" opacity="1.000000" stroke="none" 
	d="
M136.660034,109.009331 
	C136.977585,109.969269 136.991852,111.072739 137.001678,112.589508 
	C136.997223,113.002808 137.000366,112.999809 136.728165,112.879654 
	C135.914780,112.508987 135.373581,112.258476 134.832397,112.007965 
	C135.340515,111.056267 135.848633,110.104568 136.660034,109.009331 
z"/>
<path fill="#A59473" opacity="1.000000" stroke="none" 
	d="
M123.813644,134.975220 
	C123.420792,135.492432 122.929115,135.716949 122.155167,135.938995 
	C122.027084,135.169800 122.181259,134.403076 122.335434,133.636353 
	C122.795227,133.985077 123.255028,134.333801 123.813644,134.975220 
z"/>
<path fill="#5D5446" opacity="1.000000" stroke="none" 
	d="
M159.570740,170.363007 
	C159.678894,169.945648 159.943253,169.693268 160.207611,169.440903 
	C160.311630,169.551224 160.512680,169.751282 160.505630,169.758896 
	C160.258179,170.026459 159.991165,170.275940 159.570740,170.363007 
z"/>
<path fill="#F9E9AE" opacity="1.000000" stroke="none" 
	d="
M203.921219,54.718903 
	C203.755264,54.318935 203.784058,53.725246 204.024170,53.054420 
	C204.195648,53.493256 204.155807,54.009216 203.921219,54.718903 
z"/>
<path fill="#DBC695" opacity="1.000000" stroke="none" 
	d="
M134.612518,112.106476 
	C135.373581,112.258476 135.914780,112.508987 136.730865,112.878555 
	C136.297485,113.193558 135.589203,113.389488 134.543365,113.342911 
	C134.090149,112.765015 134.152420,112.466537 134.612518,112.106476 
z"/>
<path fill="#F2DCA3" opacity="1.000000" stroke="none" 
	d="
M59.155289,34.649406 
	C59.436729,34.590904 59.735302,34.603207 60.033875,34.615509 
	C59.937069,34.712425 59.840263,34.809341 59.457855,34.886089 
	C59.172253,34.865921 59.172417,34.720219 59.155289,34.649406 
z"/>
<path fill="#F2DCA3" opacity="1.000000" stroke="none" 
	d="
M58.162102,34.366020 
	C58.409359,34.052547 58.683605,34.098972 59.348385,34.306244 
	C59.222309,34.553368 58.705696,34.639641 58.162102,34.366020 
z"/>
<path fill="#F9E9AE" opacity="1.000000" stroke="none" 
	d="
M206.057861,31.710251 
	C205.863647,31.990244 205.657974,31.985699 205.144623,31.955647 
	C205.240112,31.761999 205.643265,31.593857 206.057861,31.710251 
z"/>
<path fill="#B7A57F" opacity="1.000000" stroke="none" 
	d="
M141.029388,151.979736 
	C140.904663,151.865982 140.764236,151.765579 140.623795,151.665176 
	C140.698380,151.707916 140.772949,151.750671 140.919891,151.910461 
	C140.992264,152.027496 141.013657,151.993103 141.029388,151.979736 
z"/>
<path fill="#B7A57F" opacity="1.000000" stroke="none" 
	d="
M118.643532,144.885864 
	C118.885178,145.259766 118.725235,145.536667 118.258804,145.881012 
	C118.145554,145.617783 118.242104,145.231247 118.643532,144.885864 
z"/>
<path fill="#BFAC83" opacity="1.000000" stroke="none" 
	d="
M75.203331,85.519714 
	C74.231613,85.623085 73.065613,85.558022 72.166466,85.034576 
	C70.877647,84.284279 69.783592,83.199417 68.273201,81.781761 
	C67.627823,79.569138 67.315636,77.832146 67.003448,76.095161 
	C68.577538,76.527092 70.151634,76.959030 71.658737,77.847137 
	C72.045029,78.875847 72.498306,79.448387 72.951591,80.020927 
	C73.677139,81.729462 74.402687,83.437988 75.203331,85.519714 
z"/>
<path fill="#DBC695" opacity="1.000000" stroke="none" 
	d="
M66.901794,75.856674 
	C67.315636,77.832146 67.627823,79.569138 67.952347,81.638565 
	C67.155357,81.390472 66.346039,80.809929 65.271835,80.081665 
	C63.433762,77.494400 61.860573,75.054848 60.139793,72.315125 
	C60.778030,71.700714 61.563862,71.386459 62.667336,71.051750 
	C63.099888,71.338310 63.287502,71.591438 63.798149,72.220665 
	C64.700851,73.426270 65.353218,74.201881 66.005592,74.977501 
	C66.270439,75.191063 66.535294,75.404625 66.901794,75.856674 
z"/>
<path fill="#EED8A0" opacity="1.000000" stroke="none" 
	d="
M88.939674,79.999664 
	C86.902069,86.097794 83.328110,82.391975 79.982635,81.097580 
	C80.031723,78.785721 80.547577,77.706917 82.883545,79.196754 
	C84.097252,79.970825 85.815582,79.953667 87.864899,80.172920 
	C88.595795,80.034485 88.767738,80.017075 88.939674,79.999664 
z"/>
<path fill="#E3CD9A" opacity="1.000000" stroke="none" 
	d="
M90.970184,71.647461 
	C90.348831,72.214500 89.689636,72.449585 88.452774,72.888443 
	C87.257179,73.060905 86.639259,73.029579 85.760971,72.991432 
	C85.327415,72.997124 85.154228,73.009651 84.981041,73.022179 
	C84.981041,73.022179 85.000000,73.001640 85.005447,72.679276 
	C85.005531,71.917389 85.000168,71.477882 84.994797,71.038368 
	C87.151619,67.324928 89.112976,67.799080 90.970184,71.647461 
z"/>
<path fill="#C3B086" opacity="1.000000" stroke="none" 
	d="
M84.735672,70.827667 
	C85.000168,71.477882 85.005531,71.917389 84.994553,72.686432 
	C82.966522,70.232536 80.954842,67.449097 79.181099,64.309959 
	C79.613792,63.956142 79.808556,63.958035 80.003311,63.959927 
	C81.494392,66.178940 82.985474,68.397949 84.735672,70.827667 
z"/>
<path fill="#EED8A0" opacity="1.000000" stroke="none" 
	d="
M79.962173,63.620934 
	C79.808556,63.958035 79.613792,63.956142 79.125191,63.941719 
	C77.203178,62.387535 75.575012,60.845882 73.946838,59.304234 
	C74.394829,58.870094 74.842812,58.435955 75.290794,58.001816 
	C76.834206,59.761856 78.377625,61.521900 79.962173,63.620934 
z"/>
<path fill="#C3B086" opacity="1.000000" stroke="none" 
	d="
M89.247368,79.830910 
	C88.767738,80.017075 88.595795,80.034485 88.164429,80.034805 
	C87.560379,78.959305 87.215736,77.900902 86.921440,76.436172 
	C86.971786,76.029854 87.103157,75.896866 87.327042,75.933517 
	C87.550919,75.970161 87.997337,76.051247 88.141602,76.279846 
	C88.790825,76.655251 89.295769,76.802063 89.800720,76.948875 
	C89.718834,77.853302 89.636948,78.757729 89.247368,79.830910 
z"/>
<path fill="#EED8A0" opacity="1.000000" stroke="none" 
	d="
M65.996414,74.627274 
	C65.353218,74.201881 64.700851,73.426270 64.008575,72.333984 
	C64.641525,72.770561 65.314384,73.523804 65.996414,74.627274 
z"/>
<path fill="#C3B086" opacity="1.000000" stroke="none" 
	d="
M84.951920,73.368896 
	C85.154228,73.009651 85.327415,72.997124 85.874008,73.282898 
	C86.532654,74.353088 86.817909,75.124977 87.103157,75.896866 
	C87.103157,75.896866 86.971786,76.029854 86.904755,76.098969 
	C86.199417,75.350594 85.561111,74.533104 84.951920,73.368896 
z"/>
<path fill="#A59473" opacity="1.000000" stroke="none" 
	d="
M72.953537,79.669395 
	C72.498306,79.448387 72.045029,78.875847 71.816483,78.129028 
	C72.041229,77.954750 72.466263,77.981392 72.676765,77.949432 
	C72.910011,78.384262 72.932747,78.851067 72.953537,79.669395 
z"/>
<path fill="#3F3832" opacity="1.000000" stroke="none" 
	d="
M68.853462,35.098686 
	C69.259628,35.471340 69.489967,35.966728 69.720314,36.462112 
	C69.365898,36.294468 69.011490,36.126827 68.500290,35.724709 
	C68.343513,35.490234 68.677643,35.221413 68.853462,35.098686 
z"/>
<path fill="#DBC695" opacity="1.000000" stroke="none" 
	d="
M174.420197,96.336456 
	C175.139297,91.358665 176.097382,86.622375 177.021179,81.470940 
	C177.614044,79.934998 178.241211,78.814201 179.279572,76.958572 
	C179.803299,78.714760 180.122253,79.784340 180.109024,79.739983 
	C181.927719,76.948067 184.128204,73.570068 186.652130,70.450256 
	C186.982986,71.138863 186.990372,71.569275 186.743942,72.214798 
	C186.332703,73.291885 186.175293,74.153885 186.017883,75.015877 
	C185.343933,78.730370 184.669983,82.444862 183.973221,86.568764 
	C182.941528,87.535873 181.480865,87.847343 181.015488,88.701263 
	C179.966675,90.625725 179.410507,92.818687 178.281830,94.724457 
	C177.774612,94.286613 177.639420,94.026703 177.504211,93.766800 
	C177.406128,94.185234 177.308029,94.603661 177.209930,95.022095 
	C177.116730,97.043251 177.023514,99.064415 176.901215,101.515724 
	C171.667038,101.998245 176.526535,97.901543 174.420197,96.336456 
z"/>
<path fill="#EED8A0" opacity="1.000000" stroke="none" 
	d="
M187.879181,69.003189 
	C189.256744,67.525139 190.634308,66.047096 192.011871,64.569046 
	C192.420700,64.771767 192.829514,64.974487 193.238327,65.177200 
	C192.039169,67.039917 190.839996,68.902626 189.288788,70.626694 
	C188.584198,69.993095 188.231689,69.498138 187.879181,69.003189 
z"/>
<path fill="#EED8A0" opacity="1.000000" stroke="none" 
	d="
M186.308044,75.135681 
	C186.175293,74.153885 186.332703,73.291885 187.080521,72.209091 
	C188.119858,71.977921 188.568771,71.967560 189.017700,71.957199 
	C189.008240,73.033447 188.998779,74.109695 188.975464,75.589035 
	C188.173813,75.746582 187.386002,75.501038 186.308044,75.135681 
z"/>
<path fill="#F9E9AE" opacity="1.000000" stroke="none" 
	d="
M189.018982,71.748474 
	C188.568771,71.967560 188.119858,71.977921 187.334351,71.993988 
	C186.990372,71.569275 186.982986,71.138863 186.974609,70.386826 
	C187.071976,69.752571 187.242310,69.485977 187.681900,69.134293 
	C188.231689,69.498138 188.584198,69.993095 188.981689,70.805199 
	C189.026642,71.122337 189.020248,71.539742 189.018982,71.748474 
z"/>
<path fill="#908163" opacity="1.000000" stroke="none" 
	d="
M159.473602,200.462280 
	C159.520050,200.436234 159.427155,200.488327 159.473602,200.462280 
z"/>
<path fill="#C3B086" opacity="1.000000" stroke="none" 
	d="
M54.978683,67.016800 
	C54.847618,66.879890 54.733570,66.728508 54.619526,66.577133 
	C54.712673,66.618584 54.805820,66.660034 54.961864,66.835037 
	C55.024761,66.968590 54.995705,67.002335 54.978683,67.016800 
z"/>
<path fill="#FBE4AA" opacity="1.000000" stroke="none" 
	d="
M177.382477,95.019836 
	C177.308029,94.603661 177.406128,94.185234 177.504211,93.766800 
	C177.639420,94.026703 177.774612,94.286613 177.904907,94.787033 
	C177.900009,95.027550 177.555023,95.017578 177.382477,95.019836 
z"/>
<path fill="#A59473" opacity="1.000000" stroke="none" 
	d="
M129.011597,143.008881 
	C128.624557,143.429260 128.237518,143.849640 127.850471,144.270020 
	C127.707268,144.095398 127.564064,143.920792 127.420868,143.746185 
	C127.767609,143.507004 128.114349,143.267822 128.730469,143.014191 
	C128.999832,142.999741 129.011597,143.008881 129.011597,143.008881 
z"/>
<path fill="#A59473" opacity="1.000000" stroke="none" 
	d="
M130.004166,142.005524 
	C129.903427,142.330338 129.715652,142.589600 129.228439,142.898956 
	C129.011597,143.008881 128.999832,142.999741 128.994949,142.993469 
	C129.084366,142.660553 129.269379,142.397781 129.766418,142.094696 
	C129.987717,141.990524 129.999710,141.999802 130.004166,142.005524 
z"/>
<path fill="#3F3832" opacity="1.000000" stroke="none" 
	d="
M153.741516,94.022934 
	C153.775116,94.231087 153.532501,94.498161 153.029175,94.858002 
	C153.000763,94.661125 153.233047,94.371490 153.741516,94.022934 
z"/>
<path fill="#3F3832" opacity="1.000000" stroke="none" 
	d="
M156.719528,92.064438 
	C156.757431,92.278038 156.525803,92.529701 156.046112,92.869080 
	C156.015350,92.672043 156.232666,92.387283 156.719528,92.064438 
z"/>
<path fill="#D0C096" opacity="1.000000" stroke="none" 
	d="
M105.892532,118.034805 
	C105.268135,117.509308 104.643738,116.983803 103.959000,116.129532 
	C105.060326,114.594582 106.222000,113.388412 107.652618,112.012329 
	C107.646172,113.684669 107.370773,115.526917 106.772583,117.689743 
	C106.264046,118.018478 106.078285,118.026642 105.892532,118.034805 
z"/>
<path fill="#DBC695" opacity="1.000000" stroke="none" 
	d="
M105.926514,118.362411 
	C106.078285,118.026642 106.264046,118.018478 106.728798,118.007034 
	C108.231750,118.995644 109.455711,119.987534 111.212616,121.411324 
	C110.291756,122.222107 109.425285,122.984993 108.235550,123.889908 
	C107.600342,123.919258 107.348984,123.727280 107.290726,123.066666 
	C106.964386,121.786697 106.505501,120.896065 106.046616,120.005424 
	C106.017906,119.566956 105.989204,119.128487 105.926514,118.362411 
z"/>
<path fill="#F2DCA3" opacity="1.000000" stroke="none" 
	d="
M87.327042,75.933517 
	C86.817909,75.124977 86.532654,74.353088 86.134369,73.289734 
	C86.639259,73.029579 87.257179,73.060905 88.343109,73.154266 
	C88.903450,73.421204 88.931351,73.634552 88.588486,74.460762 
	C88.187218,75.393860 88.092278,75.722557 87.997337,76.051247 
	C87.997337,76.051247 87.550919,75.970161 87.327042,75.933517 
z"/>
<path fill="#E3CD9A" opacity="1.000000" stroke="none" 
	d="
M88.141602,76.279846 
	C88.092278,75.722557 88.187218,75.393860 88.553635,74.621948 
	C89.159760,74.888596 89.494415,75.598480 89.814896,76.628616 
	C89.295769,76.802063 88.790825,76.655251 88.141602,76.279846 
z"/>
<path fill="#FBE4AA" opacity="1.000000" stroke="none" 
	d="
M174.014587,84.996246 
	C174.152145,84.900742 174.471771,84.978294 174.693542,85.265152 
	C174.462692,85.372742 174.329666,85.271027 174.014587,84.996246 
z"/>
<path fill="#D0C096" opacity="1.000000" stroke="none" 
	d="
M105.922401,120.265442 
	C106.505501,120.896065 106.964386,121.786697 107.188431,122.848869 
	C106.408386,122.843491 105.863174,122.666580 105.134377,122.261597 
	C105.233253,121.530838 105.515717,121.028152 105.922401,120.265442 
z"/>
<path fill="#D0C096" opacity="1.000000" stroke="none" 
	d="
M103.073502,123.676460 
	C102.512749,123.347069 101.930588,122.693535 101.348434,122.040009 
	C101.813034,121.899628 102.277634,121.759254 102.928665,121.838150 
	C103.094109,122.489052 103.073105,122.920685 103.073502,123.676460 
z"/>
</svg>