<svg version="1.1" id="Layer_1" xmlns="http://www.w3.org/2000/svg" xmlns:xlink="http://www.w3.org/1999/xlink" x="0px" y="0px"
	 width="100%" viewBox="0 0 256 256" enable-background="new 0 0 256 256" xml:space="preserve">
<path fill="#FEFDD5" opacity="1.000000" stroke="none" 
	d="
M74.000000,257.000000 
	C49.730194,257.000000 25.460390,257.000000 1.000000,257.000000 
	C1.000000,225.646027 1.000000,194.291672 1.375010,162.469421 
	C3.661534,162.335526 5.573048,162.669540 7.587147,163.461945 
	C7.689731,192.983276 7.689731,222.046219 7.689731,251.510895 
	C30.030504,251.510895 51.510975,251.510895 72.985313,251.863571 
	C73.319450,253.810837 73.659729,255.405411 74.000000,257.000000 
z"/>
<path fill="#FCF8CD" opacity="1.000000" stroke="none" 
	d="
M251.000000,1.000000 
	C252.991943,1.000000 254.983887,1.000000 257.000000,1.000000 
	C257.000000,35.020889 257.000000,69.041786 256.625092,103.531097 
	C255.001633,103.995758 253.753067,103.992004 252.417709,103.527336 
	C252.304916,72.710556 252.300415,42.354622 252.199875,11.999009 
	C252.193817,10.166578 251.422943,8.336681 251.007660,6.113545 
	C251.004929,4.147656 251.002457,2.573828 251.000000,1.000000 
z"/>
<path fill="#F1E5B7" opacity="1.000000" stroke="none" 
	d="
M1.000000,120.000000 
	C1.000000,100.645775 1.000000,81.291542 1.371369,61.475224 
	C3.660403,61.341335 5.578068,61.669540 7.596229,62.456764 
	C7.793283,75.610146 7.889840,88.304520 7.892497,101.459343 
	C7.698094,107.948433 7.597591,113.977058 7.093671,120.008072 
	C4.793502,120.006966 2.896751,120.003487 1.000000,120.000000 
z"/>
<path fill="#FBF8C2" opacity="1.000000" stroke="none" 
	d="
M257.000000,190.000000 
	C257.000000,212.333405 257.000000,234.666809 257.000000,257.000000 
	C252.566681,257.000000 248.257462,257.000000 243.473404,256.595764 
	C243.017380,254.855881 243.036209,253.520218 243.235870,252.101837 
	C243.655624,251.892075 243.853470,251.718262 244.464386,251.404739 
	C247.203842,251.311798 249.489136,251.311798 252.507034,251.311798 
	C252.507034,230.541504 252.507034,210.275391 252.881180,190.013672 
	C254.503555,190.012024 255.751770,190.006012 257.000000,190.000000 
z"/>
<path fill="#FEFAD8" opacity="1.000000" stroke="none" 
	d="
M39.000000,1.000000 
	C59.354229,1.000000 79.708458,1.000000 100.521889,1.397893 
	C100.814728,5.227129 98.819992,6.033053 95.669868,6.035910 
	C87.447144,6.043368 79.224686,6.342112 70.542358,6.623636 
	C60.055031,6.651947 50.027454,6.581319 39.998569,6.156574 
	C39.664837,4.201637 39.332420,2.600818 39.000000,1.000000 
z"/>
<path fill="#F1E5B7" opacity="1.000000" stroke="none" 
	d="
M252.504517,103.988251 
	C253.753067,103.992004 255.001633,103.995758 256.625092,103.999756 
	C257.000000,123.687561 257.000000,143.375122 256.625488,163.531067 
	C255.003586,164.000092 253.756226,164.000717 252.404617,163.557556 
	C252.206802,160.075439 252.113235,157.037125 252.127258,153.540634 
	C252.157394,142.054932 252.079926,131.027405 252.106628,119.542587 
	C252.308701,114.052956 252.406601,109.020607 252.504517,103.988251 
z"/>
<path fill="#FAF5C4" opacity="1.000000" stroke="none" 
	d="
M1.000000,43.000000 
	C1.000000,31.312439 1.000000,19.624876 1.375225,7.469396 
	C3.664146,7.330554 5.577843,7.659631 7.601694,8.446301 
	C7.638808,20.599682 7.565767,32.295471 7.131649,43.968391 
	C4.847049,43.630356 2.923524,43.315178 1.000000,43.000000 
z"/>
<path fill="#FEFDD5" opacity="1.000000" stroke="none" 
	d="
M7.491539,7.988708 
	C5.577843,7.659631 3.664146,7.330554 1.375225,7.000738 
	C1.000000,5.020106 1.000000,3.040212 1.000000,1.000000 
	C13.354174,1.000000 25.708429,1.000000 38.531342,1.000000 
	C39.332420,2.600818 39.664837,4.201637 39.540314,6.260288 
	C30.197224,6.724374 21.310194,6.667911 12.425730,6.793191 
	C10.775708,6.816458 9.136004,7.571433 7.491539,7.988708 
z"/>
<path fill="#B4A888" opacity="1.000000" stroke="none" 
	d="
M175.000000,257.000000 
	C165.979111,257.000000 156.958206,257.000000 147.478317,256.643127 
	C147.337219,254.683975 147.655136,253.081665 148.390930,251.363861 
	C150.540283,251.154312 152.271744,251.060257 154.466980,251.038086 
	C161.629349,251.230423 168.327972,251.350891 175.021744,251.865128 
	C175.011276,253.839264 175.005646,255.419632 175.000000,257.000000 
z"/>
<path fill="#FCF8CD" opacity="1.000000" stroke="none" 
	d="
M7.484562,163.003540 
	C5.573048,162.669540 3.661534,162.335526 1.375010,162.000763 
	C1.000000,154.645752 1.000000,147.291504 1.408042,139.469513 
	C3.705814,139.003723 5.595544,139.005661 7.579221,139.466278 
	C7.777588,145.283081 7.882008,150.641220 7.884775,156.429062 
	C7.683601,158.907028 7.584082,160.955276 7.484562,163.003540 
z"/>
<path fill="#E7D8B0" opacity="1.000000" stroke="none" 
	d="
M187.000000,1.000000 
	C195.354233,1.000000 203.708466,1.000000 212.529755,1.395608 
	C213.002090,3.369751 213.007370,4.948287 212.554901,6.636651 
	C203.409897,6.686253 194.722641,6.626025 186.031891,6.207572 
	C186.352264,4.232898 186.676132,2.616449 187.000000,1.000000 
z"/>
<path fill="#E7D8B0" opacity="1.000000" stroke="none" 
	d="
M143.000000,1.000000 
	C150.687576,1.000000 158.375168,1.000000 166.580719,1.352926 
	C167.387787,3.322469 167.676880,4.939086 167.504776,6.630195 
	C159.025833,6.640147 151.008072,6.575609 142.987381,6.118611 
	C142.989624,4.150767 142.994812,2.575384 143.000000,1.000000 
z"/>
<path fill="#F7EAC2" opacity="1.000000" stroke="none" 
	d="
M7.485273,139.007599 
	C5.595544,139.005661 3.705814,139.003723 1.408042,139.000885 
	C1.000000,132.978851 1.000000,126.957695 1.000000,120.468277 
	C2.896751,120.003487 4.793502,120.006966 7.191161,120.466927 
	C7.623137,126.951469 7.554205,132.979538 7.485273,139.007599 
z"/>
<path fill="#F4E8B6" opacity="1.000000" stroke="none" 
	d="
M252.508881,164.001343 
	C253.756226,164.000717 255.003586,164.000092 256.625488,163.999725 
	C257.000000,172.354233 257.000000,180.708466 257.000000,189.531342 
	C255.751770,190.006012 254.503555,190.012024 252.767715,189.556915 
	C252.356369,180.730972 252.432617,172.366165 252.508881,164.001343 
z"/>
<path fill="#FCF8CD" opacity="1.000000" stroke="none" 
	d="
M71.002121,6.524699 
	C79.224686,6.342112 87.447144,6.043368 95.669868,6.035910 
	C98.819992,6.033053 100.814728,5.227129 100.990547,1.397893 
	C106.022095,1.000000 111.044182,1.000000 116.532188,1.393813 
	C116.996956,3.358742 116.995819,4.929858 116.534988,6.596798 
	C101.050911,6.636647 86.026512,6.580673 71.002121,6.524699 
z"/>
<path fill="#F4E8B6" opacity="1.000000" stroke="none" 
	d="
M1.000000,43.467941 
	C2.923524,43.315178 4.847049,43.630356 7.240516,44.425308 
	C7.638884,50.602642 7.567308,56.300194 7.495732,61.997749 
	C5.578068,61.669540 3.660403,61.341335 1.371369,61.006565 
	C1.000000,55.311958 1.000000,49.623920 1.000000,43.467941 
z"/>
<path fill="#FAF5C4" opacity="1.000000" stroke="none" 
	d="
M250.531464,1.000000 
	C251.002457,2.573828 251.004929,4.147656 250.549606,6.219805 
	C243.397156,6.650429 236.702484,6.582732 230.011795,6.122289 
	C230.010513,4.153028 230.005249,2.576514 230.000000,1.000000 
	C236.687637,1.000000 243.375290,1.000000 250.531464,1.000000 
z"/>
<path fill="#CCBB98" opacity="1.000000" stroke="none" 
	d="
M175.468414,257.000000 
	C175.005646,255.419632 175.011276,253.839264 175.482422,251.784836 
	C181.971359,251.374481 187.994797,251.438187 194.037781,251.851440 
	C194.371536,253.800659 194.685776,255.400330 195.000000,257.000000 
	C188.645599,257.000000 182.291214,257.000000 175.468414,257.000000 
z"/>
<path fill="#CCBB98" opacity="1.000000" stroke="none" 
	d="
M147.973038,251.479355 
	C147.655136,253.081665 147.337219,254.683975 147.009659,256.643127 
	C140.978851,257.000000 134.957703,257.000000 128.474167,256.642883 
	C128.339386,254.684174 128.667007,253.082565 129.453094,251.378983 
	C135.932053,251.344467 141.952545,251.411911 147.973038,251.479355 
z"/>
<path fill="#CAC09D" opacity="1.000000" stroke="none" 
	d="
M167.965973,6.555704 
	C167.676880,4.939086 167.387787,3.322469 167.049347,1.352926 
	C173.354401,1.000000 179.708786,1.000000 186.531586,1.000000 
	C186.676132,2.616449 186.352264,4.232898 185.574921,6.325170 
	C179.402954,6.719230 173.684464,6.637467 167.965973,6.555704 
z"/>
<path fill="#E7D8B0" opacity="1.000000" stroke="none" 
	d="
M116.000000,257.000000 
	C110.645073,257.000000 105.290138,257.000000 99.469299,256.605835 
	C98.999611,254.639084 98.995827,253.066498 99.318794,251.379120 
	C100.096855,251.174286 100.548157,251.084244 101.456024,251.097000 
	C106.600365,251.297806 111.288132,251.395813 115.974854,251.885971 
	C115.982529,253.852066 115.991264,255.426041 116.000000,257.000000 
z"/>
<path fill="#F4E8B6" opacity="1.000000" stroke="none" 
	d="
M229.532379,1.000000 
	C230.005249,2.576514 230.010513,4.153028 229.555786,6.232945 
	C223.734741,6.666507 218.373688,6.596664 213.012650,6.526823 
	C213.007370,4.948287 213.002090,3.369751 212.998413,1.395608 
	C218.354935,1.000000 223.709854,1.000000 229.532379,1.000000 
z"/>
<path fill="#F1E5B7" opacity="1.000000" stroke="none" 
	d="
M244.010239,251.497681 
	C243.853470,251.718262 243.655624,251.892075 242.767761,252.050690 
	C239.677200,252.067581 237.208878,252.276199 234.799988,251.987930 
	C230.779678,251.506821 229.479050,253.298798 230.000000,257.000000 
	C225.974823,257.000000 221.949631,257.000000 217.463531,256.607269 
	C217.004425,254.647888 217.006210,253.081253 217.468018,251.422485 
	C226.622101,251.386139 235.316162,251.441910 244.010239,251.497681 
z"/>
<path fill="#F7EAC2" opacity="1.000000" stroke="none" 
	d="
M74.466858,257.000000 
	C73.659729,255.405411 73.319450,253.810837 73.271729,251.771973 
	C73.752106,251.397751 73.939926,251.467804 74.219772,251.571823 
	C74.311798,251.605804 74.593208,251.633484 74.593208,251.633484 
	C74.593208,251.633484 74.870773,251.541611 75.118622,251.420914 
	C75.550217,251.304443 75.733955,251.308685 76.056000,251.498871 
	C76.465477,251.840973 76.754272,251.950745 77.521400,252.019684 
	C80.410240,252.027435 82.865768,252.262024 85.260368,251.979767 
	C89.297546,251.503860 90.508232,253.356415 90.000000,257.000000 
	C84.977905,257.000000 79.955818,257.000000 74.466858,257.000000 
z"/>
<path fill="#F7EAC2" opacity="1.000000" stroke="none" 
	d="
M116.994682,6.500975 
	C116.995819,4.929858 116.996956,3.358742 116.999054,1.393813 
	C121.356903,1.000000 125.713806,1.000000 130.534775,1.394004 
	C130.997849,3.359920 130.996857,4.931832 130.540070,6.600015 
	C125.721069,6.631182 121.357872,6.566078 116.994682,6.500975 
z"/>
<path fill="#CDC39E" opacity="1.000000" stroke="none" 
	d="
M116.460632,257.000000 
	C115.991264,255.426041 115.982529,253.852066 116.426231,251.768707 
	C120.917320,251.333176 124.955963,251.407059 128.994614,251.480942 
	C128.667007,253.082565 128.339386,254.684174 128.005890,256.642883 
	C124.307091,257.000000 120.614182,257.000000 116.460632,257.000000 
z"/>
<path fill="#F1E5B7" opacity="1.000000" stroke="none" 
	d="
M130.995865,6.503745 
	C130.996857,4.931832 130.997849,3.359920 130.999420,1.394004 
	C134.692902,1.000000 138.385818,1.000000 142.539368,1.000000 
	C142.994812,2.575384 142.989624,4.150767 142.535080,6.211744 
	C138.389099,6.632807 134.692490,6.568276 130.995865,6.503745 
z"/>
<path fill="#E3CF9A" opacity="1.000000" stroke="none" 
	d="
M195.458069,257.000000 
	C194.685776,255.400330 194.371536,253.800659 194.491089,251.767151 
	C198.619247,251.392990 202.313644,251.452637 206.011749,251.903015 
	C206.010330,253.862503 206.005173,255.431259 206.000000,257.000000 
	C202.638718,257.000000 199.277420,257.000000 195.458069,257.000000 
z"/>
<path fill="#F1E5B7" opacity="1.000000" stroke="none" 
	d="
M90.449982,257.000000 
	C90.508232,253.356415 89.297546,251.503860 85.260368,251.979767 
	C82.865768,252.262024 80.410240,252.027435 77.550980,251.841034 
	C77.119843,251.656845 77.110207,251.294815 77.570244,251.258972 
	C85.017532,251.313385 92.004784,251.403656 98.992035,251.493927 
	C98.995827,253.066498 98.999611,254.639084 99.001694,256.605835 
	C96.299988,257.000000 93.599968,257.000000 90.449982,257.000000 
z"/>
<path fill="#E7D8B0" opacity="1.000000" stroke="none" 
	d="
M206.458069,257.000000 
	C206.005173,255.431259 206.010330,253.862503 206.462555,251.813644 
	C210.275757,251.393890 213.641876,251.454239 217.007996,251.514603 
	C217.006210,253.081253 217.004425,254.647888 217.001312,256.607269 
	C213.638718,257.000000 210.277420,257.000000 206.458069,257.000000 
z"/>
<path fill="#F7EAC2" opacity="1.000000" stroke="none" 
	d="
M230.463181,257.000000 
	C229.479050,253.298798 230.779678,251.506821 234.799988,251.987930 
	C237.208878,252.276199 239.677200,252.067581 242.586929,252.133423 
	C243.036209,253.520218 243.017380,254.855881 242.999268,256.595764 
	C238.975449,257.000000 234.950912,257.000000 230.463181,257.000000 
z"/>
<path fill="#322B27" opacity="1.000000" stroke="none" 
	d="
M99.318794,251.379135 
	C92.004784,251.403656 85.017532,251.313385 77.270676,251.168671 
	C76.313286,251.180450 76.115486,251.246674 75.917686,251.312912 
	C75.733955,251.308685 75.550217,251.304443 74.933296,251.334641 
	C74.500122,251.369064 74.127754,251.537842 74.127754,251.537842 
	C73.939926,251.467804 73.752106,251.397751 73.277863,251.419281 
	C51.510975,251.510895 30.030504,251.510895 7.689731,251.510895 
	C7.689731,222.046219 7.689731,192.983276 7.587147,163.461945 
	C7.584082,160.955276 7.683601,158.907028 8.251395,156.504730 
	C9.478064,158.066925 10.713536,159.933304 10.919802,161.907211 
	C12.658188,178.543106 18.265272,193.831070 27.312475,207.758179 
	C34.653423,219.058701 44.770866,227.793320 56.772007,233.642883 
	C66.981743,238.619278 77.967682,242.001175 88.602455,246.108627 
	C92.745705,247.708862 96.867744,249.364044 100.999451,250.994202 
	C100.548157,251.084244 100.096855,251.174286 99.318794,251.379135 
z"/>
<path fill="#3F3832" opacity="1.000000" stroke="none" 
	d="
M130.540070,6.600015 
	C134.692490,6.568276 138.389099,6.632807 142.538025,6.604205 
	C151.008072,6.575609 159.025833,6.640147 167.504776,6.630195 
	C173.684464,6.637467 179.402954,6.719230 185.578430,6.683395 
	C194.722641,6.626025 203.409897,6.686253 212.554901,6.636651 
	C218.373688,6.596664 223.734741,6.666507 229.551788,6.625692 
	C236.702484,6.582732 243.397156,6.650429 250.549896,6.611866 
	C251.422943,8.336681 252.193817,10.166578 252.199875,11.999009 
	C252.300415,42.354622 252.304916,72.710556 252.417709,103.527336 
	C252.406601,109.020607 252.308701,114.052956 251.731140,119.631531 
	C250.273468,124.596985 249.411240,129.045746 248.293533,133.429352 
	C245.921280,142.733231 243.265503,151.966507 240.993835,161.293991 
	C234.540833,187.790009 223.273804,210.781555 198.405487,225.254929 
	C179.830475,236.065567 160.140884,243.377762 138.866089,244.774429 
	C112.666290,246.494431 87.658913,241.276642 65.068687,227.017975 
	C52.072285,218.814819 41.457031,208.151550 33.596394,195.014938 
	C21.856321,175.395096 17.396469,153.414291 13.968501,131.176331 
	C13.163867,125.956505 12.467356,120.720100 11.685429,115.496666 
	C11.154845,111.952248 10.685369,108.390717 9.935453,104.891075 
	C9.641127,103.517532 8.656599,102.291885 7.986397,100.998886 
	C7.889840,88.304520 7.793283,75.610146 7.596229,62.456764 
	C7.567308,56.300194 7.638884,50.602642 7.601592,44.448174 
	C7.565767,32.295471 7.638808,20.599682 7.601694,8.446301 
	C9.136004,7.571433 10.775708,6.816458 12.425730,6.793191 
	C21.310194,6.667911 30.197224,6.724374 39.541626,6.614407 
	C50.027454,6.581319 60.055031,6.651947 70.542358,6.623636 
	C86.026512,6.580673 101.050911,6.636647 116.534988,6.596798 
	C121.357872,6.566078 125.721069,6.631182 130.540070,6.600015 
M224.794113,117.018745 
	C224.608521,116.282730 224.422928,115.546715 224.300339,114.787971 
	C224.300339,114.787971 224.348633,114.741508 224.170807,114.087639 
	C222.828506,113.361191 221.486191,112.634743 219.924332,111.294212 
	C218.960312,110.526978 217.996307,109.759735 216.635590,108.382294 
	C211.456711,105.835434 206.277832,103.288574 200.695877,100.194931 
	C199.587173,100.009758 198.478455,99.824593 197.283463,99.632439 
	C197.283463,99.632439 197.263870,99.548126 197.197769,98.811012 
	C197.382797,98.057961 197.490677,97.275482 197.764954,96.556465 
	C200.183456,90.216232 199.632492,89.103546 193.177017,87.016426 
	C170.782974,79.776184 148.396164,72.513649 125.251556,65.033852 
	C122.169792,64.077919 119.088028,63.121979 115.305580,61.896000 
	C111.902649,60.801926 108.499710,59.707855 104.556641,58.124592 
	C99.706963,57.625446 94.857292,57.126301 89.107941,56.361229 
	C76.533287,56.361229 63.958630,56.361229 50.598595,56.361229 
	C51.605007,57.729794 51.805222,58.310673 52.185040,58.474079 
	C67.437164,65.035980 82.705528,71.560112 98.350815,78.687576 
	C103.903824,81.053612 109.456825,83.419640 115.678825,86.087654 
	C121.787819,88.684296 127.896805,91.280937 134.601212,94.245232 
	C139.272003,97.822144 144.174210,95.346870 149.789291,94.791496 
	C164.870224,90.683853 180.265427,90.079025 196.079681,90.067200 
	C195.443527,93.645729 194.919647,96.592674 194.309174,99.533081 
	C194.309174,99.533081 194.256058,99.490860 194.213516,98.503036 
	C192.600189,98.339836 190.954041,97.884857 189.379028,98.062111 
	C180.910706,99.015152 172.460068,100.125397 163.221146,101.155670 
	C158.955719,102.174637 154.690277,103.193604 149.108093,104.527122 
	C153.490204,105.940140 156.715164,106.980034 160.083023,108.519112 
	C160.382019,108.615677 160.681000,108.712242 161.652954,108.949471 
	C162.110428,108.938080 162.567917,108.926689 163.527832,109.351418 
	C164.356644,109.553719 165.185440,109.756020 166.554138,110.419586 
	C167.483322,110.355690 168.412506,110.291794 169.553467,110.958801 
	C172.040314,111.883705 174.527176,112.808601 177.729050,113.946838 
	C179.150757,114.239853 180.572479,114.532875 182.803970,115.019165 
	C186.745621,115.402382 190.687271,115.785606 194.820755,116.614204 
	C195.541855,116.727562 196.262955,116.840927 197.833557,117.115509 
	C200.121735,117.123810 202.409927,117.132111 204.922409,117.563728 
	C205.615631,117.711761 206.308853,117.859787 207.857239,118.171722 
	C209.588669,118.054848 211.320099,117.937981 213.551926,118.296204 
	C214.888687,117.879807 216.225449,117.463402 217.965881,117.386169 
	C218.290878,117.279663 218.615875,117.173157 219.720535,117.053520 
	C220.499405,117.028107 221.278290,117.002693 222.091278,117.560112 
	C221.709595,117.978157 221.327927,118.396194 220.171585,118.979980 
	C217.352081,119.678207 214.560593,120.825592 211.708633,121.003517 
	C189.120880,122.412697 168.513016,114.533188 147.857986,107.015533 
	C146.589462,106.553833 145.120422,105.424263 144.635864,104.240601 
	C142.649551,99.388481 138.230331,98.066681 134.042480,96.299477 
	C122.728386,91.525108 111.424477,86.726639 99.743111,81.319435 
	C82.642052,73.885719 65.540985,66.452003 47.585213,58.646751 
	C49.752934,66.708679 55.161770,70.891068 60.260876,75.214066 
	C69.966187,83.442169 80.024269,91.309044 86.006554,103.769440 
	C86.726547,105.845039 87.446541,107.920647 88.026192,110.887192 
	C88.073074,113.588997 88.119965,116.290810 88.026314,119.841553 
	C88.073074,121.559204 88.119843,123.276848 88.029373,125.832817 
	C87.911110,127.521011 87.792847,129.209198 87.185875,131.410965 
	C84.963692,140.457474 76.367958,147.081482 65.520287,147.992004 
	C58.809933,148.555252 52.088291,148.984024 45.376652,149.472809 
	C44.478657,156.896240 53.636810,167.044678 59.828747,164.559143 
	C57.954998,164.169220 56.594021,163.885986 56.105339,163.784302 
	C54.845882,161.119293 53.900166,159.118149 53.010479,156.186295 
	C53.062943,155.565552 53.115406,154.944824 53.808407,154.672760 
	C56.148357,156.843597 58.456192,159.132843 62.909786,157.052612 
	C67.389366,157.414368 71.869621,158.029205 76.348190,158.017151 
	C78.219833,158.012131 80.087883,156.675201 82.258057,156.160980 
	C82.258057,156.160980 82.608368,156.281448 82.642487,156.914810 
	C82.860313,158.865921 83.427979,160.108963 85.775024,158.198807 
	C85.775024,158.198807 86.004929,157.992752 86.622147,158.185165 
	C86.968979,158.439255 87.315804,158.693329 87.816803,159.593292 
	C92.210167,161.733475 96.603531,163.873657 101.363876,166.558334 
	C103.208672,167.750946 105.053467,168.943558 107.242722,170.606506 
	C107.793915,170.774872 108.345108,170.943237 109.145935,171.648178 
	C109.753677,172.136002 110.361420,172.623810 111.158997,173.562439 
	C111.370415,173.847000 111.653374,173.988052 112.334793,174.467453 
	C112.845383,174.735519 113.355965,175.003601 114.243713,175.841568 
	C116.114151,177.575882 117.984589,179.310196 120.118698,181.683563 
	C123.134239,186.002426 126.412872,190.165878 129.084183,194.688065 
	C131.323288,198.478592 134.198074,199.806473 138.126221,198.287628 
	C144.132675,195.965210 150.020325,193.335526 156.670944,190.733673 
	C161.446503,188.695877 166.222046,186.658081 171.652710,184.415054 
	C176.139694,182.468689 180.626663,180.522324 184.336563,178.913040 
	C176.605042,174.789871 169.221191,170.852097 161.400894,166.681580 
	C162.373062,169.443314 163.421844,172.422668 164.195511,175.734955 
	C164.195511,175.734955 163.935593,176.079865 163.245209,175.924057 
	C162.110031,174.280090 160.974854,172.636108 159.958984,170.140747 
	C159.917297,168.424042 159.875595,166.707352 159.956787,164.070633 
	C160.397308,155.786865 160.837814,147.503098 161.278336,139.219330 
	C160.847687,139.147125 160.417038,139.074921 159.986404,139.002716 
	C159.360458,142.880112 158.401215,146.741318 158.211884,150.639923 
	C158.054749,153.875641 156.580963,154.824310 153.727814,155.330734 
	C146.225266,156.662430 141.191223,152.502808 136.026184,147.276749 
	C134.674881,145.186325 133.323593,143.095901 131.981628,140.192017 
	C131.266357,137.125092 130.551102,134.058167 129.959183,130.273422 
	C130.002335,128.527039 130.045486,126.780663 130.822906,124.933128 
	C133.919830,126.940193 136.956863,129.047745 140.124756,130.935715 
	C150.161545,136.917374 160.965637,136.896927 172.809509,134.896042 
	C177.601044,134.068069 182.392563,133.240097 187.957687,132.210220 
	C190.668655,131.542419 193.379623,130.874634 196.860168,130.101196 
	C200.586578,128.767578 204.313004,127.433983 208.766479,126.002472 
	C212.840515,123.958397 216.914566,121.914314 221.620361,119.815765 
	C222.475876,118.906441 223.331406,117.997108 224.794113,117.018745 
M159.961273,196.786728 
	C157.191742,198.065155 154.422226,199.343582 150.932907,200.790680 
	C146.602432,202.836975 142.271957,204.883286 137.156784,206.952301 
	C136.561111,206.755447 135.438354,206.531616 135.446854,206.365677 
	C135.658630,202.227814 132.776062,200.857361 129.701752,199.365112 
	C128.532394,198.797485 127.816559,197.250824 126.954842,196.104645 
	C125.679001,194.407654 124.457367,192.669891 123.042839,190.262207 
	C116.560555,180.508987 107.758286,173.392014 97.144852,167.238358 
	C92.697937,165.184097 88.307335,162.989243 83.766144,161.170349 
	C82.568764,160.690781 79.834587,161.000839 79.633041,161.581940 
	C78.418442,165.083847 75.669632,163.838348 73.432137,163.954453 
	C69.948563,164.135193 66.454437,164.112732 62.197269,164.099564 
	C61.709221,164.319733 61.221172,164.539902 60.733128,164.760086 
	C61.471348,165.071899 62.209572,165.383728 63.860664,165.933121 
	C74.278702,165.402771 84.341156,166.881622 94.345627,171.746353 
	C103.851715,176.933304 112.128250,183.618927 119.228539,192.648224 
	C122.552155,198.874802 126.550606,204.554962 133.173920,207.597839 
	C134.549271,208.229706 136.560547,207.477371 138.973587,207.188797 
	C143.361786,205.175522 147.749969,203.162262 152.859314,201.066528 
	C155.605179,199.744980 158.351028,198.423431 161.687531,197.033798 
	C162.171051,196.742798 162.654556,196.451797 163.872299,196.079483 
	C167.945419,194.085052 172.018555,192.090622 176.668808,190.028946 
	C176.916214,189.763809 177.163620,189.498672 177.411026,189.233536 
	C176.831787,189.366699 176.252563,189.499863 174.946838,189.780762 
	C170.847717,191.706039 166.748596,193.631332 162.125519,195.764603 
	C161.643478,196.058395 161.161453,196.352173 159.961273,196.786728 
M109.001923,188.502060 
	C100.863365,180.469223 87.086067,173.511871 80.559189,174.879181 
	C82.957367,175.861526 84.531624,176.594528 86.163651,177.161102 
	C100.737274,182.220520 111.495995,191.513763 117.959534,205.633270 
	C122.818535,216.247711 131.018829,219.436615 141.446915,214.637329 
	C146.655624,212.240143 151.727631,209.545929 156.861465,206.986053 
	C156.629257,206.522720 156.397049,206.059387 156.164825,205.596039 
	C150.647446,208.308670 145.126770,211.014664 139.613510,213.735672 
	C133.253265,216.874710 124.512558,213.816574 120.845070,207.480652 
	C117.229431,201.234314 113.277267,195.182770 109.001923,188.502060 
M41.359840,157.285721 
	C41.574589,155.357483 42.037724,153.417892 41.950245,151.503464 
	C41.788654,147.967239 41.512325,144.564072 47.564907,144.388672 
	C41.452583,142.301895 40.089272,142.991135 40.044380,147.486023 
	C40.011856,150.742828 40.388012,154.003708 41.359840,157.285721 
M70.460381,171.617050 
	C65.161949,171.617050 59.863510,171.617050 54.565075,171.617050 
	C54.576164,171.893951 54.587257,172.170837 54.598347,172.447739 
	C59.879875,172.447739 65.161407,172.447739 70.460381,171.617050 
M192.045593,176.250519 
	C191.779068,169.619644 186.694473,173.052399 183.576050,172.048630 
	C189.252625,172.553116 191.061203,176.598526 191.687363,181.803055 
	C192.129959,181.543732 192.572540,181.284409 193.015137,181.025085 
	C192.732132,179.691833 192.449112,178.358566 192.045593,176.250519 
M185.154617,182.222885 
	C185.210861,182.815521 185.267120,183.408173 185.323364,184.000809 
	C185.534912,183.964417 185.746460,183.928024 185.958008,183.891617 
	C185.820908,183.231934 185.683823,182.572250 185.154617,182.222885 
M179.997650,187.736450 
	C179.841705,187.989304 179.685745,188.242157 179.529785,188.494995 
	C179.781784,188.336731 180.033768,188.178452 179.997650,187.736450 
z"/>
<path fill="#37302B" opacity="1.000000" stroke="none" 
	d="
M7.892497,101.459343 
	C8.656599,102.291885 9.641127,103.517532 9.935453,104.891075 
	C10.685369,108.390717 11.154845,111.952248 11.685429,115.496666 
	C12.467356,120.720100 13.163867,125.956505 13.968501,131.176331 
	C17.396469,153.414291 21.856321,175.395096 33.596394,195.014938 
	C41.457031,208.151550 52.072285,218.814819 65.068687,227.017975 
	C87.658913,241.276642 112.666290,246.494431 138.866089,244.774429 
	C160.140884,243.377762 179.830475,236.065567 198.405487,225.254929 
	C223.273804,210.781555 234.540833,187.790009 240.993835,161.293991 
	C243.265503,151.966507 245.921280,142.733231 248.293533,133.429352 
	C249.411240,129.045746 250.273468,124.596985 251.626984,120.088806 
	C252.079926,131.027405 252.157394,142.054932 251.763199,153.588470 
	C250.255371,155.666153 248.733017,157.105469 248.263107,158.831329 
	C245.523575,168.893005 242.463882,178.917633 240.581940,189.151459 
	C237.407028,206.416321 226.473328,218.007477 212.494019,226.309189 
	C197.700653,235.094345 181.546249,241.448944 164.831802,246.109482 
	C161.063828,247.160110 157.604568,249.318008 154.003204,250.966217 
	C152.271744,251.060257 150.540283,251.154312 148.390930,251.363861 
	C141.952545,251.411911 135.932053,251.344467 129.453094,251.378983 
	C124.955963,251.407059 120.917320,251.333176 116.427292,251.376556 
	C111.288132,251.395813 106.600365,251.297806 101.456024,251.096985 
	C96.867744,249.364044 92.745705,247.708862 88.602455,246.108627 
	C77.967682,242.001175 66.981743,238.619278 56.772007,233.642883 
	C44.770866,227.793320 34.653423,219.058701 27.312475,207.758179 
	C18.265272,193.831070 12.658188,178.543106 10.919802,161.907211 
	C10.713536,159.933304 9.478064,158.066925 8.353049,156.075043 
	C7.882008,150.641220 7.777588,145.283081 7.579221,139.466278 
	C7.554205,132.979538 7.623137,126.951469 7.594579,120.464554 
	C7.597591,113.977058 7.698094,107.948433 7.892497,101.459343 
z"/>
<path fill="#322B27" opacity="1.000000" stroke="none" 
	d="
M154.466980,251.038086 
	C157.604568,249.318008 161.063828,247.160110 164.831802,246.109482 
	C181.546249,241.448944 197.700653,235.094345 212.494019,226.309189 
	C226.473328,218.007477 237.407028,206.416321 240.581940,189.151459 
	C242.463882,178.917633 245.523575,168.893005 248.263107,158.831329 
	C248.733017,157.105469 250.255371,155.666153 251.655609,154.046631 
	C252.113235,157.037125 252.206802,160.075439 252.404633,163.557556 
	C252.432617,172.366165 252.356369,180.730972 252.393570,189.552536 
	C252.507034,210.275391 252.507034,230.541504 252.507034,251.311798 
	C249.489136,251.311798 247.203842,251.311798 244.464386,251.404739 
	C235.316162,251.441910 226.622101,251.386139 217.468018,251.422485 
	C213.641876,251.454239 210.275757,251.393890 206.458832,251.422913 
	C202.313644,251.452637 198.619247,251.392990 194.471558,251.417603 
	C187.994797,251.438187 181.971359,251.374481 175.487244,251.391068 
	C168.327972,251.350891 161.629349,251.230423 154.466980,251.038086 
z"/>
<path fill="#B4A888" opacity="1.000000" stroke="none" 
	d="
M76.056000,251.498871 
	C76.115486,251.246674 76.313286,251.180450 76.810638,251.204514 
	C77.110207,251.294815 77.119843,251.656845 77.090271,251.835495 
	C76.754272,251.950745 76.465477,251.840973 76.056000,251.498871 
z"/>
<path fill="#FEFDD5" opacity="1.000000" stroke="none" 
	d="
M74.219772,251.571823 
	C74.127754,251.537842 74.500122,251.369064 74.685448,251.455338 
	C74.870773,251.541611 74.593208,251.633484 74.593208,251.633484 
	C74.593208,251.633484 74.311798,251.605804 74.219772,251.571823 
z"/>
<path fill="#EAD69D" opacity="1.000000" stroke="none" 
	d="
M85.942894,103.020760 
	C80.024269,91.309044 69.966187,83.442169 60.260876,75.214066 
	C55.161770,70.891068 49.752934,66.708679 47.585213,58.646751 
	C65.540985,66.452003 82.642052,73.885719 99.656296,81.852493 
	C98.923431,87.111427 101.344139,89.353462 105.526665,91.128616 
	C108.058998,92.203392 109.866684,94.985550 111.859932,97.318283 
	C112.146614,99.757126 112.573303,101.878304 112.605804,103.990723 
	C103.584671,100.128273 94.761963,101.624275 85.942894,103.020760 
z"/>
<path fill="#F7ECB1" opacity="1.000000" stroke="none" 
	d="
M194.395767,99.539612 
	C194.919647,96.592674 195.443527,93.645729 196.079681,90.067200 
	C180.265427,90.079025 164.870224,90.683853 149.325409,94.471863 
	C143.985092,89.338943 138.659805,84.889198 134.373932,79.597618 
	C130.931519,75.347404 128.748474,70.077187 126.006592,65.259598 
	C148.396164,72.513649 170.782974,79.776184 193.177017,87.016426 
	C199.632492,89.103546 200.183456,90.216232 197.764954,96.556465 
	C197.490677,97.275482 197.382797,98.057961 197.059387,99.294525 
	C196.933807,99.952095 196.946609,100.126152 196.959412,100.300217 
	C197.096191,100.079948 197.232971,99.859680 197.369751,99.639420 
	C198.478455,99.824593 199.587173,100.009758 200.871307,100.901260 
	C200.899460,103.315445 200.752167,105.023300 200.522797,107.683067 
	C198.659225,106.069740 197.661728,105.206184 196.523392,104.220703 
	C195.482666,105.575226 194.550613,106.788307 193.302383,108.412903 
	C190.657913,104.068909 187.695526,102.298683 182.980011,104.786606 
	C181.456177,105.590584 178.006210,106.159073 178.452332,102.112915 
	C184.063843,101.220131 189.229797,100.379875 194.395767,99.539612 
M198.573288,102.514923 
	C198.573288,102.514923 198.478149,102.568291 198.573288,102.514923 
z"/>
<path fill="#ECDAA2" opacity="1.000000" stroke="none" 
	d="
M111.999947,97.000610 
	C109.866684,94.985550 108.058998,92.203392 105.526665,91.128616 
	C101.344139,89.353462 98.923431,87.111427 99.843002,82.161644 
	C111.424477,86.726639 122.728386,91.525108 134.042480,96.299477 
	C138.230331,98.066681 142.649551,99.388481 144.635864,104.240601 
	C145.120422,105.424263 146.589462,106.553833 147.857986,107.015533 
	C168.513016,114.533188 189.120880,122.412697 211.708633,121.003517 
	C214.560593,120.825592 217.352081,119.678207 220.569077,119.161133 
	C220.973923,119.518280 220.981277,119.694260 220.988617,119.870239 
	C216.914566,121.914314 212.840515,123.958397 208.226746,125.720734 
	C206.842072,125.012772 206.004181,124.232750 205.151093,124.215775 
	C197.745911,124.068359 190.298981,124.525848 182.938812,123.912079 
	C166.181900,122.514709 150.729614,116.552261 135.788315,109.193443 
	C127.795883,105.257034 119.925438,101.072929 111.999947,97.000610 
z"/>
<path fill="#D3BF8F" opacity="1.000000" stroke="none" 
	d="
M52.954445,157.117020 
	C53.900166,159.118149 54.845882,161.119293 56.105339,163.784302 
	C56.594021,163.885986 57.954998,164.169220 59.828747,164.559143 
	C53.636810,167.044678 44.478657,156.896240 45.376652,149.472809 
	C52.088291,148.984024 58.809933,148.555252 65.520287,147.992004 
	C76.367958,147.081482 84.963692,140.457474 87.910995,131.183136 
	C102.369354,130.967300 116.102600,130.979279 129.835846,130.991241 
	C130.551102,134.058167 131.266357,137.125092 131.561401,140.595123 
	C121.669678,140.121353 112.205109,139.142929 102.717888,138.496887 
	C101.539032,138.416626 100.240028,140.100616 98.620712,140.969635 
	C97.492271,140.978088 96.739830,140.984024 95.572037,140.992584 
	C85.608032,142.325485 76.682137,145.319275 68.864342,151.103912 
	C66.461510,152.881836 64.277077,154.954926 61.992645,156.892853 
	C58.456192,159.132843 56.148357,156.843597 53.275169,154.286224 
	C51.134037,152.606415 49.526142,151.313156 47.918247,150.019882 
	C47.468891,150.529999 47.019535,151.040115 46.570179,151.550232 
	C48.698269,153.405823 50.826355,155.261429 52.954445,157.117020 
M93.723328,139.172607 
	C93.616249,139.025513 93.509171,138.878403 93.402092,138.731308 
	C93.422989,138.934158 93.443886,139.137024 93.723328,139.172607 
z"/>
<path fill="#DECA96" opacity="1.000000" stroke="none" 
	d="
M172.003708,134.824173 
	C160.965637,136.896927 150.161545,136.917374 140.124756,130.935715 
	C136.956863,129.047745 133.919830,126.940193 130.035217,124.963455 
	C123.226990,124.329193 117.201187,123.089371 111.187202,123.144249 
	C103.508675,123.214302 95.839699,124.329666 88.166603,124.994499 
	C88.119843,123.276848 88.073074,121.559204 88.476044,119.359344 
	C98.929832,115.667137 109.297470,115.335808 119.240898,117.796135 
	C135.761154,121.883766 151.996170,127.132614 168.311005,132.026825 
	C169.696899,132.442566 170.779968,133.867874 172.003708,134.824173 
z"/>
<path fill="#E3CF9A" opacity="1.000000" stroke="none" 
	d="
M172.406616,134.860107 
	C170.779968,133.867874 169.696899,132.442566 168.311005,132.026825 
	C151.996170,127.132614 135.761154,121.883766 119.240898,117.796135 
	C109.297470,115.335808 98.929832,115.667137 88.546310,118.934875 
	C88.119965,116.290810 88.073074,113.588997 88.542679,110.442856 
	C91.547096,109.963203 94.037300,109.842911 96.522499,109.909302 
	C102.722984,110.074936 109.203262,109.242729 115.061188,110.768837 
	C126.990082,113.876549 138.555511,118.360474 150.325684,122.104416 
	C156.115875,123.946198 162.028900,125.401634 167.885956,127.033295 
	C174.318909,128.825394 180.751404,130.619110 187.184097,132.412125 
	C182.392563,133.240097 177.601044,134.068069 172.406616,134.860107 
z"/>
<path fill="#CAB68A" opacity="1.000000" stroke="none" 
	d="
M98.996689,140.967102 
	C100.240028,140.100616 101.539032,138.416626 102.717888,138.496887 
	C112.205109,139.142929 121.669678,140.121353 131.556732,141.001831 
	C133.323593,143.095901 134.674881,145.186325 135.679749,147.624512 
	C132.412766,147.683624 129.495850,147.349564 126.570908,147.116302 
	C121.419533,146.705475 116.263260,146.356201 111.069862,145.637939 
	C110.908195,144.432877 110.785706,143.571030 110.663208,142.709183 
	C110.308052,142.728943 109.952888,142.748688 109.597725,142.768448 
	C109.682663,144.504440 109.767593,146.240417 109.413223,147.983398 
	C104.003853,148.313324 99.033775,148.636230 93.998566,148.652451 
	C93.599365,148.055374 93.265305,147.764999 92.931244,147.474609 
	C92.610855,148.313950 92.290466,149.153275 91.650452,149.934799 
	C90.681587,148.947647 90.032349,148.018311 89.686417,147.523132 
	C88.495102,148.340225 87.298096,149.161209 86.064972,149.608994 
	C85.935532,148.199722 85.842201,147.163681 85.748871,146.127625 
	C85.539093,146.142914 85.329323,146.158218 85.119553,146.173508 
	C85.035820,147.775101 84.952095,149.376678 84.572235,150.983948 
	C83.881203,150.987625 83.486298,150.985626 83.063492,150.637177 
	C82.959587,149.566238 82.883583,148.841721 82.807579,148.117218 
	C82.524239,148.124191 82.240906,148.131165 81.957565,148.138138 
	C81.957565,150.740051 81.957565,153.341949 81.957565,155.943848 
	C80.087883,156.675201 78.219833,158.012131 76.348190,158.017151 
	C71.869621,158.029205 67.389366,157.414368 62.451214,156.972733 
	C64.277077,154.954926 66.461510,152.881836 68.864342,151.103912 
	C76.682137,145.319275 85.608032,142.325485 95.576492,141.311401 
	C96.353996,142.180206 96.711708,142.732880 97.069412,143.285538 
	C97.711838,142.512726 98.354263,141.739914 98.996689,140.967102 
z"/>
<path fill="#C0AE85" opacity="1.000000" stroke="none" 
	d="
M111.109032,145.981140 
	C116.263260,146.356201 121.419533,146.705475 126.570908,147.116302 
	C129.495850,147.349564 132.412766,147.683624 135.800537,147.952087 
	C141.191223,152.502808 146.225266,156.662430 153.727814,155.330734 
	C156.580963,154.824310 158.054749,153.875641 158.211884,150.639923 
	C158.401215,146.741318 159.360458,142.880112 159.986404,139.002716 
	C160.417038,139.074921 160.847687,139.147125 161.278336,139.219330 
	C160.837814,147.503098 160.397308,155.786865 159.493652,164.533356 
	C156.954300,164.601425 154.847610,164.323547 152.807388,163.791046 
	C145.580872,161.905014 138.377045,159.931931 131.102295,157.633392 
	C130.666641,156.050613 130.293335,154.826263 129.920044,153.601898 
	C129.675934,153.661667 129.431824,153.721436 129.187729,153.781204 
	C129.068512,155.184692 128.949295,156.588165 128.412949,157.991547 
	C122.715340,157.656494 117.434868,157.321503 112.120857,156.622971 
	C111.761223,152.833328 111.435127,149.407242 111.109032,145.981140 
z"/>
<path fill="#E7D39C" opacity="1.000000" stroke="none" 
	d="
M187.570892,132.311172 
	C180.751404,130.619110 174.318909,128.825394 167.885956,127.033295 
	C162.028900,125.401634 156.115875,123.946198 150.325684,122.104416 
	C138.555511,118.360474 126.990082,113.876549 115.061188,110.768837 
	C109.203262,109.242729 102.722984,110.074936 96.522499,109.909302 
	C94.037300,109.842911 91.547096,109.963203 88.612854,109.997391 
	C87.446541,107.920647 86.726547,105.845039 85.974724,103.395096 
	C94.761963,101.624275 103.584671,100.128273 112.942543,104.140167 
	C124.440147,108.529007 135.230072,112.701653 145.967865,117.004433 
	C160.629211,122.879417 175.657486,127.130180 191.523956,128.087326 
	C193.083115,128.181396 194.570099,129.471741 196.090591,130.206848 
	C193.379623,130.874634 190.668655,131.542419 187.570892,132.311172 
z"/>
<path fill="#E7D39C" opacity="1.000000" stroke="none" 
	d="
M97.971809,78.089096 
	C82.705528,71.560112 67.437164,65.035980 52.185040,58.474079 
	C51.805222,58.310673 51.605007,57.729794 50.598595,56.361229 
	C63.958630,56.361229 76.533287,56.361229 89.561890,56.854324 
	C91.575577,61.934834 92.359779,67.047478 94.980148,70.916565 
	C96.603271,73.313164 98.345818,75.074219 97.971809,78.089096 
z"/>
<path fill="#B5A37E" opacity="1.000000" stroke="none" 
	d="
M164.470612,175.402023 
	C163.421844,172.422668 162.373062,169.443314 161.400894,166.681580 
	C169.221191,170.852097 176.605042,174.789871 184.336563,178.913040 
	C180.626663,180.522324 176.139694,182.468689 171.211197,184.192596 
	C167.525497,182.938477 164.313980,181.786133 161.031006,180.897797 
	C151.090729,178.208084 141.122772,175.620712 131.105988,172.552399 
	C131.085022,169.738159 131.123672,167.364960 131.590485,164.994385 
	C135.262955,165.468430 138.554092,165.733292 141.741577,166.455551 
	C147.805573,167.829636 153.810318,169.465179 159.839676,170.992157 
	C160.974854,172.636108 162.110031,174.280090 163.727707,176.249634 
	C164.631393,176.585358 165.052597,176.595520 165.473785,176.605682 
	C165.139404,176.204468 164.805008,175.803238 164.470612,175.402023 
z"/>
<path fill="#F6E8AD" opacity="1.000000" stroke="none" 
	d="
M178.006775,102.165451 
	C178.006210,106.159073 181.456177,105.590584 182.980011,104.786606 
	C187.695526,102.298683 190.657913,104.068909 193.302383,108.412903 
	C194.550613,106.788307 195.482666,105.575226 196.523392,104.220703 
	C197.661728,105.206184 198.659225,106.069740 200.522797,107.683067 
	C200.752167,105.023300 200.899460,103.315445 201.072845,101.174652 
	C206.277832,103.288574 211.456711,105.835434 216.472321,108.880226 
	C212.869812,109.918518 209.430588,110.458878 205.540222,110.999474 
	C200.547287,111.141121 195.949051,110.897583 191.482529,111.552437 
	C188.229691,112.029350 185.150696,113.691910 181.994186,114.825890 
	C180.572479,114.532875 179.150757,114.239853 177.367126,113.468338 
	C175.912720,108.012611 172.637390,109.091988 169.341690,110.227890 
	C168.412506,110.291794 167.483322,110.355690 166.275238,109.861481 
	C165.689804,108.671364 165.383255,108.039345 165.076691,107.407333 
	C164.392929,107.909988 163.709167,108.412651 163.025391,108.915298 
	C162.567917,108.926689 162.110428,108.938080 161.186096,108.696503 
	C160.503281,108.221848 160.243576,108.080650 159.940125,108.019936 
	C156.715164,106.980034 153.490204,105.940140 149.108093,104.527122 
	C154.690277,103.193604 158.955719,102.174637 163.611877,101.437332 
	C164.001709,102.077400 164.000793,102.435806 163.817032,103.064003 
	C167.766357,102.883255 171.898514,102.432724 176.017181,101.994843 
	C176.003662,102.007500 175.966797,102.011154 176.305389,102.057526 
	C177.098251,102.124413 177.552521,102.144928 178.006775,102.165451 
M189.323029,107.336945 
	C189.038315,107.621796 188.753601,107.906639 188.468887,108.191483 
	C188.983917,108.365356 189.498932,108.539223 190.013962,108.713089 
	C189.947449,108.324089 189.880936,107.935097 189.323029,107.336945 
M161.386520,104.536911 
	C160.863602,104.460526 160.340683,104.384140 159.817764,104.307762 
	C160.208588,104.491241 160.599411,104.674713 161.386520,104.536911 
z"/>
<path fill="#F2E1A7" opacity="1.000000" stroke="none" 
	d="
M105.096779,58.613781 
	C108.499710,59.707855 111.902649,60.801926 115.655426,62.417336 
	C116.487328,64.856873 116.508194,67.076546 117.530991,68.641289 
	C122.049271,75.553635 126.890274,82.254135 131.530884,89.088081 
	C132.533218,90.564148 133.189896,92.274918 134.005798,93.877579 
	C127.896805,91.280937 121.787819,88.684296 115.334579,85.581238 
	C114.397514,83.945717 113.753746,82.840111 113.220139,81.683678 
	C109.789696,74.249344 103.712456,67.743256 105.096779,58.613781 
z"/>
<path fill="#E9D69F" opacity="1.000000" stroke="none" 
	d="
M196.475372,130.154022 
	C194.570099,129.471741 193.083115,128.181396 191.523956,128.087326 
	C175.657486,127.130180 160.629211,122.879417 145.967865,117.004433 
	C135.230072,112.701653 124.440147,108.529007 113.336731,104.148926 
	C112.573303,101.878304 112.146614,99.757126 111.859932,97.318283 
	C119.925438,101.072929 127.795883,105.257034 135.788315,109.193443 
	C150.729614,116.552261 166.181900,122.514709 182.938812,123.912079 
	C190.298981,124.525848 197.745911,124.068359 205.151093,124.215775 
	C206.004181,124.232750 206.842072,125.012772 207.863220,125.769684 
	C204.313004,127.433983 200.586578,128.767578 196.475372,130.154022 
z"/>
<path fill="#B19F7C" opacity="1.000000" stroke="none" 
	d="
M131.165588,172.993454 
	C141.122772,175.620712 151.090729,178.208084 161.031006,180.897797 
	C164.313980,181.786133 167.525497,182.938477 170.883636,184.295197 
	C166.222046,186.658081 161.446503,188.695877 156.087524,190.541306 
	C147.720901,187.896790 139.937668,185.444641 132.096115,182.574219 
	C131.747055,179.101776 131.456314,176.047623 131.165588,172.993454 
z"/>
<path fill="#EEDCA2" opacity="1.000000" stroke="none" 
	d="
M104.826706,58.369186 
	C103.712456,67.743256 109.789696,74.249344 113.220139,81.683678 
	C113.753746,82.840111 114.397514,83.945717 115.000092,85.430252 
	C109.456825,83.419640 103.903824,81.053612 98.161316,78.388336 
	C98.345818,75.074219 96.603271,73.313164 94.980148,70.916565 
	C92.359779,67.047478 91.575577,61.934834 90.011734,56.987286 
	C94.857292,57.126301 99.706963,57.625446 104.826706,58.369186 
z"/>
<path fill="#F6E8AD" opacity="1.000000" stroke="none" 
	d="
M134.303497,94.061401 
	C133.189896,92.274918 132.533218,90.564148 131.530884,89.088081 
	C126.890274,82.254135 122.049271,75.553635 117.530991,68.641289 
	C116.508194,67.076546 116.487328,64.856873 116.005768,62.552357 
	C119.088028,63.121979 122.169792,64.077919 125.629074,65.146729 
	C128.748474,70.077187 130.931519,75.347404 134.373932,79.597618 
	C138.659805,84.889198 143.985092,89.338943 148.932175,94.474060 
	C144.174210,95.346870 139.272003,97.822144 134.303497,94.061401 
z"/>
<path fill="#AD9A79" opacity="1.000000" stroke="none" 
	d="
M132.154449,182.992477 
	C139.937668,185.444641 147.720901,187.896790 155.731262,190.592606 
	C150.020325,193.335526 144.132675,195.965210 138.126221,198.287628 
	C134.198074,199.806473 131.323288,198.478592 129.084183,194.688065 
	C126.412872,190.165878 123.134239,186.002426 120.374474,181.359879 
	C123.764442,182.024261 126.898628,183.012344 130.238449,184.265472 
	C131.089523,185.812408 131.734955,187.094284 132.380386,188.376175 
	C132.570663,188.312195 132.760925,188.248230 132.951202,188.184250 
	C132.685608,186.453659 132.420029,184.723068 132.154449,182.992477 
z"/>
<path fill="#DAC694" opacity="1.000000" stroke="none" 
	d="
M88.097992,125.413658 
	C95.839699,124.329666 103.508675,123.214302 111.187202,123.144249 
	C117.201187,123.089371 123.226990,124.329193 129.668091,125.014030 
	C130.045486,126.780663 130.002335,128.527039 129.897522,130.632324 
	C116.102600,130.979279 102.369354,130.967300 88.155350,130.926361 
	C87.792847,129.209198 87.911110,127.521011 88.097992,125.413658 
z"/>
<path fill="#E7D39C" opacity="1.000000" stroke="none" 
	d="
M109.237335,188.773911 
	C113.277267,195.182770 117.229431,201.234314 120.845070,207.480652 
	C124.512558,213.816574 133.253265,216.874710 139.613510,213.735672 
	C145.126770,211.014664 150.647446,208.308670 156.164825,205.596039 
	C156.397049,206.059387 156.629257,206.522720 156.861465,206.986053 
	C151.727631,209.545929 146.655624,212.240143 141.446915,214.637329 
	C131.018829,219.436615 122.818535,216.247711 117.959534,205.633270 
	C111.495995,191.513763 100.737274,182.220520 86.163651,177.161102 
	C84.531624,176.594528 82.957367,175.861526 80.559189,174.879181 
	C87.086067,173.511871 100.863365,180.469223 109.237335,188.773911 
z"/>
<path fill="#BBA881" opacity="1.000000" stroke="none" 
	d="
M159.899323,170.566452 
	C153.810318,169.465179 147.805573,167.829636 141.741577,166.455551 
	C138.554092,165.733292 135.262955,165.468430 131.531281,164.559906 
	C131.084167,162.079147 131.124390,160.035492 131.164627,157.991837 
	C138.377045,159.931931 145.580872,161.905014 152.807388,163.791046 
	C154.847610,164.323547 156.954300,164.601425 159.432205,164.993378 
	C159.875595,166.707352 159.917297,168.424042 159.899323,170.566452 
z"/>
<path fill="#B5A37E" opacity="1.000000" stroke="none" 
	d="
M110.969170,173.111618 
	C110.361420,172.623810 109.753677,172.136002 109.070572,170.956924 
	C109.311012,168.171509 109.626808,166.077362 110.386253,163.988617 
	C113.230858,164.968048 117.420036,161.644287 118.051956,167.300095 
	C118.840492,167.936493 119.583290,168.252731 120.326088,168.568970 
	C120.210686,168.033859 120.095284,167.498764 120.072411,166.600266 
	C123.053192,166.155060 125.941437,166.073242 128.894958,166.432236 
	C128.916809,169.246536 128.873398,171.620026 128.407913,173.995300 
	C123.279419,174.421936 118.572983,174.846802 113.866547,175.271667 
	C113.355965,175.003601 112.845383,174.735519 112.307755,173.917618 
	C112.417030,172.432648 112.553345,171.497528 112.689651,170.562393 
	C112.365883,170.494934 112.042122,170.427475 111.718353,170.360016 
	C111.468628,171.277222 111.218895,172.194412 110.969170,173.111618 
z"/>
<path fill="#C0AE85" opacity="1.000000" stroke="none" 
	d="
M94.063705,148.959137 
	C99.033775,148.636230 104.003853,148.313324 109.457916,148.367462 
	C109.608810,150.493851 109.275696,152.243164 108.615585,153.994873 
	C106.333260,153.950134 104.678604,152.427368 102.328537,154.238510 
	C100.242180,155.846405 97.004822,155.940201 94.294991,156.766190 
	C92.069374,157.444611 89.872345,158.216797 87.662636,158.947418 
	C87.315804,158.693329 86.968979,158.439255 86.318672,157.644882 
	C86.043823,154.730469 86.072456,152.356339 86.101089,149.982208 
	C87.298096,149.161209 88.495102,148.340225 89.686417,147.523132 
	C90.032349,148.018311 90.681587,148.947647 91.959030,149.913879 
	C93.079399,149.620239 93.571548,149.289688 94.063705,148.959137 
z"/>
<path fill="#B19F7C" opacity="1.000000" stroke="none" 
	d="
M119.021202,191.990952 
	C112.128250,183.618927 103.851715,176.933304 94.275993,171.163177 
	C95.328346,169.669128 96.450340,168.758240 97.572327,167.847351 
	C107.758286,173.392014 116.560555,180.508987 122.764755,190.648590 
	C121.331520,191.353653 120.176361,191.672302 119.021202,191.990952 
z"/>
<path fill="#F2E1A7" opacity="1.000000" stroke="none" 
	d="
M182.399078,114.922531 
	C185.150696,113.691910 188.229691,112.029350 191.482529,111.552437 
	C195.949051,110.897583 200.547287,111.141121 205.830200,111.300201 
	C211.095520,111.703232 215.619705,111.805763 220.143890,111.908295 
	C221.486191,112.634743 222.828506,113.361191 223.809662,114.468086 
	C217.524658,114.891335 211.600784,114.934143 205.404907,114.968384 
	C204.731232,115.116745 204.329575,115.273682 203.927917,115.430618 
	C204.949402,115.357109 205.970886,115.283615 207.435852,115.180466 
	C210.378098,116.130684 213.905075,112.715614 215.353714,116.953888 
	C214.396332,117.234825 213.723923,117.527969 213.051529,117.821121 
	C211.320099,117.937981 209.588669,118.054848 207.220078,117.835678 
	C205.954651,117.379898 205.326370,117.260162 204.698105,117.140411 
	C202.409927,117.132111 200.121735,117.123810 197.187714,116.788780 
	C195.904236,116.364304 195.266571,116.266556 194.628922,116.168823 
	C190.687271,115.785606 186.745621,115.402382 182.399078,114.922531 
z"/>
<path fill="#BBA881" opacity="1.000000" stroke="none" 
	d="
M87.739716,159.270355 
	C89.872345,158.216797 92.069374,157.444611 94.294991,156.766190 
	C97.004822,155.940201 100.242180,155.846405 102.328537,154.238510 
	C104.678604,152.427368 106.333260,153.950134 108.638809,154.438751 
	C108.946106,157.247391 108.903160,159.614532 108.487030,161.989807 
	C105.741524,163.336563 103.369209,164.675201 100.996895,166.013840 
	C96.603531,163.873657 92.210167,161.733475 87.739716,159.270355 
z"/>
<path fill="#BBA881" opacity="1.000000" stroke="none" 
	d="
M97.358589,167.542847 
	C96.450340,168.758240 95.328346,169.669128 94.049454,170.914093 
	C84.341156,166.881622 74.278702,165.402771 63.403221,165.561188 
	C62.952110,164.851639 62.958447,164.514008 62.964783,164.176392 
	C66.454437,164.112732 69.948563,164.135193 73.432137,163.954453 
	C75.669632,163.838348 78.418442,165.083847 79.633041,161.581940 
	C79.834587,161.000839 82.568764,160.690781 83.766144,161.170349 
	C88.307335,162.989243 92.697937,165.184097 97.358589,167.542847 
z"/>
<path fill="#A89676" opacity="1.000000" stroke="none" 
	d="
M119.124870,192.319580 
	C120.176361,191.672302 121.331520,191.353653 122.849663,190.992233 
	C124.457367,192.669891 125.679001,194.407654 126.954842,196.104645 
	C127.816559,197.250824 128.532394,198.797485 129.701752,199.365112 
	C132.776062,200.857361 135.658630,202.227814 135.446854,206.365677 
	C135.438354,206.531616 136.561111,206.755447 137.635849,207.047424 
	C138.114914,207.142548 138.278763,207.362961 138.278763,207.362961 
	C136.560547,207.477371 134.549271,208.229706 133.173920,207.597839 
	C126.550606,204.554962 122.552155,198.874802 119.124870,192.319580 
z"/>
<path fill="#B19F7C" opacity="1.000000" stroke="none" 
	d="
M114.055130,175.556610 
	C118.572983,174.846802 123.279419,174.421936 128.488800,174.401337 
	C129.338776,177.870544 129.685806,180.935486 130.032822,184.000427 
	C126.898628,183.012344 123.764442,182.024261 120.242638,181.040344 
	C117.984589,179.310196 116.114151,177.575882 114.055130,175.556610 
z"/>
<path fill="#F7ECB1" opacity="1.000000" stroke="none" 
	d="
M163.999878,102.794212 
	C164.000793,102.435806 164.001709,102.077400 164.002975,101.450188 
	C172.460068,100.125397 180.910706,99.015152 189.379028,98.062111 
	C190.954041,97.884857 192.600189,98.339836 193.679962,99.146896 
	C187.419876,100.530884 181.693344,101.271019 175.966797,102.011154 
	C175.966797,102.011154 176.003662,102.007500 175.567841,101.993256 
	C171.421295,102.250748 167.710587,102.522484 163.999878,102.794212 
z"/>
<path fill="#87775E" opacity="1.000000" stroke="none" 
	d="
M108.860214,161.981674 
	C108.903160,159.614532 108.946106,157.247391 108.965820,154.436371 
	C109.275696,152.243164 109.608810,150.493851 109.897217,148.360474 
	C109.767593,146.240417 109.682663,144.504440 109.597725,142.768448 
	C109.952888,142.748688 110.308052,142.728943 110.663208,142.709183 
	C110.785706,143.571030 110.908195,144.432877 111.069862,145.637939 
	C111.435127,149.407242 111.761223,152.833328 111.941742,156.947891 
	C111.178307,159.751968 110.560455,161.867584 109.942604,163.983200 
	C109.626808,166.077362 109.311012,168.171509 108.945755,170.688629 
	C108.345108,170.943237 107.793915,170.774872 107.362526,170.107849 
	C107.941620,167.066696 108.400917,164.524185 108.860214,161.981674 
z"/>
<path fill="#423A34" opacity="1.000000" stroke="none" 
	d="
M40.970886,157.274246 
	C40.388012,154.003708 40.011856,150.742828 40.044380,147.486023 
	C40.089272,142.991135 41.452583,142.301895 47.564907,144.388672 
	C41.512325,144.564072 41.788654,147.967239 41.950245,151.503464 
	C42.037724,153.417892 41.574589,155.357483 40.970886,157.274246 
z"/>
<path fill="#B5A37E" opacity="1.000000" stroke="none" 
	d="
M108.487022,161.989807 
	C108.400917,164.524185 107.941620,167.066696 107.190300,169.872681 
	C105.053467,168.943558 103.208672,167.750946 101.180389,166.286087 
	C103.369209,164.675201 105.741524,163.336563 108.487022,161.989807 
z"/>
<path fill="#A89676" opacity="1.000000" stroke="none" 
	d="
M70.451660,172.032394 
	C65.161407,172.447739 59.879875,172.447739 54.598347,172.447739 
	C54.587257,172.170837 54.576164,171.893951 54.565075,171.617050 
	C59.863510,171.617050 65.161949,171.617050 70.451660,172.032394 
z"/>
<path fill="#CAB68A" opacity="1.000000" stroke="none" 
	d="
M220.034119,111.601257 
	C215.619705,111.805763 211.095520,111.703232 206.281342,111.299973 
	C209.430588,110.458878 212.869812,109.918518 216.670670,109.185326 
	C217.996307,109.759735 218.960312,110.526978 220.034119,111.601257 
z"/>
<path fill="#423A34" opacity="1.000000" stroke="none" 
	d="
M192.105850,176.637909 
	C192.449112,178.358566 192.732132,179.691833 193.015137,181.025085 
	C192.572540,181.284409 192.129959,181.543732 191.687363,181.803055 
	C191.061203,176.598526 189.252625,172.553116 183.576050,172.048630 
	C186.694473,173.052399 191.779068,169.619644 192.105850,176.637909 
z"/>
<path fill="#C0AE85" opacity="1.000000" stroke="none" 
	d="
M205.676926,114.976944 
	C211.600784,114.934143 217.524658,114.891335 223.898575,114.795021 
	C224.348633,114.741508 224.300339,114.787971 224.039642,115.122894 
	C222.166260,115.994102 220.553558,116.530373 218.940872,117.066650 
	C218.615875,117.173157 218.290878,117.279663 217.282120,117.221107 
	C216.278473,117.026070 215.958588,116.996086 215.638702,116.966103 
	C213.905075,112.715614 210.378098,116.130684 207.110626,115.102097 
	C206.120270,115.027901 205.898590,115.002419 205.676926,114.976944 
z"/>
<path fill="#F2E1A7" opacity="1.000000" stroke="none" 
	d="
M169.447571,110.593346 
	C172.637390,109.091988 175.912720,108.012611 177.009613,113.361679 
	C174.527176,112.808601 172.040314,111.883705 169.447571,110.593346 
z"/>
<path fill="#A89676" opacity="1.000000" stroke="none" 
	d="
M138.028198,207.036072 
	C142.271957,204.883286 146.602432,202.836975 151.413651,200.838562 
	C151.894394,200.886459 152.138168,201.149002 152.138168,201.149002 
	C147.749969,203.162262 143.361786,205.175522 138.626175,207.275879 
	C138.278763,207.362961 138.114914,207.142548 138.028198,207.036072 
z"/>
<path fill="#A89676" opacity="1.000000" stroke="none" 
	d="
M176.091675,190.096191 
	C172.018555,192.090622 167.945419,194.085052 163.381104,195.970139 
	C162.889923,195.860794 162.649490,195.556625 162.649490,195.556625 
	C166.748596,193.631332 170.847717,191.706039 175.413818,189.823456 
	C175.880814,189.866135 176.091675,190.096191 176.091675,190.096191 
z"/>
<path fill="#AD9A79" opacity="1.000000" stroke="none" 
	d="
M176.305389,102.057526 
	C181.693344,101.271019 187.419876,100.530884 193.701233,99.640808 
	C194.256058,99.490860 194.309174,99.533081 194.352478,99.536346 
	C189.229797,100.379875 184.063843,101.220131 178.452332,102.112915 
	C177.552521,102.144928 177.098251,102.124413 176.305389,102.057526 
z"/>
<path fill="#423A34" opacity="1.000000" stroke="none" 
	d="
M52.982460,156.651657 
	C50.826355,155.261429 48.698269,153.405823 46.570179,151.550232 
	C47.019535,151.040115 47.468891,150.529999 47.918247,150.019882 
	C49.526142,151.313156 51.134037,152.606415 52.954903,154.111877 
	C53.115406,154.944824 53.062943,155.565552 52.982460,156.651657 
z"/>
<path fill="#C0AE85" opacity="1.000000" stroke="none" 
	d="
M83.091400,150.983627 
	C83.486298,150.985626 83.881203,150.987625 84.617699,151.438568 
	C85.136955,154.032608 85.314613,156.177719 85.492279,158.322815 
	C83.427979,160.108963 82.860313,158.865921 82.759583,156.168182 
	C82.948257,153.942261 83.019829,152.462936 83.091400,150.983627 
z"/>
<path fill="#A89676" opacity="1.000000" stroke="none" 
	d="
M151.773544,200.754242 
	C154.422226,199.343582 157.191742,198.065155 160.424194,196.830795 
	C160.887131,196.874863 161.096893,197.101883 161.096893,197.101883 
	C158.351028,198.423431 155.605179,199.744980 152.498749,201.107758 
	C152.138168,201.149002 151.894394,200.886459 151.773544,200.754242 
z"/>
<path fill="#87775E" opacity="1.000000" stroke="none" 
	d="
M85.633652,158.260803 
	C85.314613,156.177719 85.136955,154.032608 84.913834,151.432892 
	C84.952095,149.376678 85.035820,147.775101 85.119553,146.173508 
	C85.329323,146.158218 85.539093,146.142914 85.748871,146.127625 
	C85.842201,147.163681 85.935532,148.199722 86.064972,149.608994 
	C86.072456,152.356339 86.043823,154.730469 86.010063,157.548676 
	C86.004929,157.992752 85.775024,158.198807 85.633652,158.260803 
z"/>
<path fill="#87775E" opacity="1.000000" stroke="none" 
	d="
M83.063492,150.637177 
	C83.019829,152.462936 82.948257,153.942261 82.742523,155.851501 
	C82.608368,156.281448 82.258057,156.160980 82.107811,156.052414 
	C81.957565,153.341949 81.957565,150.740051 81.957565,148.138138 
	C82.240906,148.131165 82.524239,148.124191 82.807579,148.117218 
	C82.883583,148.841721 82.959587,149.566238 83.063492,150.637177 
z"/>
<path fill="#F2E1A7" opacity="1.000000" stroke="none" 
	d="
M219.330704,117.060089 
	C220.553558,116.530373 222.166260,115.994102 224.008133,115.134262 
	C224.422928,115.546715 224.608521,116.282730 224.137802,116.999374 
	C223.006714,116.979103 222.531937,116.978195 222.057159,116.977287 
	C221.278290,117.002693 220.499405,117.028107 219.330704,117.060089 
z"/>
<path fill="#E3CF9A" opacity="1.000000" stroke="none" 
	d="
M215.353714,116.953888 
	C215.958588,116.996086 216.278473,117.026070 217.080292,117.051521 
	C216.225449,117.463402 214.888687,117.879807 213.301727,118.058662 
	C213.723923,117.527969 214.396332,117.234825 215.353714,116.953888 
z"/>
<path fill="#F2E1A7" opacity="1.000000" stroke="none" 
	d="
M163.276611,109.133362 
	C163.709167,108.412651 164.392929,107.909988 165.076691,107.407333 
	C165.383255,108.039345 165.689804,108.671364 166.005310,109.630852 
	C165.185440,109.756020 164.356644,109.553719 163.276611,109.133362 
z"/>
<path fill="#B19F7C" opacity="1.000000" stroke="none" 
	d="
M111.064087,173.337036 
	C111.218895,172.194412 111.468628,171.277222 111.718353,170.360016 
	C112.042122,170.427475 112.365883,170.494934 112.689651,170.562393 
	C112.553345,171.497528 112.417030,172.432648 112.144302,173.676697 
	C111.653374,173.988052 111.370415,173.847000 111.064087,173.337036 
z"/>
<path fill="#E3CF9A" opacity="1.000000" stroke="none" 
	d="
M222.074219,117.268700 
	C222.531937,116.978195 223.006714,116.979103 223.834213,117.033890 
	C223.331406,117.997108 222.475876,118.906441 221.304489,119.843002 
	C220.981277,119.694260 220.973923,119.518280 220.956421,119.078262 
	C221.327927,118.396194 221.709595,117.978157 222.074219,117.268700 
z"/>
<path fill="#423A34" opacity="1.000000" stroke="none" 
	d="
M185.350677,182.067719 
	C185.683823,182.572250 185.820908,183.231934 185.958008,183.891617 
	C185.746460,183.928024 185.534912,183.964417 185.323364,184.000809 
	C185.267120,183.408173 185.210861,182.815521 185.350677,182.067719 
z"/>
<path fill="#D3BF8F" opacity="1.000000" stroke="none" 
	d="
M62.581024,164.137970 
	C62.958447,164.514008 62.952110,164.851639 62.946785,165.442398 
	C62.209572,165.383728 61.471348,165.071899 60.733124,164.760071 
	C61.221172,164.539902 61.709221,164.319733 62.581024,164.137970 
z"/>
<path fill="#E3CF9A" opacity="1.000000" stroke="none" 
	d="
M194.724838,116.391510 
	C195.266571,116.266556 195.904236,116.364304 196.762970,116.708168 
	C196.262955,116.840927 195.541855,116.727562 194.724838,116.391510 
z"/>
<path fill="#E3CF9A" opacity="1.000000" stroke="none" 
	d="
M204.810257,117.352074 
	C205.326370,117.260162 205.954651,117.379898 206.792496,117.753723 
	C206.308853,117.859787 205.615631,117.711761 204.810257,117.352074 
z"/>
<path fill="#423A34" opacity="1.000000" stroke="none" 
	d="
M180.141708,187.878326 
	C180.033768,188.178452 179.781784,188.336731 179.529785,188.494995 
	C179.685745,188.242157 179.841705,187.989304 180.141708,187.878326 
z"/>
<path fill="#A89676" opacity="1.000000" stroke="none" 
	d="
M160.783264,196.760406 
	C161.161453,196.352173 161.643478,196.058395 162.387512,195.660614 
	C162.649490,195.556625 162.889923,195.860794 163.014008,196.010803 
	C162.654556,196.451797 162.171051,196.742798 161.392212,197.067841 
	C161.096893,197.101883 160.887131,196.874863 160.783264,196.760406 
z"/>
<path fill="#A89676" opacity="1.000000" stroke="none" 
	d="
M175.777069,189.749573 
	C176.252563,189.499863 176.831787,189.366699 177.411011,189.233521 
	C177.163620,189.498672 176.916214,189.763809 176.380249,190.062561 
	C176.091675,190.096191 175.880814,189.866135 175.777069,189.749573 
z"/>
<path fill="#F2E1A7" opacity="1.000000" stroke="none" 
	d="
M160.011566,108.269524 
	C160.243576,108.080650 160.503281,108.221848 160.849609,108.626167 
	C160.681000,108.712242 160.382019,108.615677 160.011566,108.269524 
z"/>
<path fill="#F6E8AD" opacity="1.000000" stroke="none" 
	d="
M198.525726,102.541611 
	C198.478149,102.568291 198.573288,102.514923 198.525726,102.541611 
z"/>
<path fill="#F6E8AD" opacity="1.000000" stroke="none" 
	d="
M197.326599,99.635925 
	C197.232971,99.859680 197.096191,100.079948 196.959412,100.300217 
	C196.946609,100.126152 196.933807,99.952095 197.092438,99.663086 
	C197.263870,99.548126 197.283463,99.632439 197.326599,99.635925 
z"/>
<path fill="#C0AE85" opacity="1.000000" stroke="none" 
	d="
M98.620705,140.969635 
	C98.354263,141.739914 97.711838,142.512726 97.069412,143.285538 
	C96.711708,142.732880 96.353996,142.180206 95.991837,141.308746 
	C96.739830,140.984024 97.492271,140.978088 98.620705,140.969635 
z"/>
<path fill="#CAB68A" opacity="1.000000" stroke="none" 
	d="
M93.594055,139.256241 
	C93.443886,139.137024 93.422989,138.934158 93.402092,138.731308 
	C93.509171,138.878403 93.616249,139.025513 93.594055,139.256241 
z"/>
<path fill="#BBA881" opacity="1.000000" stroke="none" 
	d="
M93.998566,148.652451 
	C93.571548,149.289688 93.079399,149.620239 92.278656,149.971710 
	C92.290466,149.153275 92.610855,148.313950 92.931244,147.474609 
	C93.265305,147.764999 93.599365,148.055374 93.998566,148.652451 
z"/>
<path fill="#BBA881" opacity="1.000000" stroke="none" 
	d="
M110.386253,163.988617 
	C110.560455,161.867584 111.178307,159.751968 111.975281,157.311432 
	C117.434868,157.321503 122.715340,157.656494 128.478729,158.432205 
	C128.917664,161.245773 128.873672,163.618607 128.829681,165.991440 
	C125.941437,166.073242 123.053192,166.155060 119.743744,166.608398 
	C118.883759,166.979904 118.444992,166.979919 118.006218,166.979935 
	C117.420036,161.644287 113.230858,164.968048 110.386253,163.988617 
M116.362671,160.633530 
	C116.481316,160.866592 116.599968,161.099655 116.718620,161.332718 
	C116.930206,161.126190 117.141785,160.919647 117.353355,160.713120 
	C117.123215,160.588577 116.893066,160.464035 116.362671,160.633530 
z"/>
<path fill="#423A34" opacity="1.000000" stroke="none" 
	d="
M128.894958,166.432236 
	C128.873672,163.618607 128.917664,161.245773 128.895874,158.432281 
	C128.949295,156.588165 129.068512,155.184692 129.187729,153.781204 
	C129.431824,153.721436 129.675934,153.661667 129.920044,153.601898 
	C130.293335,154.826263 130.666641,156.050613 131.102295,157.633392 
	C131.124390,160.035492 131.084167,162.079147 131.103134,164.557281 
	C131.123672,167.364960 131.085022,169.738159 131.105988,172.552399 
	C131.456314,176.047623 131.747055,179.101776 132.096115,182.574219 
	C132.420029,184.723068 132.685608,186.453659 132.951202,188.184250 
	C132.760925,188.248230 132.570663,188.312195 132.380386,188.376175 
	C131.734955,187.094284 131.089523,185.812408 130.238449,184.265472 
	C129.685806,180.935486 129.338776,177.870544 128.910858,174.399567 
	C128.873398,171.620026 128.916809,169.246536 128.894958,166.432236 
z"/>
<path fill="#3F3832" opacity="1.000000" stroke="none" 
	d="
M164.333069,175.568481 
	C164.805008,175.803238 165.139404,176.204468 165.473785,176.605682 
	C165.052597,176.595520 164.631393,176.585358 164.072906,176.327530 
	C163.935593,176.079865 164.195511,175.734955 164.333069,175.568481 
z"/>
<path fill="#AD9A79" opacity="1.000000" stroke="none" 
	d="
M163.817032,103.064003 
	C167.710587,102.522484 171.421295,102.250748 175.581345,101.980606 
	C171.898514,102.432724 167.766357,102.883255 163.817032,103.064003 
z"/>
<path fill="#F2E1A7" opacity="1.000000" stroke="none" 
	d="
M189.568726,107.441521 
	C189.880936,107.935097 189.947449,108.324089 190.013962,108.713089 
	C189.498932,108.539223 188.983917,108.365356 188.468887,108.191483 
	C188.753601,107.906639 189.038315,107.621796 189.568726,107.441521 
z"/>
<path fill="#AD9A79" opacity="1.000000" stroke="none" 
	d="
M161.188385,104.697548 
	C160.599411,104.674713 160.208588,104.491241 159.817764,104.307755 
	C160.340683,104.384140 160.863602,104.460526 161.188385,104.697548 
z"/>
<path fill="#B19F7C" opacity="1.000000" stroke="none" 
	d="
M118.051956,167.300095 
	C118.444992,166.979919 118.883759,166.979904 119.651199,166.971771 
	C120.095284,167.498764 120.210686,168.033859 120.326088,168.568970 
	C119.583290,168.252731 118.840492,167.936493 118.051956,167.300095 
z"/>
<path fill="#E3CF9A" opacity="1.000000" stroke="none" 
	d="
M205.404907,114.968376 
	C205.898590,115.002419 206.120270,115.027901 206.667145,115.131752 
	C205.970886,115.283615 204.949402,115.357109 203.927917,115.430618 
	C204.329575,115.273682 204.731232,115.116745 205.404907,114.968376 
z"/>
<path fill="#B5A37E" opacity="1.000000" stroke="none" 
	d="
M116.512794,160.486511 
	C116.893066,160.464035 117.123215,160.588577 117.353363,160.713104 
	C117.141785,160.919647 116.930206,161.126190 116.718613,161.332718 
	C116.599968,161.099655 116.481316,160.866592 116.512794,160.486511 
z"/>
</svg>