<svg version="1.1" id="Layer_1" xmlns="http://www.w3.org/2000/svg" xmlns:xlink="http://www.w3.org/1999/xlink" x="0px" y="0px"
	 width="100%" viewBox="0 0 256 256" enable-background="new 0 0 256 256" xml:space="preserve">
<path fill="#FEFDD5" opacity="1.000000" stroke="none" 
	d="
M74.000000,257.000000 
	C49.730194,257.000000 25.460390,257.000000 1.000000,257.000000 
	C1.000000,225.646027 1.000000,194.291672 1.375010,162.469421 
	C3.661534,162.335526 5.573048,162.669540 7.587145,163.461945 
	C7.689728,192.983704 7.689728,222.047058 7.689728,251.265320 
	C11.212268,251.265320 13.873296,251.255676 16.534235,251.266876 
	C35.687340,251.347519 54.840427,251.432373 73.777267,251.753235 
	C73.707336,253.660355 73.853668,255.330185 74.000000,257.000000 
z"/>
<path fill="#FEFDD5" opacity="1.000000" stroke="none" 
	d="
M1.000000,7.000000 
	C1.000000,5.008290 1.000000,3.016581 1.000000,1.000000 
	C34.020889,1.000000 67.041786,1.000000 100.521797,1.397875 
	C100.814606,5.227743 98.818939,6.032493 95.669075,6.035370 
	C87.446022,6.042883 79.223228,6.341667 70.540802,6.623199 
	C51.038391,6.727370 31.995356,6.698750 12.952922,6.792470 
	C11.129789,6.801443 9.310411,7.573007 7.128162,7.971328 
	C4.844690,7.634736 2.922345,7.317368 1.000000,7.000000 
z"/>
<path fill="#F1E5B7" opacity="1.000000" stroke="none" 
	d="
M1.000000,120.000000 
	C1.000000,94.645775 1.000000,69.291542 1.375377,43.468227 
	C3.665325,43.328888 5.579896,43.658634 7.605540,44.445732 
	C7.806482,63.601681 7.896350,82.300278 7.892413,101.459351 
	C7.698110,107.948448 7.597612,113.977066 7.093695,120.008072 
	C4.793517,120.006966 2.896758,120.003487 1.000000,120.000000 
z"/>
<path fill="#FCF8CD" opacity="1.000000" stroke="none" 
	d="
M251.000000,1.000000 
	C252.991943,1.000000 254.983887,1.000000 257.000000,1.000000 
	C257.000000,35.020889 257.000000,69.041786 256.625092,103.531097 
	C255.001663,103.995758 253.753159,103.992012 252.417908,103.527328 
	C252.305191,72.709694 252.300735,42.352917 252.200104,11.996455 
	C252.194031,10.164233 251.421921,8.334550 251.006073,6.111767 
	C251.003906,4.146566 251.001953,2.573283 251.000000,1.000000 
z"/>
<path fill="#F1E5B7" opacity="1.000000" stroke="none" 
	d="
M252.504639,103.988258 
	C253.753159,103.992012 255.001663,103.995758 256.625092,103.999756 
	C257.000000,132.354233 257.000000,160.708450 256.625000,189.529114 
	C255.001221,190.000641 253.752396,190.005753 252.388733,189.554321 
	C252.189133,177.398132 252.104370,165.698471 252.127228,153.540649 
	C252.157425,142.054932 252.080032,131.027390 252.106842,119.542572 
	C252.308914,114.052956 252.406769,109.020607 252.504639,103.988258 
z"/>
<path fill="#FBF8C2" opacity="1.000000" stroke="none" 
	d="
M252.503586,190.010864 
	C253.752396,190.005753 255.001221,190.000641 256.625000,189.997772 
	C257.000000,212.333405 257.000000,234.666809 257.000000,257.000000 
	C252.566681,257.000000 248.257462,257.000000 243.473404,256.595764 
	C243.017380,254.855881 243.036209,253.520218 243.235870,252.101837 
	C243.655624,251.892075 243.853470,251.718262 244.464386,251.404739 
	C247.203781,251.311798 249.489044,251.311798 252.503586,251.311798 
	C252.503586,230.542145 252.503586,210.276505 252.503586,190.010864 
z"/>
<path fill="#FBF8C2" opacity="1.000000" stroke="none" 
	d="
M7.494466,43.988380 
	C5.579896,43.658634 3.665325,43.328888 1.375377,42.999569 
	C1.000000,31.312439 1.000000,19.624876 1.000000,7.468657 
	C2.922345,7.317368 4.844690,7.634736 7.237983,8.428822 
	C7.637442,20.599821 7.565954,32.294102 7.494466,43.988380 
z"/>
<path fill="#E7D8B0" opacity="1.000000" stroke="none" 
	d="
M186.000000,0.999999 
	C194.687561,1.000000 203.375137,1.000000 212.529572,1.395924 
	C213.001068,3.371700 213.005692,4.951552 212.552338,6.639272 
	C203.074677,6.686176 194.054977,6.625212 185.044220,6.209683 
	C185.368774,4.236745 185.684387,2.618372 186.000000,0.999999 
z"/>
<path fill="#FCF8CD" opacity="1.000000" stroke="none" 
	d="
M7.484561,163.003540 
	C5.573048,162.669540 3.661534,162.335526 1.375010,162.000763 
	C1.000000,154.645752 1.000000,147.291504 1.408043,139.469513 
	C3.705819,139.003723 5.595552,139.005661 7.579249,139.466263 
	C7.777630,145.283066 7.882046,150.641205 7.884792,156.429047 
	C7.683602,158.907013 7.584082,160.955276 7.484561,163.003540 
z"/>
<path fill="#B4A888" opacity="1.000000" stroke="none" 
	d="
M175.000000,257.000000 
	C166.312439,257.000000 157.624863,257.000000 148.471390,256.605225 
	C147.993607,254.635452 147.981750,253.060440 148.387512,251.367767 
	C150.537842,251.155441 152.270523,251.060791 154.466980,251.038055 
	C161.630646,251.232956 168.330536,251.355972 175.026764,251.872223 
	C175.015381,253.843628 175.007690,255.421814 175.000000,257.000000 
z"/>
<path fill="#E7D8B0" opacity="1.000000" stroke="none" 
	d="
M143.000000,1.000000 
	C151.020905,1.000000 159.041809,1.000000 167.580353,1.352930 
	C168.387344,3.322199 168.676697,4.938538 168.504852,6.629313 
	C159.692520,6.639472 151.341431,6.575194 142.987396,6.118468 
	C142.989639,4.150679 142.994827,2.575340 143.000000,1.000000 
z"/>
<path fill="#F7EAC2" opacity="1.000000" stroke="none" 
	d="
M7.485285,139.007599 
	C5.595552,139.005661 3.705819,139.003723 1.408043,139.000885 
	C1.000000,132.978851 1.000000,126.957695 1.000000,120.468277 
	C2.896758,120.003487 4.793517,120.006966 7.191199,120.466919 
	C7.623177,126.951462 7.554231,132.979538 7.485285,139.007599 
z"/>
<path fill="#FCF8CD" opacity="1.000000" stroke="none" 
	d="
M71.000336,6.524302 
	C79.223228,6.341667 87.446022,6.042883 95.669075,6.035370 
	C98.818939,6.032493 100.814606,5.227743 100.990456,1.397875 
	C106.022095,1.000000 111.044182,1.000000 116.532188,1.393804 
	C116.996956,3.358687 116.995819,4.929766 116.534981,6.596598 
	C101.050301,6.636333 86.025314,6.580318 71.000336,6.524302 
z"/>
<path fill="#FBF8C2" opacity="1.000000" stroke="none" 
	d="
M250.531464,1.000000 
	C251.001953,2.573283 251.003906,4.146566 250.548080,6.217546 
	C243.397568,6.649315 236.704849,6.583387 230.015778,6.124523 
	C230.012939,4.154392 230.006470,2.577196 230.000000,1.000000 
	C236.687637,1.000000 243.375290,1.000000 250.531464,1.000000 
z"/>
<path fill="#CAC09D" opacity="1.000000" stroke="none" 
	d="
M147.969879,251.485443 
	C147.981750,253.060440 147.993607,254.635452 148.002747,256.605225 
	C141.645599,257.000000 135.291214,257.000000 128.473724,256.643158 
	C128.339478,254.686462 128.668335,253.086594 129.455902,251.386902 
	C135.933044,251.353195 141.951462,251.419312 147.969879,251.485443 
z"/>
<path fill="#D4C091" opacity="1.000000" stroke="none" 
	d="
M175.468414,257.000000 
	C175.007690,255.421814 175.015381,253.843628 175.487579,251.794800 
	C181.971695,251.383362 187.991318,251.442596 194.028656,251.851593 
	C194.364243,253.800919 194.682129,255.400452 195.000000,257.000000 
	C188.645599,257.000000 182.291214,257.000000 175.468414,257.000000 
z"/>
<path fill="#E7D8B0" opacity="1.000000" stroke="none" 
	d="
M116.000000,257.000000 
	C110.645073,257.000000 105.290138,257.000000 99.469299,256.605835 
	C98.999611,254.639084 98.995827,253.066498 99.318794,251.379120 
	C100.096848,251.174255 100.548149,251.084198 101.456024,251.096954 
	C106.600365,251.297775 111.288139,251.395782 115.974854,251.885941 
	C115.982536,253.852051 115.991264,255.426025 116.000000,257.000000 
z"/>
<path fill="#F1E5B7" opacity="1.000000" stroke="none" 
	d="
M229.532394,1.000000 
	C230.006470,2.577196 230.012939,4.154392 229.559784,6.237022 
	C223.736862,6.672106 218.373581,6.601755 213.010300,6.531404 
	C213.005692,4.951552 213.001068,3.371700 212.998230,1.395924 
	C218.354935,1.000000 223.709854,1.000000 229.532394,1.000000 
z"/>
<path fill="#CAC09D" opacity="1.000000" stroke="none" 
	d="
M168.966064,6.554876 
	C168.676697,4.938538 168.387344,3.322199 168.048981,1.352930 
	C173.688034,1.000000 179.376083,1.000000 185.532059,0.999999 
	C185.684387,2.618372 185.368774,4.236745 184.588196,6.327217 
	C179.070847,6.717835 174.018463,6.636356 168.966064,6.554876 
z"/>
<path fill="#F1E5B7" opacity="1.000000" stroke="none" 
	d="
M244.010239,251.497681 
	C243.853470,251.718262 243.655624,251.892075 242.767761,252.050690 
	C239.677200,252.067581 237.208878,252.276199 234.799988,251.987930 
	C230.779678,251.506821 229.479050,253.298798 230.000000,257.000000 
	C225.974823,257.000000 221.949631,257.000000 217.463531,256.607269 
	C217.004425,254.647888 217.006210,253.081253 217.468018,251.422485 
	C226.622101,251.386139 235.316162,251.441910 244.010239,251.497681 
z"/>
<path fill="#F7EAC2" opacity="1.000000" stroke="none" 
	d="
M74.466858,257.000000 
	C73.853668,255.330185 73.707336,253.660355 74.011894,251.647339 
	C74.632614,251.328674 74.802444,251.353210 75.067291,251.529022 
	C75.451027,251.580200 75.739746,251.480118 76.275795,251.339859 
	C76.680397,251.355988 76.837669,251.412292 77.363426,251.642914 
	C80.194679,251.888733 82.686981,252.232971 85.113525,251.970154 
	C89.123756,251.535782 90.568336,253.188049 90.000000,257.000000 
	C84.977905,257.000000 79.955818,257.000000 74.466858,257.000000 
z"/>
<path fill="#F7EAC2" opacity="1.000000" stroke="none" 
	d="
M116.994682,6.500846 
	C116.995819,4.929766 116.996956,3.358687 116.999054,1.393804 
	C121.356903,1.000000 125.713806,1.000000 130.534775,1.393994 
	C130.997849,3.359862 130.996857,4.931736 130.540054,6.599808 
	C125.721054,6.630952 121.357872,6.565899 116.994682,6.500846 
z"/>
<path fill="#CDC39E" opacity="1.000000" stroke="none" 
	d="
M116.460632,257.000000 
	C115.991264,255.426025 115.982536,253.852051 116.426285,251.768646 
	C120.918243,251.335068 124.957718,251.410904 128.997192,251.486740 
	C128.668335,253.086594 128.339478,254.686462 128.005310,256.643158 
	C124.307091,257.000000 120.614182,257.000000 116.460632,257.000000 
z"/>
<path fill="#F1E5B7" opacity="1.000000" stroke="none" 
	d="
M130.995865,6.503610 
	C130.996857,4.931736 130.997849,3.359862 130.999420,1.393994 
	C134.692902,1.000000 138.385818,1.000000 142.539368,1.000000 
	C142.994827,2.575340 142.989639,4.150679 142.535065,6.211534 
	C138.389084,6.632569 134.692474,6.568089 130.995865,6.503610 
z"/>
<path fill="#E0CC98" opacity="1.000000" stroke="none" 
	d="
M195.458069,257.000000 
	C194.682129,255.400452 194.364243,253.800919 194.481628,251.761902 
	C198.614777,251.384476 202.312683,251.446518 206.014404,251.899567 
	C206.012131,253.860397 206.006073,255.430191 206.000000,257.000000 
	C202.638718,257.000000 199.277420,257.000000 195.458069,257.000000 
z"/>
<path fill="#F1E5B7" opacity="1.000000" stroke="none" 
	d="
M90.449982,257.000000 
	C90.568336,253.188049 89.123756,251.535782 85.113525,251.970154 
	C82.686981,252.232971 80.194679,251.888733 77.820755,251.534821 
	C84.937065,251.332886 91.964554,251.413391 98.992035,251.493896 
	C98.995827,253.066498 98.999611,254.639084 99.001694,256.605835 
	C96.299988,257.000000 93.599968,257.000000 90.449982,257.000000 
z"/>
<path fill="#E7D8B0" opacity="1.000000" stroke="none" 
	d="
M206.458069,257.000000 
	C206.006073,255.430191 206.012131,253.860397 206.465363,251.811646 
	C210.277664,251.393341 213.642838,251.453979 217.007996,251.514618 
	C217.006210,253.081253 217.004425,254.647888 217.001312,256.607269 
	C213.638718,257.000000 210.277420,257.000000 206.458069,257.000000 
z"/>
<path fill="#F7EAC2" opacity="1.000000" stroke="none" 
	d="
M230.463181,257.000000 
	C229.479050,253.298798 230.779678,251.506821 234.799988,251.987930 
	C237.208878,252.276199 239.677200,252.067581 242.586929,252.133423 
	C243.036209,253.520218 243.017380,254.855881 242.999268,256.595764 
	C238.975449,257.000000 234.950912,257.000000 230.463181,257.000000 
z"/>
<path fill="#322B27" opacity="1.000000" stroke="none" 
	d="
M99.318794,251.379105 
	C91.964554,251.413391 84.937065,251.332886 77.452255,251.360474 
	C76.837669,251.412292 76.680397,251.355988 76.011978,251.244400 
	C75.324646,251.251984 75.148460,251.314850 74.972267,251.377731 
	C74.802444,251.353210 74.632614,251.328674 74.228149,251.410034 
	C54.840427,251.432373 35.687340,251.347519 16.534235,251.266876 
	C13.873296,251.255676 11.212268,251.265320 7.689728,251.265320 
	C7.689728,222.047058 7.689728,192.983704 7.587145,163.461945 
	C7.584082,160.955276 7.683602,158.907013 8.251410,156.504730 
	C9.478081,158.066956 10.713532,159.933350 10.919799,161.907272 
	C12.658193,178.543152 18.265331,193.831070 27.312502,207.758194 
	C34.653435,219.058746 44.770882,227.793304 56.771999,233.642883 
	C66.981735,238.619278 77.967674,242.001190 88.602440,246.108612 
	C92.745697,247.708847 96.867744,249.364014 100.999451,250.994141 
	C100.548149,251.084198 100.096848,251.174255 99.318794,251.379105 
z"/>
<path fill="#3F3832" opacity="1.000000" stroke="none" 
	d="
M130.540054,6.599808 
	C134.692474,6.568089 138.389084,6.632569 142.538010,6.603982 
	C151.341431,6.575194 159.692520,6.639472 168.504852,6.629313 
	C174.018463,6.636356 179.070847,6.717835 184.579254,6.681781 
	C194.054977,6.625212 203.074677,6.686176 212.552338,6.639272 
	C218.373581,6.601755 223.736862,6.672106 229.556122,6.629958 
	C236.704849,6.583387 243.397568,6.649315 250.548279,6.609465 
	C251.421921,8.334550 252.194031,10.164233 252.200104,11.996455 
	C252.300735,42.352917 252.305191,72.709694 252.417908,103.527328 
	C252.406769,109.020607 252.308914,114.052956 251.731323,119.631485 
	C250.181320,124.902885 249.206680,129.652298 248.019196,134.347855 
	C246.036850,142.186401 244.002136,150.013779 241.837875,157.803726 
	C238.475800,169.905197 235.967178,182.329865 228.670364,192.935364 
	C227.247650,191.193710 226.108658,189.619659 224.979248,187.612671 
	C224.934280,186.027756 224.879730,184.875793 224.919220,183.382904 
	C226.261215,179.021027 227.509201,175.000061 228.873398,170.557678 
	C229.108887,166.276215 230.058594,162.154602 225.572769,159.383652 
	C223.508667,157.318008 221.575592,155.572372 219.499969,153.493561 
	C217.217834,151.111603 215.078232,149.062820 212.802826,146.708206 
	C210.346207,143.876694 208.025375,141.351028 205.565857,138.486115 
	C203.638336,135.756897 201.849487,133.366943 199.965698,130.647675 
	C195.663193,124.737106 191.455597,119.155823 187.154694,113.246506 
	C184.319321,108.611687 181.577240,104.304901 178.796600,99.643921 
	C175.604813,93.744484 172.275024,88.289673 169.369324,82.617622 
	C167.807053,79.568031 166.085297,79.483864 163.434952,80.910370 
	C160.879135,82.285995 158.306015,83.586037 155.512573,80.919800 
	C154.918259,80.352547 152.818405,80.759521 151.783875,81.359047 
	C146.791168,84.252411 141.925507,87.365013 136.678314,90.495667 
	C130.229736,92.451492 124.117622,94.311508 117.600098,96.108643 
	C110.131660,97.414963 103.068634,98.784164 95.604416,100.082710 
	C88.225792,101.892174 81.248375,103.772293 73.928833,105.703453 
	C68.052368,108.162270 62.518017,110.570045 56.668224,112.936745 
	C55.929157,112.886124 55.505531,112.876587 55.051636,112.504883 
	C56.743214,109.809547 58.465065,107.476372 60.110695,105.094048 
	C60.034481,105.044899 60.145920,105.188065 60.488857,105.116570 
	C63.543259,103.015251 66.254723,100.985428 69.265198,99.191360 
	C70.020714,100.890724 70.477226,102.354340 71.272850,104.905174 
	C74.497078,103.050751 77.245918,101.469749 80.413002,99.919914 
	C82.653030,99.655701 84.474808,99.360329 86.540176,99.016037 
	C86.783760,98.967117 87.122749,98.603638 87.420059,98.632515 
	C88.455940,98.407578 89.194527,98.153763 90.288406,97.926949 
	C91.110046,97.874329 91.576393,97.794708 92.421600,97.775467 
	C94.546402,97.476067 96.292358,97.116287 98.412796,96.768127 
	C100.494415,96.449814 102.201538,96.119881 104.211365,95.714600 
	C103.978912,94.355789 103.443756,93.072327 102.736679,91.465179 
	C87.698097,73.764267 72.831451,56.387051 57.856384,38.670891 
	C55.808891,35.502491 53.622814,34.091393 49.927917,35.666203 
	C48.805702,36.144505 46.823772,34.605717 45.461868,33.735291 
	C43.150036,29.770676 41.041916,25.629095 37.911022,22.516205 
	C36.061913,20.677729 34.868565,22.798769 35.231621,25.495407 
	C35.800392,30.838167 36.264046,35.791805 37.053432,40.692982 
	C40.060307,59.362122 43.267822,77.999397 46.188972,96.681633 
	C47.110916,102.577919 49.330860,108.832710 43.554657,113.899658 
	C42.828171,114.536942 43.052208,116.406425 43.056152,117.704330 
	C43.088924,128.475311 49.783310,136.421265 54.816971,145.422043 
	C55.564255,146.836990 56.239071,147.931198 56.959965,149.353241 
	C57.722504,150.785675 58.438969,151.890289 59.202736,153.299774 
	C60.040134,154.781143 60.830227,155.957657 61.716560,157.457428 
	C62.505615,158.868195 63.198433,159.955704 64.001419,161.348846 
	C64.781776,162.767181 65.451973,163.879868 66.155594,165.299377 
	C66.813515,166.395309 67.438004,167.184418 68.100021,168.267212 
	C68.473572,169.024643 68.809586,169.488373 69.208481,170.294495 
	C70.394760,172.705582 71.518166,174.774246 72.778740,177.082184 
	C73.598900,178.218735 74.281891,179.116013 75.030205,180.352997 
	C76.725975,183.129715 78.356422,185.566711 80.048248,188.345734 
	C82.715309,192.510605 85.320992,196.333405 87.962524,200.504196 
	C91.784431,206.899765 95.627487,212.912628 99.338860,219.005707 
	C102.403885,224.037643 106.835266,225.817657 112.476013,224.810242 
	C119.334435,223.585358 126.219154,222.455353 133.012497,220.928391 
	C151.457184,216.782440 169.859665,212.448608 188.675140,208.160950 
	C196.806747,206.475891 204.542099,204.819122 212.668213,203.145782 
	C216.706894,202.427383 220.354767,201.725555 223.960968,201.369156 
	C217.511017,211.724792 208.515808,218.840790 198.538177,225.040192 
	C180.135956,236.474045 160.081818,243.404053 138.651474,244.777435 
	C112.658005,246.443237 87.840736,241.292847 65.382339,227.190399 
	C52.223251,218.927338 41.493744,208.199249 33.550514,194.930359 
	C21.816141,175.328491 17.415977,153.352936 13.967320,131.145187 
	C13.157681,125.931480 12.462047,120.700165 11.680201,115.482010 
	C11.149654,111.941055 10.683764,108.382477 9.935387,104.886055 
	C9.641735,103.514114 8.656498,102.290207 7.986218,100.998878 
	C7.896350,82.300278 7.806482,63.601681 7.605540,44.445732 
	C7.565954,32.294102 7.637442,20.599821 7.599111,8.448045 
	C9.310411,7.573007 11.129789,6.801443 12.952922,6.792470 
	C31.995356,6.698750 51.038391,6.727370 70.540802,6.623199 
	C86.025314,6.580318 101.050301,6.636333 116.534981,6.596598 
	C121.357872,6.565899 125.721054,6.630952 130.540054,6.599808 
M58.984951,163.504852 
	C58.984951,163.504852 58.993603,163.989456 59.078972,164.675079 
	C59.854404,166.084457 60.629837,167.493835 61.405273,168.903214 
	C61.771816,168.700378 62.138363,168.497543 62.504910,168.294708 
	C61.665363,166.871750 60.825821,165.448776 59.779232,163.582413 
	C59.585598,163.307114 59.331985,163.108337 58.938675,162.313370 
	C58.364311,161.299377 57.789948,160.285385 57.215584,159.271378 
	C56.823692,159.559814 56.431797,159.848251 56.039906,160.136673 
	C57.019585,161.098022 57.999260,162.059372 58.984951,163.504852 
M166.784943,218.903030 
	C178.700760,216.086700 190.616592,213.270355 203.722534,210.172745 
	C201.940033,209.441132 201.443405,209.024261 201.069641,209.114777 
	C189.033081,212.029724 177.008408,214.993652 164.162140,217.986893 
	C159.561462,219.014389 154.960785,220.041885 150.360123,221.069397 
	C150.514740,221.625580 150.669373,222.181763 150.823990,222.737946 
	C155.882462,221.491760 160.940918,220.245575 166.784943,218.903030 
M83.938858,206.745911 
	C88.720871,213.467712 93.184242,220.450104 98.394684,226.821548 
	C101.989273,231.217117 106.398575,231.472183 112.187683,228.638458 
	C101.302132,230.674805 97.222923,222.718216 92.438118,215.824875 
	C89.654243,211.814209 86.929649,207.762405 83.383316,202.563568 
	C83.482666,204.762451 83.515297,205.484650 83.938858,206.745911 
M147.193512,223.267960 
	C147.480392,222.945480 147.767258,222.622986 148.054138,222.300507 
	C147.905563,222.229202 147.742371,222.075241 147.610504,222.098541 
	C142.900696,222.930771 138.193832,223.779602 133.486542,224.626099 
	C133.599350,225.162170 133.712158,225.698227 133.824966,226.234283 
	C138.062378,225.351685 142.299789,224.469086 147.193512,223.267960 
M116.966637,229.355347 
	C119.696075,228.847504 122.425514,228.339676 125.154953,227.831833 
	C125.082153,227.417938 125.009354,227.004044 124.936546,226.590134 
	C120.851906,227.112335 116.767265,227.634537 112.682625,228.156738 
	C112.694916,228.637650 112.707207,229.118561 112.719498,229.599472 
	C113.862396,229.599472 115.005302,229.599472 116.966637,229.355347 
M65.599907,173.011551 
	C64.964424,172.226318 64.328934,171.441101 63.693447,170.655869 
	C63.358028,170.885559 63.022614,171.115265 62.687195,171.344955 
	C64.017532,173.510437 65.347870,175.675919 66.678207,177.841400 
	C67.064346,177.633194 67.450485,177.425003 67.836624,177.216797 
	C67.232910,175.992722 66.629196,174.768631 65.599907,173.011551 
M71.365341,182.743637 
	C70.640480,181.568726 69.915611,180.393799 69.190750,179.218887 
	C68.796074,179.631470 68.401390,180.044052 68.006706,180.456635 
	C69.219467,181.400238 70.432220,182.343842 71.365341,182.743637 
M53.384232,154.864395 
	C53.832134,155.803467 54.280037,156.742554 54.727940,157.681641 
	C55.131405,157.404312 55.534870,157.126984 55.938335,156.849655 
	C55.226345,156.046143 54.514351,155.242645 53.384232,154.864395 
M50.423943,150.190582 
	C50.797489,150.195312 51.171040,150.200043 51.544586,150.204773 
	C51.546135,150.049698 51.558403,149.759888 51.547691,149.759033 
	C51.176075,149.729492 50.802292,149.727173 50.423943,150.190582 
z"/>
<path fill="#37302B" opacity="1.000000" stroke="none" 
	d="
M7.892413,101.459351 
	C8.656498,102.290207 9.641735,103.514114 9.935387,104.886055 
	C10.683764,108.382477 11.149654,111.941055 11.680201,115.482010 
	C12.462047,120.700165 13.157681,125.931480 13.967320,131.145187 
	C17.415977,153.352936 21.816141,175.328491 33.550514,194.930359 
	C41.493744,208.199249 52.223251,218.927338 65.382339,227.190399 
	C87.840736,241.292847 112.658005,246.443237 138.651474,244.777435 
	C160.081818,243.404053 180.135956,236.474045 198.538177,225.040192 
	C208.515808,218.840790 217.511017,211.724792 224.154846,201.240646 
	C224.682526,200.631470 224.905167,200.422302 225.456665,200.154541 
	C231.902756,200.013412 229.741714,196.257050 228.954086,193.102982 
	C235.967178,182.329865 238.475800,169.905197 241.837875,157.803726 
	C244.002136,150.013779 246.036850,142.186401 248.019196,134.347855 
	C249.206680,129.652298 250.181320,124.902885 251.627136,120.088760 
	C252.080032,131.027390 252.157425,142.054932 251.763138,153.588470 
	C250.255310,155.666183 248.733032,157.105515 248.263123,158.831406 
	C245.523621,168.893082 242.463898,178.917694 240.581924,189.151505 
	C237.406967,206.416336 226.473328,218.007431 212.494034,226.309174 
	C197.700668,235.094360 181.546249,241.448883 164.831833,246.109482 
	C161.063843,247.160156 157.604584,249.317993 154.003204,250.966156 
	C152.270523,251.060791 150.537842,251.155441 148.387512,251.367767 
	C141.951462,251.419312 135.933044,251.353195 129.455902,251.386902 
	C124.957718,251.410904 120.918243,251.335068 116.427338,251.376511 
	C111.288139,251.395782 106.600365,251.297775 101.456024,251.096954 
	C96.867744,249.364014 92.745697,247.708847 88.602440,246.108612 
	C77.967674,242.001190 66.981735,238.619278 56.771999,233.642883 
	C44.770882,227.793304 34.653435,219.058746 27.312502,207.758194 
	C18.265331,193.831070 12.658193,178.543152 10.919799,161.907272 
	C10.713532,159.933350 9.478081,158.066956 8.353080,156.075043 
	C7.882046,150.641205 7.777630,145.283066 7.579249,139.466248 
	C7.554231,132.979538 7.623177,126.951462 7.594618,120.464539 
	C7.597612,113.977066 7.698110,107.948448 7.892413,101.459351 
z"/>
<path fill="#322B27" opacity="1.000000" stroke="none" 
	d="
M154.466980,251.038055 
	C157.604584,249.317993 161.063843,247.160156 164.831833,246.109482 
	C181.546249,241.448883 197.700668,235.094360 212.494034,226.309174 
	C226.473328,218.007431 237.406967,206.416336 240.581924,189.151505 
	C242.463898,178.917694 245.523621,168.893082 248.263123,158.831406 
	C248.733032,157.105515 250.255310,155.666183 251.655548,154.046631 
	C252.104370,165.698471 252.189133,177.398132 252.388733,189.554321 
	C252.503586,210.276505 252.503586,230.542145 252.503586,251.311798 
	C249.489044,251.311798 247.203781,251.311798 244.464386,251.404739 
	C235.316162,251.441910 226.622101,251.386139 217.468018,251.422501 
	C213.642838,251.453979 210.277664,251.393341 206.461548,251.420624 
	C202.312683,251.446518 198.614777,251.384476 194.463913,251.412140 
	C187.991318,251.442596 181.971695,251.383362 175.491241,251.401566 
	C168.330536,251.355972 161.630646,251.232956 154.466980,251.038055 
z"/>
<path fill="#CDC39E" opacity="1.000000" stroke="none" 
	d="
M75.067291,251.529022 
	C75.148460,251.314850 75.324646,251.251984 75.764648,251.284576 
	C75.739746,251.480118 75.451027,251.580200 75.067291,251.529022 
z"/>
<path fill="#E5D09B" opacity="1.000000" stroke="none" 
	d="
M54.744507,145.101288 
	C49.783310,136.421265 43.088924,128.475311 43.056152,117.704330 
	C43.052208,116.406425 42.828171,114.536942 43.554657,113.899658 
	C49.330860,108.832710 47.110916,102.577919 46.188972,96.681633 
	C43.267822,77.999397 40.060307,59.362122 37.053432,40.692982 
	C36.264046,35.791805 35.800392,30.838167 35.550934,25.558155 
	C37.637169,27.852736 39.359619,30.497784 41.010117,33.523369 
	C40.672832,35.001137 40.050968,36.148762 40.197823,37.187733 
	C41.532429,46.629601 42.990273,56.054173 44.433338,65.480553 
	C46.322571,77.821434 48.377338,90.139198 50.081600,102.505402 
	C51.282509,111.219223 51.934231,120.007439 53.003822,128.741287 
	C53.431316,132.232010 55.318741,133.511444 58.942307,132.096893 
	C61.499584,131.098587 64.308846,130.745758 67.071045,130.487488 
	C68.809433,131.580109 70.449425,132.802704 72.160889,132.912628 
	C80.334648,133.437653 88.582176,133.196762 96.695717,134.147675 
	C102.501328,134.828110 108.119720,137.032135 113.856346,138.412109 
	C116.090599,138.949585 118.425323,139.058014 120.705078,139.419846 
	C128.131866,140.598618 135.525558,142.551544 142.984741,142.839371 
	C157.257767,143.390152 171.568024,143.086319 185.860748,142.937546 
	C189.323517,142.901505 192.778198,142.088531 196.482758,141.848541 
	C197.443375,143.374695 198.157837,144.685120 198.427261,145.996765 
	C188.268143,146.332001 178.544815,146.505905 168.843842,147.066452 
	C163.875259,147.353531 158.946671,148.332260 153.666885,148.998459 
	C152.889618,148.998398 152.445450,148.998276 151.901505,148.609497 
	C150.136368,147.813690 148.480988,147.108017 146.803909,147.051926 
	C140.079498,146.826996 133.305466,147.244354 126.630486,146.594788 
	C118.117332,145.766357 109.569084,144.634506 101.237801,142.743942 
	C85.436295,139.158203 70.086700,141.305908 54.744507,145.101288 
z"/>
<path fill="#A89675" opacity="1.000000" stroke="none" 
	d="
M188.278870,208.189270 
	C169.859665,212.448608 151.457184,216.782440 133.012497,220.928391 
	C126.219154,222.455353 119.334435,223.585358 112.476013,224.810242 
	C106.835266,225.817657 102.403885,224.037643 99.338860,219.005707 
	C95.627487,212.912628 91.784431,206.899765 88.108215,200.169586 
	C87.160187,195.782730 86.102303,192.078476 84.958588,188.073685 
	C86.561836,187.734619 88.293617,187.368378 90.315407,187.129211 
	C91.401894,187.502563 92.198364,187.748840 92.997574,188.241119 
	C93.000305,188.487137 93.001556,188.979202 93.006287,189.344589 
	C94.010109,190.810165 95.009186,191.910339 96.227608,193.260925 
	C97.632462,194.011383 98.817970,194.511414 100.144821,195.329407 
	C102.190979,199.765121 104.095795,203.882874 105.658722,207.941940 
	C102.640419,204.002777 99.964012,200.122299 97.287598,196.241806 
	C97.024544,196.401291 96.761482,196.560791 96.498428,196.720276 
	C96.665970,198.147263 96.833504,199.574234 96.743271,200.891388 
	C95.990639,200.520630 95.495773,200.259705 94.962585,199.722565 
	C94.627068,199.131592 94.329880,198.816833 94.032684,198.502075 
	C93.858513,198.704590 93.684349,198.907104 93.510193,199.109619 
	C94.006493,199.406662 94.502785,199.703690 95.004913,200.358231 
	C95.506279,202.057709 96.001816,203.399673 96.497353,204.741623 
	C96.844505,204.638641 97.191658,204.535645 97.538811,204.432663 
	C97.358803,203.288025 97.178787,202.143402 97.338387,201.056763 
	C98.641670,202.738220 100.831963,205.081009 100.370132,205.868591 
	C97.351479,211.016403 102.271881,213.598358 103.731651,217.158234 
	C104.191078,218.278610 106.609665,218.595627 109.389435,219.846237 
	C107.910828,215.083969 106.959435,212.019745 106.306671,209.126953 
	C108.631020,212.478760 110.656754,215.659164 112.682487,218.839554 
	C113.058456,218.628494 113.434425,218.417419 113.810394,218.206360 
	C110.214539,211.133682 106.618683,204.060989 103.389954,196.978912 
	C104.907196,195.900497 106.057312,194.831497 106.712074,194.222916 
	C108.956078,194.857361 110.976357,195.428543 113.254181,196.181458 
	C114.344925,196.916687 115.178123,197.470200 116.009308,198.244507 
	C116.007286,198.465286 115.997253,198.906784 115.990967,199.309357 
	C116.998985,205.869858 120.431595,210.723831 123.272530,215.896835 
	C123.689476,215.677780 124.106422,215.458725 124.523369,215.239685 
	C122.337318,210.166016 120.151260,205.092361 118.263763,199.990173 
	C119.040390,199.643723 119.518456,199.325790 120.270500,199.222229 
	C123.135956,204.603180 125.727417,209.769791 128.318878,214.936386 
	C128.794983,214.705490 129.271088,214.474594 129.747192,214.243683 
	C127.828903,209.839676 125.910614,205.435669 124.153023,200.786774 
	C124.882179,200.019196 125.450638,199.496506 126.277176,199.201569 
	C129.005112,204.122269 131.474960,208.815247 133.944809,213.508240 
	C134.326660,213.323883 134.708511,213.139542 135.090347,212.955185 
	C133.389420,208.971970 131.688492,204.988739 130.396454,200.993271 
	C133.708099,200.884705 136.630295,200.532043 139.509109,200.750732 
	C144.091309,201.098816 148.651932,202.329605 153.208160,202.262924 
	C158.398117,202.186951 163.022705,202.648956 167.066071,206.367554 
	C168.073181,207.293777 170.245224,207.047913 171.894302,207.164261 
	C177.352753,207.549377 182.816910,207.853851 188.278870,208.189270 
M108.981697,198.523880 
	C108.863335,198.260895 108.744972,197.997925 108.626617,197.734940 
	C108.508202,197.819214 108.282333,197.971069 108.286758,197.978088 
	C108.507774,198.329544 108.748505,198.668594 108.999229,199.769836 
	C111.605324,208.745438 116.189606,216.282059 119.551384,217.124405 
	C117.743332,213.842636 115.988556,210.529999 114.111069,207.288452 
	C112.484039,204.479309 110.717896,201.750748 108.981697,198.523880 
z"/>
<path fill="#B6A47E" opacity="1.000000" stroke="none" 
	d="
M228.670364,192.935364 
	C229.741714,196.257050 231.902756,200.013412 225.294250,199.833710 
	C221.096695,197.603180 217.621826,195.247192 213.791840,193.903091 
	C203.314194,190.226013 192.476959,189.018677 181.317062,188.667847 
	C165.468887,188.169647 149.681580,185.975632 133.835419,185.102036 
	C119.582939,184.316284 105.286171,184.333832 90.894638,183.783752 
	C90.580849,183.303574 90.323761,183.115387 89.639366,182.997299 
	C85.511032,180.658890 81.752403,178.329056 77.746246,175.817688 
	C77.736877,174.742722 77.830818,173.772308 78.254883,172.978180 
	C78.657082,172.225021 79.405106,171.656525 80.257675,171.115875 
	C81.006508,171.485336 81.498726,171.745728 81.993652,172.337921 
	C81.998466,173.112350 82.000565,173.554962 82.043991,174.342880 
	C83.041283,177.680008 84.964317,177.050659 86.999847,176.000305 
	C87.000000,176.000000 86.999695,176.000610 87.247215,176.296844 
	C89.553802,177.062393 91.602127,177.881042 93.673668,177.944748 
	C107.949188,178.383636 122.229294,178.676682 136.508438,178.993683 
	C152.213974,179.342361 167.928787,179.447342 183.623138,180.071503 
	C195.885315,180.559174 208.078552,181.873062 219.582733,186.746201 
	C220.585159,187.170822 221.897034,186.864899 223.320526,187.012329 
	C224.040466,187.432770 224.505051,187.739197 224.969650,188.045609 
	C226.108658,189.619659 227.247650,191.193710 228.670364,192.935364 
z"/>
<path fill="#EDD89F" opacity="1.000000" stroke="none" 
	d="
M68.966187,98.955605 
	C66.254723,100.985428 63.543259,103.015251 60.428627,104.835991 
	C59.387978,104.391747 58.750488,104.156586 58.112999,103.921417 
	C58.048790,104.230705 57.984577,104.539986 57.920368,104.849274 
	C58.675884,104.947250 59.431396,105.045219 60.186913,105.143196 
	C58.465065,107.476372 56.743214,109.809547 55.029861,112.886589 
	C54.695866,115.081184 54.353374,116.531914 53.915905,118.471375 
	C53.745338,119.283150 53.669746,119.606209 53.385345,119.557846 
	C51.264553,113.765923 52.163414,108.906693 55.772541,104.388245 
	C56.617958,103.329834 57.214676,101.512474 56.963333,100.233421 
	C55.749886,94.058403 55.289379,87.413780 52.574776,81.917030 
	C45.086681,66.754547 44.161205,50.544621 43.637169,34.191254 
	C44.526016,34.086727 44.880810,34.038754 45.235607,33.990784 
	C46.823772,34.605717 48.805702,36.144505 49.927917,35.666203 
	C53.622814,34.091393 55.808891,35.502491 57.507675,38.715401 
	C52.597897,40.865570 57.019073,43.066544 56.638245,45.022774 
	C56.109627,45.571159 55.600834,46.301491 55.789413,46.709492 
	C59.882488,55.564968 64.053276,64.384521 68.206680,73.623413 
	C71.414612,81.409073 73.046318,88.977890 70.737816,97.067238 
	C69.940010,97.743973 69.453102,98.349785 68.966187,98.955605 
z"/>
<path fill="#B19F7B" opacity="1.000000" stroke="none" 
	d="
M91.008942,183.997055 
	C105.286171,184.333832 119.582939,184.316284 133.835419,185.102036 
	C149.681580,185.975632 165.468887,188.169647 181.317062,188.667847 
	C192.476959,189.018677 203.314194,190.226013 213.791840,193.903091 
	C217.621826,195.247192 221.096695,197.603180 224.895966,199.818390 
	C224.905167,200.422302 224.682526,200.631470 224.196548,200.895218 
	C220.354767,201.725555 216.706894,202.427383 212.323151,202.967712 
	C202.411270,200.206726 193.380325,196.504761 184.024261,195.273590 
	C170.924164,193.549728 157.580627,193.689529 144.343842,192.983139 
	C139.796936,192.740494 135.256958,192.081940 130.715439,192.097198 
	C125.143875,192.115921 119.574028,192.641861 113.742729,193.164917 
	C113.320229,194.254135 113.158440,195.126923 112.996643,195.999725 
	C110.976357,195.428543 108.956078,194.857361 106.712074,194.222916 
	C106.057312,194.831497 104.907196,195.900497 103.237762,196.695358 
	C101.813461,195.951294 100.908470,195.481369 100.003479,195.011444 
	C98.817970,194.511414 97.632462,194.011383 96.193008,192.931152 
	C94.959900,191.227036 93.980728,190.103119 93.001556,188.979202 
	C93.001556,188.979202 93.000305,188.487137 92.965851,187.917053 
	C92.290581,186.230347 91.649765,185.113693 91.008942,183.997055 
z"/>
<path fill="#AE9B79" opacity="1.000000" stroke="none" 
	d="
M114.003433,192.948502 
	C119.574028,192.641861 125.143875,192.115921 130.715439,192.097198 
	C135.256958,192.081940 139.796936,192.740494 144.343842,192.983139 
	C157.580627,193.689529 170.924164,193.549728 184.024261,195.273590 
	C193.380325,196.504761 202.411270,200.206726 211.932358,202.984283 
	C204.542099,204.819122 196.806747,206.475891 188.675140,208.160980 
	C182.816910,207.853851 177.352753,207.549377 171.894302,207.164261 
	C170.245224,207.047913 168.073181,207.293777 167.066071,206.367554 
	C163.022705,202.648956 158.398117,202.186951 153.208160,202.262924 
	C148.651932,202.329605 144.091309,201.098816 139.509109,200.750732 
	C136.630295,200.532043 133.708099,200.884705 130.139557,200.793671 
	C128.607697,199.241837 127.741646,197.877350 126.273170,195.563721 
	C126.129440,197.492920 126.074272,198.233368 126.019104,198.973831 
	C125.450638,199.496506 124.882179,200.019196 123.886673,200.574219 
	C122.365219,198.803757 121.270821,197.000931 120.176422,195.198120 
	C119.819603,195.360107 119.462784,195.522079 119.105972,195.684067 
	C119.402817,196.791992 119.699661,197.899933 119.996513,199.007858 
	C119.518456,199.325790 119.040390,199.643723 118.008163,199.871338 
	C116.968422,199.489609 116.482834,199.198196 115.997253,198.906784 
	C115.997253,198.906784 116.007286,198.465286 115.873207,197.930023 
	C115.160568,195.912659 114.582001,194.430588 114.003433,192.948502 
z"/>
<path fill="#FDF0B3" opacity="1.000000" stroke="none" 
	d="
M137.014786,90.399857 
	C141.925507,87.365013 146.791168,84.252411 151.783875,81.359047 
	C152.818405,80.759521 154.918259,80.352547 155.512573,80.919800 
	C158.306015,83.586037 160.879135,82.285995 163.434952,80.910370 
	C166.085297,79.483864 167.807053,79.568031 169.369324,82.617622 
	C172.275024,88.289673 175.604813,93.744484 178.445816,99.651352 
	C176.740128,100.713936 175.346695,101.414902 173.610352,101.936554 
	C171.319244,101.130806 169.322952,99.863960 167.432388,100.005875 
	C162.938339,100.343216 158.494324,101.347321 153.862091,101.762711 
	C149.887344,99.669060 145.899826,98.189751 142.341919,96.009377 
	C140.217972,94.707764 138.767822,92.306694 137.014786,90.399857 
z"/>
<path fill="#F1DBA3" opacity="1.000000" stroke="none" 
	d="
M56.982872,45.054592 
	C57.019073,43.066544 52.597897,40.865570 57.616089,39.054344 
	C72.831451,56.387051 87.698097,73.764267 102.357254,91.455086 
	C100.431839,90.842194 98.713928,89.915703 96.997398,88.995293 
	C96.998779,89.001373 97.011093,89.003494 96.861656,88.735336 
	C95.846764,88.631927 94.981316,88.796677 93.809265,88.854233 
	C91.997894,88.524757 90.493118,88.302467 88.641693,88.024124 
	C85.533043,86.643044 82.771027,85.318008 80.004440,83.996582 
	C79.999878,84.000183 79.992195,84.009933 79.650055,83.978561 
	C77.246300,82.620949 75.184685,81.294701 72.956604,79.658447 
	C71.832497,77.237953 70.874870,75.127472 69.899994,72.659424 
	C65.582787,63.219437 61.282825,54.137016 56.982872,45.054592 
z"/>
<path fill="#D4C091" opacity="1.000000" stroke="none" 
	d="
M63.891254,161.043198 
	C63.198433,159.955704 62.505615,158.868195 62.135357,157.385956 
	C78.562805,153.166977 94.805847,151.972260 111.319603,153.744980 
	C115.801453,154.226089 120.435699,153.287613 125.375000,153.000580 
	C126.500000,153.000320 127.250000,153.000168 128.238068,153.266907 
	C130.994843,154.287338 133.512787,155.678558 136.032410,155.681610 
	C145.844330,155.693512 155.655365,155.153793 165.469406,155.030746 
	C176.100098,154.897461 186.735535,155.099014 197.364441,154.907669 
	C199.260910,154.873520 201.135742,153.637253 203.298035,153.133728 
	C204.398026,154.871048 205.220520,156.430725 205.572220,157.993286 
	C190.238800,158.330765 175.376663,158.691254 160.513092,158.975739 
	C157.892914,159.025894 155.265976,158.642670 152.643341,158.658371 
	C143.172424,158.715042 133.702179,158.917892 124.231384,158.938904 
	C119.842209,158.948639 115.441086,158.812180 111.066292,158.472626 
	C107.299782,158.180313 103.505005,156.816849 99.823654,157.126587 
	C87.821312,158.136475 75.865173,159.695465 63.891254,161.043198 
z"/>
<path fill="#C7B488" opacity="1.000000" stroke="none" 
	d="
M69.145599,169.952087 
	C68.809586,169.488373 68.473572,169.024643 68.450500,168.110474 
	C81.751732,166.481323 94.723137,165.020111 107.735405,164.242844 
	C114.263939,163.852890 120.865929,164.933182 127.436279,164.959900 
	C152.081284,165.060043 176.726929,165.001053 201.372330,164.998611 
	C204.295685,164.998322 207.219055,164.978714 210.399872,165.161987 
	C211.472015,166.896622 212.286728,168.437317 212.641113,169.984375 
	C208.059982,169.660782 203.944046,169.139526 199.817520,169.034607 
	C183.478394,168.619171 167.131241,167.913300 150.795761,168.095306 
	C123.575523,168.398605 96.361977,169.301605 69.145599,169.952087 
z"/>
<path fill="#DCC896" opacity="1.000000" stroke="none" 
	d="
M128.000000,153.000000 
	C127.250000,153.000168 126.500000,153.000320 125.096588,152.723969 
	C117.787170,151.933060 111.138527,151.154236 104.473381,150.968903 
	C95.430656,150.717484 86.365822,150.671539 77.328690,151.015686 
	C71.254616,151.246979 65.212074,152.306122 59.155430,152.994888 
	C58.438969,151.890289 57.722504,150.785675 57.409142,149.346008 
	C60.121017,148.869125 62.595505,149.218704 64.711464,148.505142 
	C77.665833,144.136490 90.846649,146.081497 103.970818,146.850754 
	C113.016129,147.380920 122.029846,148.483383 131.077423,148.931244 
	C138.036102,149.275711 145.025543,148.998779 152.001297,148.998169 
	C152.445450,148.998276 152.889618,148.998398 153.970093,149.284668 
	C169.661636,149.293106 184.716843,149.015381 200.018143,148.848969 
	C200.792450,149.639450 201.320694,150.318604 201.437027,151.012970 
	C198.240509,151.352127 195.462585,151.857758 192.669846,151.960617 
	C187.520584,152.150223 182.362701,152.134369 177.208252,152.148636 
	C165.803040,152.180222 154.396866,152.098923 142.992859,152.224869 
	C137.992996,152.280075 132.997482,152.729553 128.000000,153.000000 
z"/>
<path fill="#CCB88B" opacity="1.000000" stroke="none" 
	d="
M210.142410,164.968063 
	C207.219055,164.978714 204.295685,164.998322 201.372330,164.998611 
	C176.726929,165.001053 152.081284,165.060043 127.436279,164.959900 
	C120.865929,164.933182 114.263939,163.852890 107.735405,164.242844 
	C94.723137,165.020111 81.751732,166.481323 68.412964,167.816772 
	C67.438004,167.184418 66.813515,166.395309 66.530853,165.246521 
	C68.417328,164.285690 69.925171,163.299088 71.512756,163.147491 
	C80.194496,162.318436 88.891533,161.191299 97.591423,161.117081 
	C110.877617,161.003708 124.169579,161.707611 137.460876,161.976868 
	C142.040497,162.069641 146.625946,161.928238 151.207809,161.844345 
	C158.950546,161.702576 166.691895,161.464218 174.435074,161.375610 
	C180.231323,161.309250 186.030228,161.482697 191.826660,161.423325 
	C197.173996,161.368561 202.519623,161.145950 208.047729,161.270691 
	C208.867111,162.685425 209.504761,163.826736 210.142410,164.968063 
z"/>
<path fill="#C3B086" opacity="1.000000" stroke="none" 
	d="
M69.208481,170.294495 
	C96.361977,169.301605 123.575523,168.398605 150.795761,168.095306 
	C167.131241,167.913300 183.478394,168.619171 199.817520,169.034607 
	C203.944046,169.139526 208.059982,169.660782 212.901459,170.174576 
	C214.449966,171.896637 215.277786,173.434860 215.662964,174.981262 
	C213.412750,174.802460 211.607941,174.581009 209.797104,174.434219 
	C199.620209,173.609238 189.454483,172.430222 179.260773,172.083862 
	C166.685257,171.656570 154.085983,171.896622 141.497009,171.903152 
	C121.661652,171.913422 101.826302,171.969452 81.990952,172.006104 
	C81.498726,171.745728 81.006508,171.485336 80.013794,170.929779 
	C74.946663,170.184769 74.402542,174.187286 72.641563,176.842911 
	C71.518166,174.774246 70.394760,172.705582 69.208481,170.294495 
z"/>
<path fill="#D0BC8E" opacity="1.000000" stroke="none" 
	d="
M207.865997,160.997284 
	C202.519623,161.145950 197.173996,161.368561 191.826660,161.423325 
	C186.030228,161.482697 180.231323,161.309250 174.435074,161.375610 
	C166.691895,161.464218 158.950546,161.702576 151.207809,161.844345 
	C146.625946,161.928238 142.040497,162.069641 137.460876,161.976868 
	C124.169579,161.707611 110.877617,161.003708 97.591423,161.117081 
	C88.891533,161.191299 80.194496,162.318436 71.512756,163.147491 
	C69.925171,163.299088 68.417328,164.285690 66.497421,164.939713 
	C65.451973,163.879868 64.781776,162.767181 64.001419,161.348846 
	C75.865173,159.695465 87.821312,158.136475 99.823654,157.126587 
	C103.505005,156.816849 107.299782,158.180313 111.066292,158.472626 
	C115.441086,158.812180 119.842209,158.948639 124.231384,158.938904 
	C133.702179,158.917892 143.172424,158.715042 152.643341,158.658371 
	C155.265976,158.642670 157.892914,159.025894 160.513092,158.975739 
	C175.376663,158.691254 190.238800,158.330765 205.829742,158.151459 
	C206.994049,159.203598 207.430023,160.100433 207.865997,160.997284 
z"/>
<path fill="#5E5546" opacity="1.000000" stroke="none" 
	d="
M208.047729,161.270691 
	C207.430023,160.100433 206.994049,159.203598 206.300537,158.148590 
	C205.220520,156.430725 204.398026,154.871048 203.211395,152.859039 
	C202.514496,151.937042 202.181717,151.467407 201.848938,150.997757 
	C201.320694,150.318604 200.792450,149.639450 200.027222,148.479752 
	C199.484253,147.331329 199.178284,146.663437 198.872314,145.995544 
	C198.157837,144.685120 197.443375,143.374695 196.406189,141.544846 
	C195.397522,140.012970 194.711578,139.000519 193.936356,137.692291 
	C193.267395,136.582993 192.687698,135.769485 191.981796,134.684418 
	C191.285706,133.490860 190.715851,132.568863 190.056915,131.273132 
	C188.578659,128.597107 187.189484,126.294807 185.799225,123.648102 
	C184.104065,120.534775 182.410004,117.765854 180.635437,114.681808 
	C177.702209,110.730934 174.991730,106.968201 171.919998,103.528046 
	C170.839005,102.317406 168.633194,100.943367 167.348831,101.266266 
	C156.771637,103.925484 146.290482,106.966713 135.401672,109.918228 
	C130.919724,111.250252 126.816322,112.556190 122.331940,113.886734 
	C117.886681,115.104919 113.822388,116.298485 109.386497,117.618073 
	C104.721802,119.031151 100.428719,120.318214 95.827942,121.754303 
	C92.635567,122.775688 89.750885,123.648048 86.503830,124.600693 
	C85.411522,124.741821 84.681602,124.802673 83.742386,124.628662 
	C82.925293,124.234108 82.317490,124.074417 81.990829,123.655960 
	C85.868813,122.400085 89.465668,121.402985 93.455780,120.323135 
	C99.233437,118.468407 104.617836,116.696419 110.391525,114.918579 
	C116.913498,113.135246 123.046181,111.357765 129.558868,109.454216 
	C137.969269,106.912773 145.999680,104.497398 154.030090,102.082016 
	C158.494324,101.347321 162.938339,100.343216 167.432388,100.005875 
	C169.322952,99.863960 171.319244,101.130806 173.744171,102.244926 
	C177.446060,107.167122 180.671265,111.601631 183.999756,116.373230 
	C187.313141,122.175621 190.523254,127.640923 193.819901,133.446167 
	C195.239731,135.873428 196.573029,137.960754 197.960419,140.398743 
	C199.685928,143.476456 201.357361,146.203506 203.109558,149.252350 
	C204.159470,151.046051 205.128616,152.517975 206.160278,154.308853 
	C207.163483,156.083344 208.104172,157.538910 209.117310,159.326477 
	C210.800095,162.104843 212.410461,164.551193 214.105469,167.328094 
	C217.735153,173.013687 221.280167,178.368744 224.825180,183.723816 
	C224.879730,184.875793 224.934280,186.027756 224.979248,187.612671 
	C224.505051,187.739197 224.040466,187.432770 223.275696,186.671143 
	C222.003433,184.444656 221.031342,182.673401 219.955597,180.585815 
	C218.603165,178.504013 217.354385,176.738541 216.105606,174.973068 
	C215.277786,173.434860 214.449966,171.896637 213.361786,170.168213 
	C212.286728,168.437317 211.472015,166.896622 210.399872,165.161987 
	C209.504761,163.826736 208.867111,162.685425 208.047729,161.270691 
z"/>
<path fill="#F6E0A7" opacity="1.000000" stroke="none" 
	d="
M110.002235,114.924431 
	C104.617836,116.696419 99.233437,118.468407 93.417480,119.939255 
	C92.172874,118.674332 91.536736,117.424309 90.517395,116.794373 
	C84.921997,113.336494 78.396347,111.257515 74.270950,105.652405 
	C81.248375,103.772293 88.225792,101.892174 95.612373,100.448257 
	C96.842621,101.994148 97.527603,103.245476 98.508888,104.188454 
	C102.288597,107.820610 106.163078,111.354141 110.002235,114.924431 
z"/>
<path fill="#E0CC98" opacity="1.000000" stroke="none" 
	d="
M151.901505,148.609497 
	C145.025543,148.998779 138.036102,149.275711 131.077423,148.931244 
	C122.029846,148.483383 113.016129,147.380920 103.970818,146.850754 
	C90.846649,146.081497 77.665833,144.136490 64.711464,148.505142 
	C62.595505,149.218704 60.121017,148.869125 57.363068,149.018158 
	C56.239071,147.931198 55.564255,146.836990 54.816971,145.422043 
	C70.086700,141.305908 85.436295,139.158203 101.237801,142.743942 
	C109.569084,144.634506 118.117332,145.766357 126.630486,146.594788 
	C133.305466,147.244354 140.079498,146.826996 146.803909,147.051926 
	C148.480988,147.108017 150.136368,147.813690 151.901505,148.609497 
z"/>
<path fill="#FEECAF" opacity="1.000000" stroke="none" 
	d="
M153.862091,101.762711 
	C145.999680,104.497398 137.969269,106.912773 129.425552,109.097008 
	C127.292885,107.465118 125.447723,106.250465 124.105255,104.621521 
	C121.900467,101.946228 120.021736,99.002220 118.005508,96.171524 
	C124.117622,94.311508 130.229736,92.451492 136.678314,90.495667 
	C138.767822,92.306694 140.217972,94.707764 142.341919,96.009377 
	C145.899826,98.189751 149.887344,99.669060 153.862091,101.762711 
z"/>
<path fill="#FCE6AB" opacity="1.000000" stroke="none" 
	d="
M117.600098,96.108643 
	C120.021736,99.002220 121.900467,101.946228 124.105255,104.621521 
	C125.447723,106.250465 127.292885,107.465118 129.045563,109.223068 
	C123.046181,111.357765 116.913498,113.135246 110.391525,114.918579 
	C106.163078,111.354141 102.288597,107.820610 98.508888,104.188454 
	C97.527603,103.245476 96.842621,101.994148 96.013580,100.518906 
	C103.068634,98.784164 110.131660,97.414963 117.600098,96.108643 
z"/>
<path fill="#EDD89F" opacity="1.000000" stroke="none" 
	d="
M73.928833,105.703445 
	C78.396347,111.257515 84.921997,113.336494 90.517395,116.794373 
	C91.536736,117.424309 92.172874,118.674332 93.024216,120.021988 
	C89.465668,121.402985 85.868813,122.400085 81.635590,123.976654 
	C81.297340,125.053497 81.595459,125.550880 81.571213,126.061127 
	C80.009285,126.394112 78.769722,126.714218 77.694191,126.622269 
	C76.399307,126.128082 74.940384,126.045952 73.480621,125.979721 
	C73.479767,125.995613 73.457008,125.972008 73.357285,125.649261 
	C74.925827,124.137512 76.594093,122.948517 78.553169,121.552261 
	C74.301300,121.220093 70.632660,120.933487 66.126602,120.581459 
	C68.761070,119.672165 70.652939,119.019173 72.544807,118.366188 
	C72.461632,118.067711 72.378456,117.769226 72.295280,117.470741 
	C67.195381,118.624695 62.095482,119.778641 56.998863,120.575470 
	C57.008591,119.506561 57.015041,118.794754 57.362835,118.007446 
	C63.097038,115.107124 68.489906,112.282326 73.882767,109.457520 
	C73.690063,109.027588 73.497368,108.597656 73.304665,108.167732 
	C71.216766,108.928513 69.164024,109.812271 67.032837,110.421684 
	C63.711086,111.371552 60.336094,112.135246 56.983665,112.977829 
	C62.518017,110.570045 68.052368,108.162270 73.928833,105.703445 
z"/>
<path fill="#D9C494" opacity="1.000000" stroke="none" 
	d="
M59.202736,153.299774 
	C65.212074,152.306122 71.254616,151.246979 77.328690,151.015686 
	C86.365822,150.671539 95.430656,150.717484 104.473381,150.968903 
	C111.138527,151.154236 117.787170,151.933060 124.721588,152.724060 
	C120.435699,153.287613 115.801453,154.226089 111.319603,153.744980 
	C94.805847,151.972260 78.562805,153.166977 62.039124,157.062683 
	C60.830227,155.957657 60.040134,154.781143 59.202736,153.299774 
z"/>
<path fill="#CCB88B" opacity="1.000000" stroke="none" 
	d="
M214.020813,166.997559 
	C212.410461,164.551193 210.800095,162.104843 209.562958,159.328964 
	C213.485397,159.445267 217.025162,160.021393 220.587967,160.279739 
	C222.270477,160.401749 223.997131,159.914734 225.703796,159.703659 
	C230.058594,162.154602 229.108887,166.276215 228.482803,170.562103 
	C223.324265,169.657791 218.672546,168.327682 214.020813,166.997559 
z"/>
<path fill="#F6E0A7" opacity="1.000000" stroke="none" 
	d="
M193.733368,133.106232 
	C190.523254,127.640923 187.313141,122.175621 184.364792,116.324806 
	C185.500366,115.151054 186.374191,114.362801 187.248001,113.574547 
	C191.455597,119.155823 195.663193,124.737106 199.633789,130.816132 
	C197.508987,131.911331 195.621170,132.508774 193.733368,133.106232 
z"/>
<path fill="#D0BC8E" opacity="1.000000" stroke="none" 
	d="
M73.123077,79.968460 
	C75.184685,81.294701 77.246300,82.620949 79.699829,84.115280 
	C80.177773,84.330757 80.263786,84.378143 80.349800,84.425529 
	C80.236206,84.281342 80.122612,84.137154 80.009010,83.992973 
	C82.771027,85.318008 85.533043,86.643044 88.797653,88.315796 
	C92.212929,91.361183 95.125618,94.058846 98.038307,96.756516 
	C96.292358,97.116287 94.546402,97.476067 92.352066,97.429886 
	C90.257195,96.357574 88.610703,95.691216 86.985184,95.016693 
	C87.006165,95.008514 86.976212,95.043335 86.948692,94.692047 
	C82.653793,90.886734 78.386414,87.432709 74.060219,83.625290 
	C73.708633,82.170753 73.415855,81.069603 73.123077,79.968460 
z"/>
<path fill="#C3B086" opacity="1.000000" stroke="none" 
	d="
M214.105469,167.328094 
	C218.672546,168.327682 223.324265,169.657791 228.366592,170.983490 
	C227.509201,175.000061 226.261215,179.021027 224.919220,183.382904 
	C221.280167,178.368744 217.735153,173.013687 214.105469,167.328094 
z"/>
<path fill="#B19F7B" opacity="1.000000" stroke="none" 
	d="
M77.993782,175.999237 
	C81.752403,178.329056 85.511032,180.658890 89.636002,183.396667 
	C90.010025,184.870468 90.017715,185.936295 90.025398,187.002121 
	C88.293617,187.368378 86.561836,187.734619 84.958588,188.073685 
	C86.102303,192.078476 87.160187,195.782730 88.072372,199.821594 
	C85.320992,196.333405 82.715309,192.510605 80.412506,188.334579 
	C81.200417,186.903580 82.327728,185.592911 82.038696,184.795792 
	C81.408791,183.058578 80.057678,181.582855 78.964127,179.655914 
	C78.615906,178.207443 78.304840,177.103348 77.993782,175.999237 
z"/>
<path fill="#C7B488" opacity="1.000000" stroke="none" 
	d="
M83.743393,206.476379 
	C83.515297,205.484650 83.482666,204.762451 83.383316,202.563568 
	C86.929649,207.762405 89.654243,211.814209 92.438118,215.824875 
	C97.222923,222.718216 101.302132,230.674805 112.187683,228.638458 
	C106.398575,231.472183 101.989273,231.217117 98.394684,226.821548 
	C93.184242,220.450104 88.720871,213.467712 83.743393,206.476379 
z"/>
<path fill="#E5D09B" opacity="1.000000" stroke="none" 
	d="
M203.028793,148.930573 
	C201.357361,146.203506 199.685928,143.476456 198.350403,140.226547 
	C201.025726,139.410919 203.365128,139.118149 205.704544,138.825378 
	C208.025375,141.351028 210.346207,143.876694 212.408234,146.756866 
	C209.109207,147.717773 206.069000,148.324173 203.028793,148.930573 
z"/>
<path fill="#FEECAF" opacity="1.000000" stroke="none" 
	d="
M187.154694,113.246506 
	C186.374191,114.362801 185.500366,115.151054 184.261505,115.987717 
	C180.671265,111.601631 177.446060,107.167122 174.087051,102.424240 
	C175.346695,101.414902 176.740128,100.713936 178.484360,100.005539 
	C181.577240,104.304901 184.319321,108.611687 187.154694,113.246506 
z"/>
<path fill="#D4C091" opacity="1.000000" stroke="none" 
	d="
M225.572769,159.383652 
	C223.997131,159.914734 222.270477,160.401749 220.587967,160.279739 
	C217.025162,160.021393 213.485397,159.445267 209.490524,158.996964 
	C208.104172,157.538910 207.163483,156.083344 206.621124,154.311829 
	C211.227142,153.939499 215.434830,153.883118 219.642502,153.826736 
	C221.575592,155.572372 223.508667,157.318008 225.572769,159.383652 
z"/>
<path fill="#DCC896" opacity="1.000000" stroke="none" 
	d="
M219.499969,153.493561 
	C215.434830,153.883118 211.227142,153.939499 206.558624,153.992889 
	C205.128616,152.517975 204.159470,151.046051 203.109558,149.252350 
	C206.069000,148.324173 209.109207,147.717773 212.544022,147.062714 
	C215.078232,149.062820 217.217834,151.111603 219.499969,153.493561 
z"/>
<path fill="#948365" opacity="1.000000" stroke="none" 
	d="
M69.265198,99.191360 
	C69.453102,98.349785 69.940010,97.743973 71.025558,96.967331 
	C72.435532,96.194901 73.246864,95.593285 74.344589,95.149185 
	C76.418915,96.834053 78.206833,98.361404 79.994759,99.888748 
	C77.245918,101.469749 74.497078,103.050751 71.272850,104.905174 
	C70.477226,102.354340 70.020714,100.890724 69.265198,99.191360 
z"/>
<path fill="#494138" opacity="1.000000" stroke="none" 
	d="
M164.981934,217.950241 
	C177.008408,214.993652 189.033081,212.029724 201.069641,209.114777 
	C201.443405,209.024261 201.940033,209.441132 203.722534,210.172745 
	C190.616592,213.270355 178.700760,216.086700 166.279007,218.727737 
	C165.509354,218.351715 165.245651,218.150970 164.981934,217.950241 
z"/>
<path fill="#C0AD84" opacity="1.000000" stroke="none" 
	d="
M45.461868,33.735291 
	C44.880810,34.038754 44.526016,34.086727 43.409546,34.131409 
	C42.125935,33.799694 41.604000,33.471264 41.082066,33.142834 
	C39.359619,30.497784 37.637169,27.852736 35.595413,25.144939 
	C34.868565,22.798769 36.061913,20.677729 37.911022,22.516205 
	C41.041916,25.629095 43.150036,29.770676 45.461868,33.735291 
z"/>
<path fill="#F1DBA3" opacity="1.000000" stroke="none" 
	d="
M205.565857,138.486115 
	C203.365128,139.118149 201.025726,139.410919 198.296326,139.875900 
	C196.573029,137.960754 195.239731,135.873428 193.819885,133.446167 
	C195.621170,132.508774 197.508987,131.911331 199.728699,131.145416 
	C201.849487,133.366943 203.638336,135.756897 205.565857,138.486115 
z"/>
<path fill="#C3B086" opacity="1.000000" stroke="none" 
	d="
M56.668221,112.936745 
	C60.336094,112.135246 63.711086,111.371552 67.032837,110.421684 
	C69.164024,109.812271 71.216766,108.928513 73.304665,108.167732 
	C73.497368,108.597656 73.690063,109.027588 73.882767,109.457520 
	C68.489906,112.282326 63.097038,115.107124 56.986549,117.980789 
	C55.516239,118.013977 54.763561,117.998306 54.010883,117.982635 
	C54.353374,116.531914 54.695866,115.081184 55.060131,113.248749 
	C55.505531,112.876587 55.929157,112.886124 56.668221,112.936745 
z"/>
<path fill="#E9D49E" opacity="1.000000" stroke="none" 
	d="
M98.412796,96.768127 
	C95.125618,94.058846 92.212929,91.361183 89.144287,88.371841 
	C90.493118,88.302467 91.997894,88.524757 94.168602,88.860634 
	C95.560051,88.983978 96.285568,88.993736 97.011093,89.003494 
	C97.011093,89.003494 96.998779,89.001373 97.035446,89.339348 
	C99.350952,91.714867 101.629807,93.752411 103.908661,95.789948 
	C102.201538,96.119881 100.494415,96.449814 98.412796,96.768127 
z"/>
<path fill="#EDD89F" opacity="1.000000" stroke="none" 
	d="
M80.413002,99.919914 
	C78.206833,98.361404 76.418915,96.834053 74.335205,94.756424 
	C74.066811,93.159431 74.094208,92.112740 74.478920,91.041855 
	C75.551666,91.018608 76.267090,91.019539 77.042999,91.263626 
	C77.361443,91.709175 77.619415,91.911568 77.928009,92.459854 
	C80.324944,94.208847 82.671242,95.611946 85.010963,97.005035 
	C85.004387,96.995026 84.981499,96.987961 84.990692,97.319626 
	C85.432129,98.122520 85.864357,98.593742 86.296585,99.064957 
	C84.474808,99.360329 82.653030,99.655701 80.413002,99.919914 
z"/>
<path fill="#BBA881" opacity="1.000000" stroke="none" 
	d="
M77.746246,175.817688 
	C78.304840,177.103348 78.615906,178.207443 78.560524,179.656082 
	C77.117676,180.004822 76.041275,180.009048 74.964874,180.013275 
	C74.281891,179.116013 73.598900,178.218735 72.778740,177.082184 
	C74.402542,174.187286 74.946663,170.184769 79.757179,170.820709 
	C79.405106,171.656525 78.657082,172.225021 78.254883,172.978180 
	C77.830818,173.772308 77.736877,174.742722 77.746246,175.817688 
z"/>
<path fill="#B6A47E" opacity="1.000000" stroke="none" 
	d="
M75.030205,180.352997 
	C76.041275,180.009048 77.117676,180.004822 78.597687,180.000443 
	C80.057678,181.582855 81.408791,183.058578 82.038696,184.795792 
	C82.327728,185.592911 81.200417,186.903580 80.351120,187.992523 
	C78.356422,185.566711 76.725975,183.129715 75.030205,180.352997 
z"/>
<path fill="#5E5546" opacity="1.000000" stroke="none" 
	d="
M164.572037,217.968567 
	C165.245651,218.150970 165.509354,218.351715 165.886230,218.775909 
	C160.940918,220.245575 155.882462,221.491760 150.823990,222.737946 
	C150.669373,222.181763 150.514740,221.625580 150.360123,221.069397 
	C154.960785,220.041885 159.561462,219.014389 164.572037,217.968567 
z"/>
<path fill="#948365" opacity="1.000000" stroke="none" 
	d="
M146.865356,223.427216 
	C142.299789,224.469086 138.062378,225.351685 133.824966,226.234283 
	C133.712158,225.698227 133.599350,225.162170 133.486542,224.626099 
	C138.193832,223.779602 142.900696,222.930771 147.610504,222.098541 
	C147.742371,222.075241 147.905563,222.229202 148.054138,222.300507 
	C147.767258,222.622986 147.480392,222.945480 146.865356,223.427216 
z"/>
<path fill="#B6A47E" opacity="1.000000" stroke="none" 
	d="
M116.557419,229.477417 
	C115.005302,229.599472 113.862396,229.599472 112.719498,229.599472 
	C112.707207,229.118561 112.694916,228.637650 112.682625,228.156738 
	C116.767265,227.634537 120.851906,227.112335 124.936546,226.590134 
	C125.009354,227.004044 125.082153,227.417938 125.154953,227.831833 
	C122.425514,228.339676 119.696075,228.847504 116.557419,229.477417 
z"/>
<path fill="#E9D49E" opacity="1.000000" stroke="none" 
	d="
M89.933113,97.899948 
	C89.194527,98.153763 88.455940,98.407578 87.350204,98.341461 
	C86.315872,97.677002 85.648682,97.332481 84.981499,96.987961 
	C84.981499,96.987961 85.004387,96.995026 84.865677,96.709534 
	C83.146393,94.954445 81.565811,93.484848 80.341461,92.008423 
	C82.790527,93.015511 84.883369,94.029419 86.976212,95.043335 
	C86.976212,95.043335 87.006165,95.008514 87.116806,95.290169 
	C88.129333,96.347870 89.031227,97.123909 89.933113,97.899948 
z"/>
<path fill="#D0BC8E" opacity="1.000000" stroke="none" 
	d="
M104.211365,95.714600 
	C101.629807,93.752411 99.350952,91.714867 97.034058,89.333267 
	C98.713928,89.915703 100.431839,90.842194 102.529175,91.778778 
	C103.443756,93.072327 103.978912,94.355789 104.211365,95.714600 
z"/>
<path fill="#5E5546" opacity="1.000000" stroke="none" 
	d="
M65.812698,173.278046 
	C66.629196,174.768631 67.232910,175.992722 67.836624,177.216797 
	C67.450485,177.425003 67.064346,177.633194 66.678207,177.841400 
	C65.347870,175.675919 64.017532,173.510437 62.687195,171.344955 
	C63.022614,171.115265 63.358028,170.885559 63.693447,170.655869 
	C64.328934,171.441101 64.964424,172.226318 65.812698,173.278046 
z"/>
<path fill="#5E5546" opacity="1.000000" stroke="none" 
	d="
M71.505157,183.015533 
	C70.432220,182.343842 69.219467,181.400238 68.006706,180.456635 
	C68.401390,180.044052 68.796074,179.631470 69.190750,179.218887 
	C69.915611,180.393799 70.640480,181.568726 71.505157,183.015533 
z"/>
<path fill="#BBA881" opacity="1.000000" stroke="none" 
	d="
M90.288406,97.926956 
	C89.031227,97.123909 88.129333,96.347870 87.095825,95.298340 
	C88.610703,95.691216 90.257195,96.357574 91.973213,97.369507 
	C91.576393,97.794708 91.110046,97.874329 90.288406,97.926956 
z"/>
<path fill="#5E5546" opacity="1.000000" stroke="none" 
	d="
M59.986275,164.025818 
	C60.825821,165.448776 61.665363,166.871750 62.504910,168.294708 
	C62.138363,168.497543 61.771816,168.700378 61.405273,168.903214 
	C60.629837,167.493835 59.854404,166.084457 59.284554,164.339935 
	C59.490131,164.004776 59.986279,164.025818 59.986275,164.025818 
z"/>
<path fill="#494138" opacity="1.000000" stroke="none" 
	d="
M53.593296,154.651764 
	C54.514351,155.242645 55.226345,156.046143 55.938335,156.849655 
	C55.534870,157.126984 55.131405,157.404312 54.727940,157.681641 
	C54.280037,156.742554 53.832134,155.803467 53.593296,154.651764 
z"/>
<path fill="#494138" opacity="1.000000" stroke="none" 
	d="
M58.978939,163.020721 
	C57.999260,162.059372 57.019585,161.098022 56.039906,160.136673 
	C56.431797,159.848251 56.823692,159.559814 57.215584,159.271378 
	C57.789948,160.285385 58.364311,161.299377 58.968262,162.657776 
	C58.997849,163.002167 58.978939,163.020721 58.978939,163.020721 
z"/>
<path fill="#494138" opacity="1.000000" stroke="none" 
	d="
M50.426380,149.955780 
	C50.802292,149.727173 51.176075,149.729492 51.547691,149.759033 
	C51.558403,149.759888 51.546135,150.049698 51.544586,150.204773 
	C51.171040,150.200043 50.797489,150.195312 50.426380,149.955780 
z"/>
<path fill="#B19F7B" opacity="1.000000" stroke="none" 
	d="
M84.990692,97.319626 
	C85.648682,97.332481 86.315872,97.677002 87.052902,98.312576 
	C87.122749,98.603638 86.783760,98.967117 86.540176,99.016037 
	C85.864357,98.593742 85.432129,98.122520 84.990692,97.319626 
z"/>
<path fill="#494138" opacity="1.000000" stroke="none" 
	d="
M59.882755,163.804108 
	C59.986279,164.025818 59.490131,164.004776 59.241867,163.997116 
	C58.993603,163.989456 58.984951,163.504852 58.981945,163.262787 
	C58.978939,163.020721 58.997849,163.002167 59.008125,162.994110 
	C59.331985,163.108337 59.585598,163.307114 59.882755,163.804108 
z"/>
<path fill="#E9D49E" opacity="1.000000" stroke="none" 
	d="
M77.530159,127.034332 
	C78.769722,126.714218 80.009285,126.394112 81.808044,125.876785 
	C82.895386,125.407555 83.423531,125.135536 83.951683,124.863525 
	C84.681602,124.802673 85.411522,124.741821 86.577408,125.000076 
	C92.173508,127.546127 97.184288,130.285049 102.538437,131.846970 
	C107.292366,133.233795 112.677124,132.562973 117.346420,134.115082 
	C130.345993,138.436218 143.774673,139.304047 157.222977,139.888046 
	C164.460602,140.202362 171.750717,139.420334 179.012100,139.036972 
	C184.021088,138.772491 189.021423,138.343536 194.025620,137.988068 
	C194.711578,139.000519 195.397522,140.012970 196.160034,141.329117 
	C192.778198,142.088531 189.323517,142.901505 185.860748,142.937546 
	C171.568024,143.086319 157.257767,143.390152 142.984741,142.839371 
	C135.525558,142.551544 128.131866,140.598618 120.705078,139.419846 
	C118.425323,139.058014 116.090599,138.949585 113.856346,138.412109 
	C108.119720,137.032135 102.501328,134.828110 96.695717,134.147675 
	C88.582176,133.196762 80.334648,133.437653 72.160889,132.912628 
	C70.449425,132.802704 68.809433,131.580109 67.429871,130.261658 
	C68.904404,128.148041 73.197502,130.494217 72.058487,126.156723 
	C72.042801,126.176163 72.066429,126.167152 72.423462,126.185249 
	C73.005997,126.126236 73.231506,126.049118 73.457008,125.972008 
	C73.457008,125.972008 73.479767,125.995613 73.231842,126.374298 
	C74.499329,126.846764 76.014748,126.940552 77.530159,127.034332 
z"/>
<path fill="#494138" opacity="1.000000" stroke="none" 
	d="
M72.074181,126.137291 
	C73.197502,130.494217 68.904404,128.148041 67.364426,129.878906 
	C64.308846,130.745758 61.499584,131.098587 58.942307,132.096893 
	C55.318741,133.511444 53.431316,132.232010 53.003822,128.741287 
	C51.934231,120.007439 51.282509,111.219223 50.081600,102.505402 
	C48.377338,90.139198 46.322571,77.821434 44.433338,65.480553 
	C42.990273,56.054173 41.532429,46.629601 40.197823,37.187733 
	C40.050968,36.148762 40.672832,35.001137 41.010117,33.523369 
	C41.604000,33.471264 42.125935,33.799694 42.875492,34.187965 
	C44.161205,50.544621 45.086681,66.754547 52.574776,81.917030 
	C55.289379,87.413780 55.749886,94.058403 56.963333,100.233421 
	C57.214676,101.512474 56.617958,103.329834 55.772541,104.388245 
	C52.163414,108.906693 51.264553,113.765923 53.448410,119.878296 
	C54.470871,122.420120 55.221443,124.270088 56.037743,126.342178 
	C56.274860,126.857018 56.529980,127.011208 57.051598,127.371887 
	C62.590645,131.039078 67.162651,126.993355 72.074181,126.137291 
z"/>
<path fill="#E0CC98" opacity="1.000000" stroke="none" 
	d="
M198.427261,145.996765 
	C199.178284,146.663437 199.484253,147.331329 199.781143,148.368439 
	C184.716843,149.015381 169.661636,149.293106 154.303207,149.284607 
	C158.946671,148.332260 163.875259,147.353531 168.843842,147.066452 
	C178.544815,146.505905 188.268143,146.332001 198.427261,145.996765 
z"/>
<path fill="#9F8E6E" opacity="1.000000" stroke="none" 
	d="
M97.001053,201.001221 
	C96.833504,199.574234 96.665970,198.147263 96.498428,196.720276 
	C96.761482,196.560791 97.024544,196.401291 97.287598,196.241806 
	C99.964012,200.122299 102.640419,204.002777 105.662384,208.180649 
	C106.007927,208.478027 106.008049,208.955536 106.008049,208.955536 
	C106.959435,212.019745 107.910828,215.083969 109.389435,219.846237 
	C106.609665,218.595627 104.191078,218.278610 103.731651,217.158234 
	C102.271881,213.598358 97.351479,211.016403 100.370132,205.868591 
	C100.831963,205.081009 98.641670,202.738220 97.339005,201.057373 
	C97.000000,201.000000 97.001053,201.001221 97.001053,201.001221 
z"/>
<path fill="#948365" opacity="1.000000" stroke="none" 
	d="
M106.306671,209.126953 
	C106.008049,208.955536 106.007927,208.478027 106.004265,208.239319 
	C104.095795,203.882874 102.190979,199.765121 100.144821,195.329407 
	C100.908470,195.481369 101.813461,195.951294 102.870636,196.704773 
	C106.618683,204.060989 110.214539,211.133682 113.810394,218.206360 
	C113.434425,218.417419 113.058456,218.628494 112.682487,218.839554 
	C110.656754,215.659164 108.631020,212.478760 106.306671,209.126953 
z"/>
<path fill="#948365" opacity="1.000000" stroke="none" 
	d="
M120.270500,199.222229 
	C119.699661,197.899933 119.402817,196.791992 119.105972,195.684067 
	C119.462784,195.522079 119.819603,195.360107 120.176422,195.198120 
	C121.270821,197.000931 122.365219,198.803757 123.725967,200.819122 
	C125.910614,205.435669 127.828903,209.839676 129.747192,214.243683 
	C129.271088,214.474594 128.794983,214.705490 128.318878,214.936386 
	C125.727417,209.769791 123.135956,204.603180 120.270500,199.222229 
z"/>
<path fill="#948365" opacity="1.000000" stroke="none" 
	d="
M109.013229,198.986572 
	C110.717896,201.750748 112.484039,204.479309 114.111069,207.288452 
	C115.988556,210.529999 117.743332,213.842636 119.552933,217.123611 
	C116.189606,216.282059 111.605324,208.745438 108.999977,199.384552 
	C109.000725,198.999283 109.013229,198.986572 109.013229,198.986572 
z"/>
<path fill="#948365" opacity="1.000000" stroke="none" 
	d="
M115.990967,199.309357 
	C116.482834,199.198196 116.968422,199.489609 117.709610,199.899857 
	C120.151260,205.092361 122.337318,210.166016 124.523369,215.239685 
	C124.106422,215.458725 123.689476,215.677780 123.272530,215.896835 
	C120.431595,210.723831 116.998985,205.869858 115.990967,199.309357 
z"/>
<path fill="#948365" opacity="1.000000" stroke="none" 
	d="
M126.277184,199.201569 
	C126.074272,198.233368 126.129440,197.492920 126.273170,195.563721 
	C127.741646,197.877350 128.607697,199.241837 129.730652,200.805908 
	C131.688492,204.988739 133.389420,208.971970 135.090347,212.955185 
	C134.708511,213.139542 134.326660,213.323883 133.944809,213.508240 
	C131.474960,208.815247 129.005112,204.122269 126.277184,199.201569 
z"/>
<path fill="#9F8E6E" opacity="1.000000" stroke="none" 
	d="
M95.000916,199.998779 
	C95.495773,200.259705 95.990639,200.520630 96.743271,200.891388 
	C97.001053,201.001221 97.000000,201.000000 96.999390,200.999390 
	C97.178787,202.143402 97.358803,203.288025 97.538811,204.432663 
	C97.191658,204.535645 96.844505,204.638641 96.497353,204.741623 
	C96.001816,203.399673 95.506279,202.057709 95.005371,200.357880 
	C95.000000,200.000000 95.000916,199.998779 95.000916,199.998779 
z"/>
<path fill="#9F8E6E" opacity="1.000000" stroke="none" 
	d="
M90.315407,187.129211 
	C90.017715,185.936295 90.010025,184.870468 90.005707,183.405273 
	C90.323761,183.115387 90.580849,183.303574 90.894638,183.783752 
	C91.649765,185.113693 92.290581,186.230347 92.963120,187.671051 
	C92.198364,187.748840 91.401894,187.502563 90.315407,187.129211 
z"/>
<path fill="#9F8E6E" opacity="1.000000" stroke="none" 
	d="
M93.006287,189.344589 
	C93.980728,190.103119 94.959900,191.227036 95.973663,192.680725 
	C95.009186,191.910339 94.010109,190.810165 93.006287,189.344589 
z"/>
<path fill="#948365" opacity="1.000000" stroke="none" 
	d="
M113.742729,193.164917 
	C114.582001,194.430588 115.160568,195.912659 115.875229,197.709229 
	C115.178123,197.470200 114.344925,196.916687 113.254181,196.181458 
	C113.158440,195.126923 113.320229,194.254135 113.742729,193.164917 
z"/>
<path fill="#9F8E6E" opacity="1.000000" stroke="none" 
	d="
M94.999542,200.000366 
	C94.502785,199.703690 94.006493,199.406662 93.510193,199.109619 
	C93.684349,198.907104 93.858513,198.704590 94.032684,198.502075 
	C94.329880,198.816833 94.627068,199.131592 94.962585,199.722565 
	C95.000916,199.998779 95.000000,200.000000 94.999542,200.000366 
z"/>
<path fill="#948365" opacity="1.000000" stroke="none" 
	d="
M108.993896,199.004150 
	C108.748505,198.668594 108.507774,198.329544 108.286758,197.978088 
	C108.282333,197.971069 108.508202,197.819214 108.626617,197.734940 
	C108.744972,197.997925 108.863335,198.260895 108.997467,198.755219 
	C109.013229,198.986572 109.000725,198.999283 108.993896,199.004150 
z"/>
<path fill="#BBA881" opacity="1.000000" stroke="none" 
	d="
M220.059250,180.902145 
	C221.031342,182.673401 222.003433,184.444656 223.020340,186.557114 
	C221.897034,186.864899 220.585159,187.170822 219.582733,186.746201 
	C208.078552,181.873062 195.885315,180.559174 183.623138,180.071503 
	C167.928787,179.447342 152.213974,179.342361 136.508438,178.993683 
	C122.229294,178.676682 107.949188,178.383636 93.673668,177.944748 
	C91.602127,177.881042 89.553802,177.062393 87.629807,176.128723 
	C95.672066,175.109711 103.575546,174.176422 111.487396,174.099106 
	C120.757751,174.008484 130.033646,174.726608 139.310257,174.979355 
	C153.668335,175.370544 168.028107,175.868759 182.388962,175.935394 
	C193.906982,175.988861 205.138062,177.309784 216.063858,181.071671 
	C217.237106,181.475647 218.720001,180.980301 220.059250,180.902145 
z"/>
<path fill="#C0AD84" opacity="1.000000" stroke="none" 
	d="
M219.955597,180.585815 
	C218.720001,180.980301 217.237106,181.475647 216.063858,181.071671 
	C205.138062,177.309784 193.906982,175.988861 182.388962,175.935394 
	C168.028107,175.868759 153.668335,175.370544 139.310257,174.979355 
	C130.033646,174.726608 120.757751,174.008484 111.487396,174.099106 
	C103.575546,174.176422 95.672066,175.109711 87.382286,175.832489 
	C86.999695,176.000610 87.000000,176.000000 86.825859,175.686432 
	C85.102028,174.914429 83.552345,174.455994 82.002670,173.997559 
	C82.000565,173.554962 81.998466,173.112350 81.993660,172.337921 
	C101.826302,171.969452 121.661652,171.913422 141.497009,171.903152 
	C154.085983,171.896622 166.685257,171.656570 179.260773,172.083862 
	C189.454483,172.430222 199.620209,173.609238 209.797104,174.434219 
	C211.607941,174.581009 213.412750,174.802460 215.662964,174.981262 
	C217.354385,176.738541 218.603165,178.504013 219.955597,180.585815 
z"/>
<path fill="#BBA881" opacity="1.000000" stroke="none" 
	d="
M82.043983,174.342880 
	C83.552345,174.455994 85.102028,174.914429 86.825706,175.686737 
	C84.964317,177.050659 83.041283,177.680008 82.043983,174.342880 
z"/>
<path fill="#5E5546" opacity="1.000000" stroke="none" 
	d="
M56.638245,45.022774 
	C61.282825,54.137016 65.582787,63.219437 69.471207,72.692551 
	C68.776146,73.125824 68.492622,73.168411 68.209091,73.210991 
	C64.053276,64.384521 59.882488,55.564968 55.789413,46.709492 
	C55.600834,46.301491 56.109627,45.571159 56.638245,45.022774 
z"/>
<path fill="#494138" opacity="1.000000" stroke="none" 
	d="
M68.206680,73.623413 
	C68.492622,73.168411 68.776146,73.125824 69.488464,73.050125 
	C70.874870,75.127472 71.832497,77.237953 72.956596,79.658447 
	C73.415855,81.069603 73.708633,82.170753 73.978439,83.968300 
	C74.005058,85.130264 74.054657,85.595833 74.056168,86.377197 
	C74.043282,87.116737 74.078476,87.540466 74.073441,88.351151 
	C74.062668,89.514091 74.092133,90.290062 74.121597,91.066040 
	C74.094208,92.112740 74.066811,93.159431 74.048805,94.598900 
	C73.246864,95.593285 72.435532,96.194901 71.336456,96.896416 
	C73.046318,88.977890 71.414612,81.409073 68.206680,73.623413 
z"/>
<path fill="#E5D09B" opacity="1.000000" stroke="none" 
	d="
M55.972015,126.120056 
	C55.221443,124.270088 54.470871,122.420120 53.657227,120.249710 
	C53.669746,119.606209 53.745338,119.283150 53.915905,118.471367 
	C54.763561,117.998306 55.516239,118.013977 56.645203,118.056297 
	C57.015041,118.794754 57.008591,119.506561 56.905586,120.835480 
	C58.931721,123.439102 56.824230,124.667030 55.972015,126.120056 
z"/>
<path fill="#E5D09B" opacity="1.000000" stroke="none" 
	d="
M60.110695,105.094048 
	C59.431396,105.045219 58.675884,104.947250 57.920368,104.849274 
	C57.984577,104.539986 58.048790,104.230705 58.112999,103.921417 
	C58.750488,104.156586 59.387978,104.391747 60.085693,104.907486 
	C60.145920,105.188065 60.034481,105.044899 60.110695,105.094048 
z"/>
<path fill="#D0BC8E" opacity="1.000000" stroke="none" 
	d="
M96.861656,88.735336 
	C96.285568,88.993736 95.560051,88.983978 94.475189,88.967819 
	C94.981316,88.796677 95.846764,88.631927 96.861656,88.735336 
z"/>
<path fill="#D9C494" opacity="1.000000" stroke="none" 
	d="
M201.437027,151.012970 
	C202.181717,151.467407 202.514496,151.937042 202.933914,152.681381 
	C201.135742,153.637253 199.260910,154.873520 197.364441,154.907669 
	C186.735535,155.099014 176.100098,154.897461 165.469406,155.030746 
	C155.655365,155.153793 145.844330,155.693512 136.032410,155.681610 
	C133.512787,155.678558 130.994843,154.287338 128.238068,153.266907 
	C132.997482,152.729553 137.992996,152.280075 142.992859,152.224869 
	C154.396866,152.098923 165.803040,152.180222 177.208252,152.148636 
	C182.362701,152.134369 187.520584,152.150223 192.669846,151.960617 
	C195.462585,151.857758 198.240509,151.352127 201.437027,151.012970 
z"/>
<path fill="#F6E0A7" opacity="1.000000" stroke="none" 
	d="
M109.758102,117.492050 
	C113.822388,116.298485 117.886681,115.104919 122.641678,114.079552 
	C131.463150,121.095688 141.668015,122.011467 151.475769,123.944405 
	C156.301163,124.895416 161.242905,125.865540 166.118683,125.802177 
	C172.685959,125.716820 179.240372,124.642426 185.800308,123.992508 
	C187.189484,126.294807 188.578659,128.597107 189.525192,131.348297 
	C183.544800,131.974915 177.995010,131.980667 172.471817,132.366730 
	C161.441452,133.137711 150.484161,133.041519 139.752914,130.041885 
	C132.947342,128.139572 126.082428,126.318756 119.504532,123.785278 
	C115.971817,122.424660 112.989029,119.636215 109.758102,117.492050 
z"/>
<path fill="#F1DBA3" opacity="1.000000" stroke="none" 
	d="
M109.386497,117.618073 
	C112.989029,119.636215 115.971817,122.424660 119.504532,123.785278 
	C126.082428,126.318756 132.947342,128.139572 139.752914,130.041885 
	C150.484161,133.041519 161.441452,133.137711 172.471817,132.366730 
	C177.995010,131.980667 183.544800,131.974915 189.614273,131.722015 
	C190.715851,132.568863 191.285706,133.490860 191.591064,134.853088 
	C185.078827,135.853546 178.840149,136.575180 172.580688,136.926605 
	C166.839020,137.248947 160.998093,137.812515 155.337173,137.133591 
	C144.526443,135.837051 133.780502,133.903549 123.071648,131.893524 
	C117.420235,130.832779 111.769394,129.424347 106.373047,127.469612 
	C102.730438,126.150146 99.532486,123.603165 96.135628,121.605278 
	C100.428719,120.318214 104.721802,119.031151 109.386497,117.618073 
z"/>
<path fill="#FEECAF" opacity="1.000000" stroke="none" 
	d="
M135.780212,109.892136 
	C146.290482,106.966713 156.771637,103.925484 167.348831,101.266266 
	C168.633194,100.943367 170.839005,102.317406 171.919998,103.528046 
	C174.991730,106.968201 177.702209,110.730934 180.269104,114.746941 
	C164.312637,121.288094 149.770264,117.921913 135.780212,109.892136 
z"/>
<path fill="#FCE6AB" opacity="1.000000" stroke="none" 
	d="
M135.401672,109.918228 
	C149.770264,117.921913 164.312637,121.288094 180.349640,115.062065 
	C182.410004,117.765854 184.104065,120.534775 185.799225,123.648102 
	C179.240372,124.642426 172.685959,125.716820 166.118683,125.802177 
	C161.242905,125.865540 156.301163,124.895416 151.475769,123.944405 
	C141.668015,122.011467 131.463150,121.095688 123.022659,114.054932 
	C126.816322,112.556190 130.919724,111.250252 135.401672,109.918228 
z"/>
<path fill="#EDD89F" opacity="1.000000" stroke="none" 
	d="
M95.827942,121.754303 
	C99.532486,123.603165 102.730438,126.150146 106.373047,127.469612 
	C111.769394,129.424347 117.420235,130.832779 123.071648,131.893524 
	C133.780502,133.903549 144.526443,135.837051 155.337173,137.133591 
	C160.998093,137.812515 166.839020,137.248947 172.580688,136.926605 
	C178.840149,136.575180 185.078827,135.853546 191.717285,135.124634 
	C192.687698,135.769485 193.267395,136.582993 193.936356,137.692291 
	C189.021423,138.343536 184.021088,138.772491 179.012100,139.036972 
	C171.750717,139.420334 164.460602,140.202362 157.222977,139.888046 
	C143.774673,139.304047 130.345993,138.436218 117.346420,134.115082 
	C112.677124,132.562973 107.292366,133.233795 102.538437,131.846970 
	C97.184288,130.285049 92.173508,127.546127 86.939789,124.919785 
	C89.750885,123.648048 92.635567,122.775688 95.827942,121.754303 
z"/>
<path fill="#494138" opacity="1.000000" stroke="none" 
	d="
M83.742386,124.628662 
	C83.423531,125.135536 82.895386,125.407555 82.130402,125.863914 
	C81.595459,125.550880 81.297340,125.053497 81.354462,124.235420 
	C82.317490,124.074417 82.925293,124.234108 83.742386,124.628662 
z"/>
<path fill="#C0AD84" opacity="1.000000" stroke="none" 
	d="
M56.037743,126.342178 
	C56.824230,124.667030 58.931721,123.439102 56.902306,121.192589 
	C62.095482,119.778641 67.195381,118.624695 72.295280,117.470741 
	C72.378456,117.769226 72.461632,118.067711 72.544807,118.366188 
	C70.652939,119.019173 68.761070,119.672165 66.126602,120.581459 
	C70.632660,120.933487 74.301300,121.220093 78.553169,121.552261 
	C76.594093,122.948517 74.925827,124.137512 73.357285,125.649261 
	C73.231506,126.049118 73.005997,126.126236 72.152603,126.146820 
	C71.345062,126.059952 71.165405,126.029617 70.905762,125.778557 
	C70.627274,125.297546 70.367996,125.133125 69.675850,125.192001 
	C65.158791,125.888580 61.013805,126.457733 56.868820,127.026878 
	C56.529980,127.011208 56.274860,126.857018 56.037743,126.342178 
z"/>
<path fill="#494138" opacity="1.000000" stroke="none" 
	d="
M77.694191,126.622269 
	C76.014748,126.940552 74.499329,126.846764 73.232697,126.358398 
	C74.940384,126.045952 76.399307,126.128082 77.694191,126.622269 
z"/>
<path fill="#BBA881" opacity="1.000000" stroke="none" 
	d="
M74.104248,86.061394 
	C74.054657,85.595833 74.005058,85.130264 74.037247,84.321693 
	C78.386414,87.432709 82.653793,90.886734 86.948692,94.692047 
	C84.883369,94.029419 82.790527,93.015511 80.348618,92.001816 
	C79.999542,92.002037 79.987648,92.017624 79.984047,91.675163 
	C78.021713,89.575600 76.062988,87.818497 74.104248,86.061394 
z"/>
<path fill="#F1DBA3" opacity="1.000000" stroke="none" 
	d="
M80.004440,83.996582 
	C80.122612,84.137154 80.236206,84.281342 80.349800,84.425529 
	C80.263786,84.378143 80.177773,84.330757 80.041977,84.146652 
	C79.992195,84.009933 79.999878,84.000183 80.004440,83.996582 
z"/>
<path fill="#B19F7B" opacity="1.000000" stroke="none" 
	d="
M79.992386,92.008644 
	C81.565811,93.484848 83.146393,94.954445 84.872253,96.719543 
	C82.671242,95.611946 80.324944,94.208847 77.970169,92.419205 
	C77.961685,92.032677 78.042007,91.947456 78.365891,91.973724 
	C79.122406,92.005867 79.555023,92.011742 79.987648,92.017624 
	C79.987648,92.017624 79.999542,92.002037 79.992386,92.008644 
z"/>
<path fill="#B19F7B" opacity="1.000000" stroke="none" 
	d="
M74.478912,91.041855 
	C74.092133,90.290062 74.062668,89.514091 74.310402,88.538498 
	C75.392868,89.224747 76.198135,90.110611 76.999619,91.000626 
	C76.995834,91.004784 76.982521,91.020477 76.982521,91.020477 
	C76.267090,91.019539 75.551666,91.018608 74.478912,91.041855 
z"/>
<path fill="#B19F7B" opacity="1.000000" stroke="none" 
	d="
M77.919533,92.073318 
	C77.619415,91.911568 77.361443,91.709175 77.042999,91.263626 
	C76.982521,91.020477 76.995834,91.004784 77.224358,91.096619 
	C77.740608,91.370552 77.936981,91.623550 78.042007,91.947456 
	C78.042007,91.947456 77.961685,92.032677 77.919533,92.073318 
z"/>
<path fill="#E0CC98" opacity="1.000000" stroke="none" 
	d="
M57.051598,127.371887 
	C61.013805,126.457733 65.158791,125.888580 69.779510,125.393883 
	C70.447144,125.716286 70.690643,125.893265 70.985756,125.999283 
	C71.165405,126.029617 71.345062,126.059952 71.795570,126.128723 
	C72.066429,126.167152 72.042801,126.176163 72.058487,126.156723 
	C67.162651,126.993355 62.590645,131.039078 57.051598,127.371887 
z"/>
<path fill="#E9D49E" opacity="1.000000" stroke="none" 
	d="
M78.365891,91.973724 
	C77.936981,91.623550 77.740608,91.370552 77.228134,91.092468 
	C76.198135,90.110611 75.392868,89.224747 74.350639,88.151535 
	C74.078476,87.540466 74.043282,87.116737 74.056168,86.377197 
	C76.062988,87.818497 78.021713,89.575600 79.984047,91.675163 
	C79.555023,92.011742 79.122406,92.005867 78.365891,91.973724 
z"/>
<path fill="#EDD89F" opacity="1.000000" stroke="none" 
	d="
M70.905762,125.778557 
	C70.690643,125.893265 70.447144,125.716286 70.151581,125.266457 
	C70.367996,125.133125 70.627274,125.297546 70.905762,125.778557 
z"/>
</svg>